<svg width="36" height="34" viewBox="0 0 36 34" fill="none" xmlns="http://www.w3.org/2000/svg">
<path d="M3.85249 14.5475C1.88828 14.5475 0.906179 13.5654 0.906179 11.6012L0.90618 3.61345C0.90618 1.64924 1.88829 0.667138 3.85249 0.667138L11.4474 0.667139C13.4116 0.667139 14.3937 1.64924 14.3937 3.61345L14.3937 11.6012C14.3937 16.1844 13.9136 20.1783 12.9533 23.5829C11.9494 27.0312 10.007 30.0429 7.12617 32.6182C6.16589 33.4476 5.35838 33.5567 4.70365 32.9456L1.75734 30.1957C1.1026 29.5846 1.25537 28.8426 2.21565 27.9696C3.69972 26.6601 4.92189 24.7614 5.88217 22.2734C6.7988 19.8291 7.25711 17.2538 7.25711 14.5475L3.85249 14.5475ZM25.4588 14.5475C23.4946 14.5475 22.5125 13.5654 22.5125 11.6012L22.5125 3.61345C22.5125 1.64924 23.4946 0.66714 25.4588 0.66714L33.0537 0.667141C35.0179 0.667141 36 1.64924 36 3.61345L36 11.6012C36 16.1844 35.5199 20.1783 34.5596 23.5829C33.5557 27.0312 31.6133 30.0429 28.7324 32.6182C27.7722 33.4476 26.9647 33.5567 26.3099 32.9456L23.3636 30.1957C22.7089 29.5846 22.8616 28.8426 23.8219 27.9696C25.306 26.6601 26.5282 24.7614 27.4884 22.2734C28.4051 19.8291 28.8634 17.2538 28.8634 14.5475L25.4588 14.5475Z" fill="url(#paint0_linear_5298_7749)"/>
<defs>
<linearGradient id="paint0_linear_5298_7749" x1="36" y1="0.667137" x2="-12.0236" y2="0.667133" gradientUnits="userSpaceOnUse">
<stop stop-color="#FFAC88"/>
<stop offset="1" stop-color="#FF8716"/>
</linearGradient>
</defs>
</svg>
