<svg width="32" height="33" viewBox="0 0 32 33" fill="none" xmlns="http://www.w3.org/2000/svg">
<path d="M16 3.09961C12.6388 3.09967 9.40826 4.40157 6.98625 6.73213C4.56423 9.06269 3.13901 12.2408 3.00964 15.5995C2.88027 18.9582 4.05681 22.2365 6.29237 24.7464C8.52794 27.2564 11.6488 28.8029 15 29.0615V19.0997H12C11.7348 19.0997 11.4804 18.9944 11.2929 18.8068C11.1054 18.6193 11 18.3649 11 18.0997C11 17.8345 11.1054 17.5802 11.2929 17.3926C11.4804 17.2051 11.7348 17.0997 12 17.0997H15V14.0997C15.0012 13.0392 15.423 12.0225 16.1729 11.2726C16.9228 10.5228 17.9395 10.1009 19 10.0997H21C21.2652 10.0997 21.5196 10.2051 21.7071 10.3926C21.8946 10.5802 22 10.8345 22 11.0997C22 11.3649 21.8946 11.6193 21.7071 11.8068C21.5196 11.9944 21.2652 12.0997 21 12.0997H19C18.4698 12.1003 17.9614 12.3112 17.5865 12.6862C17.2115 13.0611 17.0006 13.5695 17 14.0997V17.0997H20C20.2652 17.0997 20.5196 17.2051 20.7071 17.3926C20.8946 17.5802 21 17.8345 21 18.0997C21 18.3649 20.8946 18.6193 20.7071 18.8068C20.5196 18.9944 20.2652 19.0997 20 19.0997H17V29.0615C20.3512 28.8029 23.472 27.2563 25.7076 24.7464C27.9431 22.2364 29.1197 18.9582 28.9903 15.5995C28.8609 12.2408 27.4357 9.06271 25.0137 6.73215C22.5917 4.40159 19.3612 3.09968 16 3.09961Z" fill="#E0E0E0"/>
</svg>
