<svg width="439" height="199" viewBox="0 0 439 199" fill="none" xmlns="http://www.w3.org/2000/svg">
<path fill-rule="evenodd" clip-rule="evenodd" d="M0 42C0 30.9543 8.9543 22 20 22H368C379.046 22 388 30.9543 388 42V65.0342C369.171 70.8647 355.48 88.567 355.48 109.5C355.48 130.433 369.171 148.135 388 153.966V178C388 189.046 379.046 198 368 198H20C8.95431 198 0 189.046 0 178V154.969C18.8348 149.143 32.5315 131.437 32.5315 110.5C32.5315 89.5626 18.8348 71.8572 0 66.0305V42Z" fill="url(#paint0_linear_6_331)"/>
<rect x="372" y="78" width="65.1429" height="65.1429" rx="32.5714" fill="white"/>
<path d="M392.27 120.668C392.307 120.824 392.375 120.971 392.471 121.1C392.566 121.229 392.686 121.337 392.825 121.419C392.963 121.5 393.116 121.552 393.275 121.573C393.435 121.593 393.596 121.581 393.751 121.538C400.829 119.583 408.306 119.583 415.385 121.536C415.539 121.579 415.701 121.591 415.86 121.571C416.019 121.55 416.172 121.498 416.31 121.417C416.449 121.335 416.569 121.227 416.664 121.098C416.76 120.969 416.828 120.822 416.865 120.666L420.648 104.588C420.699 104.372 420.689 104.147 420.618 103.938C420.548 103.728 420.42 103.542 420.25 103.401C420.08 103.26 419.873 103.169 419.654 103.139C419.435 103.109 419.212 103.141 419.01 103.231L411.502 106.568C411.231 106.688 410.924 106.703 410.643 106.609C410.361 106.515 410.125 106.319 409.981 106.059L405.609 98.1899C405.507 98.0048 405.356 97.8506 405.174 97.7432C404.991 97.6358 404.783 97.5791 404.571 97.5791C404.36 97.5791 404.152 97.6358 403.969 97.7432C403.787 97.8506 403.636 98.0048 403.533 98.1899L399.161 106.059C399.017 106.319 398.781 106.515 398.5 106.609C398.219 106.703 397.912 106.688 397.641 106.568L390.131 103.23C389.929 103.14 389.706 103.109 389.487 103.139C389.268 103.169 389.062 103.26 388.892 103.401C388.722 103.542 388.594 103.727 388.524 103.937C388.453 104.146 388.443 104.372 388.493 104.587L392.27 120.668Z" stroke="#CA58FF" stroke-width="2" stroke-linecap="round" stroke-linejoin="round"/>
<path d="M399.821 115.571C402.979 115.238 406.163 115.238 409.321 115.571" stroke="#CA58FF" stroke-width="2" stroke-linecap="round" stroke-linejoin="round"/>
<rect x="372" y="78" width="65.1429" height="65.1429" rx="32.5714" stroke="url(#paint1_linear_6_331)" stroke-width="2"/>
<defs>
<linearGradient id="paint0_linear_6_331" x1="-1.70644e-05" y1="21.9904" x2="389.958" y2="26.4412" gradientUnits="userSpaceOnUse">
<stop stop-color="#5C0172"/>
<stop offset="0.709783" stop-color="#320159"/>
</linearGradient>
<linearGradient id="paint1_linear_6_331" x1="371" y1="76.9963" x2="438.489" y2="77.3457" gradientUnits="userSpaceOnUse">
<stop stop-color="#95B8FF"/>
<stop offset="0.520833" stop-color="#B67DFF"/>
</linearGradient>
</defs>
</svg>
