<svg width="435" height="199" viewBox="0 0 435 199" fill="none" xmlns="http://www.w3.org/2000/svg">
<path fill-rule="evenodd" clip-rule="evenodd" d="M47 43C47 31.9543 55.9543 23 67 23H415C426.046 23 435 31.9543 435 43V66.0342C416.171 71.8647 402.48 89.567 402.48 110.5C402.48 131.433 416.171 149.135 435 154.966V179C435 190.046 426.046 199 415 199H67C55.9543 199 47 190.046 47 179V155.969C65.8348 150.143 79.5315 132.437 79.5315 111.5C79.5315 90.5626 65.8348 72.8572 47 67.0305V43Z" fill="url(#paint0_linear_6_318)"/>
<rect x="1" y="78" width="65.1429" height="65.1429" rx="32.5714" fill="white"/>
<path d="M24.0714 123.634C23.9155 123.634 23.761 123.603 23.617 123.544C23.4729 123.484 23.342 123.396 23.2317 123.286C23.1214 123.176 23.034 123.045 22.9743 122.901C22.9146 122.757 22.8839 122.602 22.8839 122.446L22.884 116.109C22.2505 116.409 21.5514 116.544 20.8517 116.501C20.1521 116.459 19.4746 116.24 18.8823 115.865C18.29 115.49 17.8021 114.971 17.464 114.357C17.126 113.743 16.9487 113.054 16.9487 112.353C16.9487 111.652 17.126 110.962 17.464 110.348C17.8021 109.734 18.29 109.216 18.8823 108.841C19.4746 108.466 20.1521 108.247 20.8517 108.204C21.5514 108.161 22.2505 108.296 22.884 108.596L22.8839 102.259C22.8839 102.103 22.9146 101.949 22.9743 101.805C23.034 101.66 23.1214 101.53 23.2317 101.419C23.342 101.309 23.4729 101.221 23.617 101.162C23.7611 101.102 23.9155 101.071 24.0714 101.071L31.0026 101.072C30.7026 100.438 30.5677 99.7389 30.6104 99.0393C30.6531 98.3396 30.872 97.6621 31.2469 97.0698C31.6217 96.4775 32.1403 95.9896 32.7543 95.6516C33.3684 95.3135 34.0579 95.1362 34.7589 95.1362C35.4598 95.1362 36.1494 95.3135 36.7634 95.6516C37.3775 95.9896 37.896 96.4775 38.2709 97.0698C38.6457 97.6621 38.8647 98.3396 38.9074 99.0393C38.9501 99.7389 38.8152 100.438 38.5151 101.072L45.4463 101.071C45.7613 101.071 46.0633 101.197 46.286 101.419C46.5087 101.642 46.6338 101.944 46.6338 102.259L46.6339 108.596C46.0004 108.296 45.3013 108.161 44.6017 108.204C43.902 108.247 43.2245 108.466 42.6322 108.841C42.0399 109.216 41.552 109.734 41.214 110.348C40.8759 110.962 40.6986 111.652 40.6986 112.353C40.6986 113.054 40.8759 113.743 41.214 114.357C41.552 114.971 42.0399 115.49 42.6322 115.865C43.2245 116.24 43.902 116.459 44.6017 116.501C45.3013 116.544 46.0004 116.409 46.6339 116.109L46.6338 122.446C46.6338 122.761 46.5087 123.063 46.286 123.286C46.0633 123.509 45.7613 123.634 45.4463 123.634L24.0714 123.634Z" stroke="#CA58FF" stroke-width="2" stroke-linecap="round" stroke-linejoin="round"/>
<rect x="1" y="78" width="65.1429" height="65.1429" rx="32.5714" stroke="url(#paint1_linear_6_318)" stroke-width="2"/>
<defs>
<linearGradient id="paint0_linear_6_318" x1="47" y1="22.9904" x2="436.958" y2="27.4412" gradientUnits="userSpaceOnUse">
<stop stop-color="#5C0172"/>
<stop offset="0.709783" stop-color="#320159"/>
</linearGradient>
<linearGradient id="paint1_linear_6_318" x1="-2.95298e-06" y1="76.9963" x2="67.4887" y2="77.3457" gradientUnits="userSpaceOnUse">
<stop stop-color="#96B6FF"/>
<stop offset="0.520833" stop-color="#B77BFF"/>
</linearGradient>
</defs>
</svg>
