<svg width="33" height="33" viewBox="0 0 33 33" fill="none" xmlns="http://www.w3.org/2000/svg">
<path d="M22.3142 11.4584C24.1954 12.8048 26.4989 13.5971 28.987 13.5971V9.82199C27.5982 9.52568 26.3687 8.79874 25.4443 7.78761C23.8619 6.79861 22.7219 5.16702 22.3876 3.25734H18.8995V22.4128C18.8916 24.6459 17.0822 26.4541 14.8509 26.4541C13.5361 26.4541 12.368 25.8263 11.6282 24.8538C10.3071 24.186 9.4012 22.815 9.4012 21.2316C9.4012 18.9923 11.2135 17.1767 13.4496 17.1767C13.878 17.1767 14.291 17.2435 14.6783 17.3666V13.5503C9.8764 13.6496 6.0145 17.5796 6.0145 22.4129C6.0145 24.8256 6.9762 27.0128 8.53705 28.611C9.94517 29.558 11.6403 30.1104 13.464 30.1104C18.3519 30.1104 22.3143 26.1415 22.3143 21.2456V11.4584H22.3142Z" fill="#E0E0E0"/>
<path d="M28.987 9.82199L28.987 8.80124C27.7346 8.80315 26.5068 8.45184 25.4442 7.78751C26.3849 8.81897 27.6234 9.53019 28.987 9.82199ZM22.3876 3.25734C22.3557 3.07483 22.3312 2.89112 22.3142 2.7067V2.08984H17.498V21.2455C17.4903 23.4783 15.6811 25.2865 13.4496 25.2865C12.7945 25.2865 12.1759 25.1307 11.6282 24.8539C12.368 25.8263 13.5361 26.454 14.8509 26.454C17.082 26.454 18.8917 24.646 18.8995 22.4129L18.8995 3.25734H22.3876ZM14.6785 13.5503V12.4636C14.2761 12.4085 13.8703 12.3809 13.4641 12.3811C8.57584 12.381 4.61328 16.3499 4.61328 21.2455C4.61328 24.3147 6.17064 27.0197 8.53716 28.6108C6.9763 27.0127 6.0146 24.8254 6.0146 22.4128C6.0146 17.5796 9.8764 13.6496 14.6785 13.5503Z" fill="#E0E0E0"/>
</svg>
