<svg width="73" height="73" viewBox="0 0 73 73" fill="none" xmlns="http://www.w3.org/2000/svg">
<rect x="0.774414" y="0.926758" width="71" height="71" rx="35.5" fill="white"/>
<path d="M36.2744 20.5693C27.4382 20.5693 20.2744 27.6693 20.2744 36.4267C20.2744 45.1842 27.4382 52.2841 36.2744 52.2841C45.1106 52.2841 52.2744 45.1875 52.2744 36.4267C52.2744 27.666 45.109 20.5693 36.2744 20.5693ZM42.7901 36.4481C42.2862 36.8095 41.7111 37.0608 41.1028 37.1857L41.0033 37.2054V41.4897H37.8441V36.9836L37.3535 36.8686C36.7601 36.7323 36.1468 36.5927 35.6015 36.5598C35.4805 36.5549 35.3595 36.5565 35.2385 36.5664L35.1224 36.5762V44.8721H31.9682V37.6161L30.9936 38.3027L29.1703 35.7466L30.1847 35.0288C30.6886 34.6674 31.2637 34.416 31.8721 34.2912L31.9715 34.2715V28.8668H35.1307V33.4402L35.26 33.4353C35.3329 33.432 35.4075 33.432 35.4805 33.432C35.5882 33.4304 35.6959 33.4353 35.8037 33.4468H35.8136C36.4485 33.4846 37.08 33.5799 37.6982 33.731L37.8474 33.7671V28.8356H41.0066V33.8608L41.9812 33.1741L43.8078 35.7286L42.7901 36.4481Z" fill="#474747"/>
<rect x="0.774414" y="0.926758" width="71" height="71" rx="35.5" stroke="#E0E0E0"/>
</svg>
