<svg width="57" height="57" viewBox="0 0 57 57" fill="none" xmlns="http://www.w3.org/2000/svg">
<rect x="1" y="1.17773" width="55" height="55" rx="27.5" fill="url(#paint0_linear_4768_5939)"/>
<path d="M25.5 34.6777C27.7091 34.6777 29.5 32.8869 29.5 30.6777C29.5 28.4686 27.7091 26.6777 25.5 26.6777C23.2909 26.6777 21.5 28.4686 21.5 30.6777C21.5 32.8869 23.2909 34.6777 25.5 34.6777Z" stroke="white" stroke-width="2" stroke-linecap="round" stroke-linejoin="round"/>
<path d="M19.1737 38.6776C19.7418 37.4807 20.6378 36.4696 21.7576 35.7616C22.8775 35.0536 24.1751 34.6777 25.5 34.6777C26.8249 34.6777 28.1225 35.0536 29.2424 35.7616C30.3622 36.4696 31.2582 37.4807 31.8263 38.6776L39.5 38.6777C39.6313 38.6777 39.7613 38.6519 39.8827 38.6016C40.004 38.5514 40.1142 38.4777 40.2071 38.3848C40.3 38.292 40.3736 38.1817 40.4239 38.0604C40.4741 37.9391 40.5 37.8091 40.5 37.6777V19.6777C40.5 19.4125 40.3946 19.1582 40.2071 18.9706C40.0196 18.7831 39.7652 18.6777 39.5 18.6777H17.5C17.2348 18.6777 16.9804 18.7831 16.7929 18.9706C16.6054 19.1582 16.5 19.4125 16.5 19.6777V37.6778C16.5 37.8091 16.5259 37.9392 16.5761 38.0605C16.6264 38.1818 16.7 38.292 16.7929 38.3849C16.8858 38.4778 16.996 38.5514 17.1173 38.6016C17.2386 38.6519 17.3687 38.6777 17.5 38.6777L19.1737 38.6776Z" stroke="white" stroke-width="2" stroke-linecap="round" stroke-linejoin="round"/>
<path d="M34.5 34.6777H36.5V22.6777H20.5V24.6777" stroke="white" stroke-width="2" stroke-linecap="round" stroke-linejoin="round"/>
<rect x="1" y="1.17773" width="55" height="55" rx="27.5" stroke="#E0E0E0"/>
<defs>
<linearGradient id="paint0_linear_4768_5939" x1="0.5" y1="56.6777" x2="77.1323" y2="56.6777" gradientUnits="userSpaceOnUse">
<stop stop-color="#92BDFF"/>
<stop offset="1" stop-color="#CA58FF"/>
</linearGradient>
</defs>
</svg>
