<svg width="57" height="57" viewBox="0 0 57 57" fill="none" xmlns="http://www.w3.org/2000/svg">
<rect x="1" y="0.615234" width="55" height="55" rx="27.5" fill="url(#paint0_linear_5643_68125)"/>
<path d="M24.2566 35.1858C22.8424 39.4285 17.1855 39.4285 17.1855 39.4285C17.1855 39.4285 17.1855 33.7716 21.4282 32.3574" stroke="white" stroke-width="2" stroke-linecap="round" stroke-linejoin="round"/>
<path d="M36.9859 25.2877L28.5006 33.773L22.8438 28.1162L31.329 19.6309C34.5421 16.4179 37.7551 16.4492 39.1253 16.6536C39.3363 16.6851 39.5316 16.7835 39.6824 16.9343C39.8333 17.0851 39.9317 17.2804 39.9631 17.4914C40.1676 18.8617 40.1989 22.0747 36.9859 25.2877Z" stroke="white" stroke-width="2" stroke-linecap="round" stroke-linejoin="round"/>
<path d="M35.5711 26.7012V34.7722C35.5711 34.9036 35.5452 35.0336 35.4949 35.1549C35.4447 35.2762 35.371 35.3865 35.2782 35.4793L31.2355 39.5221C31.1075 39.6501 30.9471 39.7409 30.7716 39.7849C30.596 39.829 30.4118 39.8245 30.2386 39.7721C30.0653 39.7196 29.9096 39.6211 29.7879 39.4871C29.6663 39.3531 29.5833 39.1886 29.5478 39.0111L28.5 33.7722" stroke="white" stroke-width="2" stroke-linecap="round" stroke-linejoin="round"/>
<path d="M29.9146 21.0449H21.8435C21.7122 21.0449 21.5821 21.0708 21.4608 21.121C21.3395 21.1713 21.2293 21.245 21.1364 21.3378L17.0937 25.3805C16.9657 25.5085 16.8748 25.6688 16.8308 25.8444C16.7868 26.02 16.7912 26.2042 16.8437 26.3774C16.8961 26.5507 16.9946 26.7064 17.1286 26.8281C17.2627 26.9497 17.4272 27.0327 17.6047 27.0682L22.8435 28.116" stroke="white" stroke-width="2" stroke-linecap="round" stroke-linejoin="round"/>
<rect x="1" y="0.615234" width="55" height="55" rx="27.5" stroke="#E0E0E0"/>
<defs>
<linearGradient id="paint0_linear_5643_68125" x1="0.499998" y1="0.112182" x2="56.7884" y2="0.403602" gradientUnits="userSpaceOnUse">
<stop stop-color="#1060FF"/>
<stop offset="0.520833" stop-color="#94E5FF"/>
</linearGradient>
</defs>
</svg>
