<svg width="438" height="176" viewBox="0 0 438 176" fill="none" xmlns="http://www.w3.org/2000/svg">
<path fill-rule="evenodd" clip-rule="evenodd" d="M0 20C0 8.95431 8.9543 0 20 0H368C379.046 0 388 8.9543 388 20V43.0342C369.171 48.8647 355.48 66.567 355.48 87.5C355.48 108.433 369.171 126.135 388 131.966V156C388 167.046 379.046 176 368 176H20C8.95431 176 0 167.046 0 156V132.969C18.8348 127.143 32.5315 109.437 32.5315 88.5C32.5315 67.5626 18.8348 49.8572 0 44.0305V20Z" fill="url(#paint0_linear_5808_62462)"/>
<rect x="371" y="55" width="65.1429" height="65.1429" rx="32.5714" fill="white"/>
<path d="M391.269 97.6676C391.306 97.8237 391.375 97.9707 391.47 98.0998C391.565 98.2288 391.686 98.3372 391.824 98.4185C391.962 98.4998 392.116 98.5523 392.275 98.5728C392.434 98.5933 392.595 98.5814 392.75 98.5378C399.829 96.5833 407.305 96.5826 414.384 98.5358C414.538 98.5793 414.7 98.5912 414.859 98.5707C415.018 98.5502 415.171 98.4977 415.31 98.4165C415.448 98.3353 415.568 98.2269 415.664 98.0979C415.759 97.9689 415.827 97.822 415.864 97.666L419.648 81.5877C419.698 81.3725 419.688 81.1474 419.617 80.9377C419.547 80.7281 419.42 80.5423 419.249 80.4012C419.079 80.2602 418.873 80.1694 418.654 80.1393C418.435 80.1091 418.211 80.1407 418.009 80.2305L410.501 83.5677C410.23 83.6882 409.923 83.7028 409.642 83.6087C409.361 83.5146 409.125 83.3186 408.981 83.0592L404.609 75.1899C404.506 75.0048 404.355 74.8505 404.173 74.7431C403.99 74.6357 403.782 74.5791 403.571 74.5791C403.359 74.5791 403.151 74.6357 402.968 74.7431C402.786 74.8505 402.635 75.0048 402.533 75.1899L398.161 83.0592C398.017 83.3186 397.781 83.5146 397.499 83.6087C397.218 83.7028 396.912 83.6882 396.64 83.5677L389.131 80.23C388.929 80.1402 388.706 80.1086 388.487 80.1388C388.268 80.1689 388.061 80.2596 387.891 80.4006C387.721 80.5416 387.593 80.7273 387.523 80.9369C387.452 81.1464 387.442 81.3715 387.492 81.5867L391.269 97.6676Z" stroke="#026193" stroke-width="2" stroke-linecap="round" stroke-linejoin="round"/>
<path d="M398.82 92.5705C401.978 92.2382 405.162 92.2382 408.32 92.5705" stroke="#026193" stroke-width="2" stroke-linecap="round" stroke-linejoin="round"/>
<rect x="371" y="55" width="65.1429" height="65.1429" rx="32.5714" stroke="url(#paint1_linear_5808_62462)" stroke-width="2"/>
<defs>
<linearGradient id="paint0_linear_5808_62462" x1="-1.70644e-05" y1="-0.0095936" x2="389.958" y2="4.44119" gradientUnits="userSpaceOnUse">
<stop stop-color="#1060FF"/>
<stop offset="0.520833" stop-color="#94E5FF"/>
</linearGradient>
<linearGradient id="paint1_linear_5808_62462" x1="370" y1="53.9963" x2="437.489" y2="54.3457" gradientUnits="userSpaceOnUse">
<stop stop-color="#1060FF"/>
<stop offset="0.520833" stop-color="#94E5FF"/>
</linearGradient>
</defs>
</svg>
