<svg width="435" height="176" viewBox="0 0 435 176" fill="none" xmlns="http://www.w3.org/2000/svg">
<path fill-rule="evenodd" clip-rule="evenodd" d="M47 20C47 8.95431 55.9543 0 67 0H415C426.046 0 435 8.9543 435 20V43.0342C416.171 48.8647 402.48 66.567 402.48 87.5C402.48 108.433 416.171 126.135 435 131.966V156C435 167.046 426.046 176 415 176H67C55.9543 176 47 167.046 47 156V132.969C65.8348 127.143 79.5315 109.437 79.5315 88.5C79.5315 67.5626 65.8348 49.8572 47 44.0305V20Z" fill="url(#paint0_linear_5808_62449)"/>
<rect x="1" y="55" width="65.1429" height="65.1429" rx="32.5714" fill="white"/>
<path d="M24.0719 100.634C23.916 100.634 23.7616 100.603 23.6175 100.544C23.4734 100.484 23.3425 100.396 23.2323 100.286C23.122 100.176 23.0345 100.045 22.9748 99.9009C22.9152 99.7568 22.8844 99.6024 22.8844 99.4464L22.8845 93.1089C22.251 93.409 21.5519 93.5439 20.8523 93.5012C20.1526 93.4585 19.4751 93.2396 18.8828 92.8647C18.2905 92.4899 17.8026 91.9713 17.4646 91.3573C17.1265 90.7432 16.9492 90.0537 16.9492 89.3527C16.9492 88.6517 17.1265 87.9622 17.4646 87.3481C17.8026 86.7341 18.2905 86.2155 18.8828 85.8407C19.4751 85.4658 20.1526 85.2469 20.8523 85.2042C21.5519 85.1615 22.251 85.2964 22.8845 85.5965L22.8845 79.259C22.8844 79.103 22.9152 78.9486 22.9748 78.8045C23.0345 78.6604 23.122 78.5295 23.2323 78.4193C23.3425 78.309 23.4734 78.2215 23.6175 78.1618C23.7616 78.1022 23.916 78.0714 24.072 78.0714L31.0032 78.0715C30.7032 77.438 30.5682 76.7389 30.6109 76.0393C30.6536 75.3396 30.8726 74.6621 31.2474 74.0698C31.6223 73.4775 32.1408 72.9897 32.7549 72.6516C33.3689 72.3135 34.0585 72.1362 34.7594 72.1362C35.4604 72.1362 36.15 72.3135 36.764 72.6516C37.378 72.9897 37.8966 73.4775 38.2714 74.0698C38.6463 74.6621 38.8652 75.3396 38.9079 76.0393C38.9506 76.7389 38.8157 77.438 38.5157 78.0715L45.4469 78.0714C45.7618 78.0714 46.0639 78.1966 46.2866 78.4192C46.5093 78.6419 46.6344 78.944 46.6344 79.2589L46.6345 85.5965C46.001 85.2964 45.3019 85.1615 44.6022 85.2042C43.9026 85.2469 43.2251 85.4658 42.6328 85.8407C42.0405 86.2155 41.5526 86.7341 41.2145 87.3481C40.8764 87.9622 40.6992 88.6517 40.6992 89.3527C40.6992 90.0537 40.8764 90.7432 41.2145 91.3573C41.5526 91.9713 42.0405 92.4899 42.6328 92.8647C43.2251 93.2396 43.9026 93.4585 44.6022 93.5012C45.3019 93.5439 46.001 93.409 46.6345 93.1089L46.6344 99.4465C46.6344 99.7614 46.5093 100.063 46.2866 100.286C46.0639 100.509 45.7618 100.634 45.4469 100.634L24.0719 100.634Z" stroke="#026193" stroke-width="2" stroke-linecap="round" stroke-linejoin="round"/>
<rect x="1" y="55" width="65.1429" height="65.1429" rx="32.5714" stroke="url(#paint1_linear_5808_62449)" stroke-width="2"/>
<defs>
<linearGradient id="paint0_linear_5808_62449" x1="47" y1="-0.0095936" x2="436.958" y2="4.44119" gradientUnits="userSpaceOnUse">
<stop stop-color="#1060FF"/>
<stop offset="0.520833" stop-color="#94E5FF"/>
</linearGradient>
<linearGradient id="paint1_linear_5808_62449" x1="-2.95298e-06" y1="53.9963" x2="67.4887" y2="54.3457" gradientUnits="userSpaceOnUse">
<stop stop-color="#1060FF"/>
<stop offset="0.520833" stop-color="#94E5FF"/>
</linearGradient>
</defs>
</svg>
