<svg width="1440" height="25549" viewBox="0 0 1440 25549" fill="none" xmlns="http://www.w3.org/2000/svg">
<path d="M0 0V26943.7" stroke="#CECECE"/>
<path d="M72.25 0V26943.7" stroke="#CECECE"/>
<path d="M144.5 0V26943.7" stroke="#CECECE"/>
<path d="M216.75 0V26943.7" stroke="#CECECE"/>
<path d="M289 0V26943.7" stroke="#CECECE"/>
<path d="M361.25 0V26943.7" stroke="#CECECE"/>
<path d="M433.5 0V26943.7" stroke="#CECECE"/>
<path d="M505.75 0V26943.7" stroke="#CECECE"/>
<path d="M578 0V26943.7" stroke="#CECECE"/>
<path d="M650.25 0V26943.7" stroke="#CECECE"/>
<path d="M722.5 0V26943.7" stroke="#CECECE"/>
<path d="M794.75 0V26943.7" stroke="#CECECE"/>
<path d="M867 0V26943.7" stroke="#CECECE"/>
<path d="M939.25 0V26943.7" stroke="#CECECE"/>
<path d="M1011.5 0V26943.7" stroke="#CECECE"/>
<path d="M1083.75 0V26943.7" stroke="#CECECE"/>
<path d="M1156 0V26943.7" stroke="#CECECE"/>
<path d="M1228.25 0V26943.7" stroke="#CECECE"/>
<path d="M1300.5 0V26943.7" stroke="#CECECE"/>
<path d="M1372.75 0V26943.7" stroke="#CECECE"/>
<path d="M-5.31055 1562.31L1443 1562.31" stroke="#CECECE"/>
<path d="M-5.31055 3079.56L1443 3079.56" stroke="#CECECE"/>
<path d="M-5.31055 4596.81L1443 4596.81" stroke="#CECECE"/>
<path d="M-5.31055 6114.06L1443 6114.06" stroke="#CECECE"/>
<path d="M-5.31055 7631.31L1443 7631.31" stroke="#CECECE"/>
<path d="M-5.31055 9148.56L1443 9148.56" stroke="#CECECE"/>
<path d="M-5.31055 10665.8L1443 10665.8" stroke="#CECECE"/>
<path d="M-5.31055 12183.1L1443 12183.1" stroke="#CECECE"/>
<path d="M-5.31055 13700.3L1443 13700.3" stroke="#CECECE"/>
<path d="M-5.31055 15217.6L1443 15217.6" stroke="#CECECE"/>
<path d="M-5.31055 16734.8L1443 16734.8" stroke="#CECECE"/>
<path d="M-5.31055 18252.1L1443 18252.1" stroke="#CECECE"/>
<path d="M-5.31055 19769.3L1443 19769.3" stroke="#CECECE"/>
<path d="M-5.31055 21286.6L1443 21286.6" stroke="#CECECE"/>
<path d="M-5.31055 22803.8L1443 22803.8" stroke="#CECECE"/>
<path d="M-5.31055 24321.1L1443 24321.1" stroke="#CECECE"/>
<path d="M-5.31055 1490.06L1443 1490.06" stroke="#CECECE"/>
<path d="M-5.31055 3007.31L1443 3007.31" stroke="#CECECE"/>
<path d="M-5.31055 4524.56L1443 4524.56" stroke="#CECECE"/>
<path d="M-5.31055 6041.81L1443 6041.81" stroke="#CECECE"/>
<path d="M-5.31055 7559.06L1443 7559.06" stroke="#CECECE"/>
<path d="M-5.31055 9076.31L1443 9076.31" stroke="#CECECE"/>
<path d="M-5.31055 10593.6L1443 10593.6" stroke="#CECECE"/>
<path d="M-5.31055 12110.8L1443 12110.8" stroke="#CECECE"/>
<path d="M-5.31055 13628.1L1443 13628.1" stroke="#CECECE"/>
<path d="M-5.31055 15145.3L1443 15145.3" stroke="#CECECE"/>
<path d="M-5.31055 16662.6L1443 16662.6" stroke="#CECECE"/>
<path d="M-5.31055 18179.8L1443 18179.8" stroke="#CECECE"/>
<path d="M-5.31055 19697.1L1443 19697.1" stroke="#CECECE"/>
<path d="M-5.31055 21214.3L1443 21214.3" stroke="#CECECE"/>
<path d="M-5.31055 22731.6L1443 22731.6" stroke="#CECECE"/>
<path d="M-5.31055 24248.8L1443 24248.8" stroke="#CECECE"/>
<path d="M-5.31055 1417.81L1443 1417.81" stroke="#CECECE"/>
<path d="M-5.31055 2935.06L1443 2935.06" stroke="#CECECE"/>
<path d="M-5.31055 4452.31L1443 4452.31" stroke="#CECECE"/>
<path d="M-5.31055 5969.56L1443 5969.56" stroke="#CECECE"/>
<path d="M-5.31055 7486.81L1443 7486.81" stroke="#CECECE"/>
<path d="M-5.31055 9004.06L1443 9004.06" stroke="#CECECE"/>
<path d="M-5.31055 10521.3L1443 10521.3" stroke="#CECECE"/>
<path d="M-5.31055 12038.6L1443 12038.6" stroke="#CECECE"/>
<path d="M-5.31055 13555.8L1443 13555.8" stroke="#CECECE"/>
<path d="M-5.31055 15073.1L1443 15073.1" stroke="#CECECE"/>
<path d="M-5.31055 16590.3L1443 16590.3" stroke="#CECECE"/>
<path d="M-5.31055 18107.6L1443 18107.6" stroke="#CECECE"/>
<path d="M-5.31055 19624.8L1443 19624.8" stroke="#CECECE"/>
<path d="M-5.31055 21142.1L1443 21142.1" stroke="#CECECE"/>
<path d="M-5.31055 22659.3L1443 22659.3" stroke="#CECECE"/>
<path d="M-5.31055 24176.6L1443 24176.6" stroke="#CECECE"/>
<path d="M-5.31055 1345.56L1443 1345.56" stroke="#CECECE"/>
<path d="M-5.31055 2862.81L1443 2862.81" stroke="#CECECE"/>
<path d="M-5.31055 4380.06L1443 4380.06" stroke="#CECECE"/>
<path d="M-5.31055 5897.31L1443 5897.31" stroke="#CECECE"/>
<path d="M-5.31055 7414.56L1443 7414.56" stroke="#CECECE"/>
<path d="M-5.31055 8931.81L1443 8931.81" stroke="#CECECE"/>
<path d="M-5.31055 10449.1L1443 10449.1" stroke="#CECECE"/>
<path d="M-5.31055 11966.3L1443 11966.3" stroke="#CECECE"/>
<path d="M-5.31055 13483.6L1443 13483.6" stroke="#CECECE"/>
<path d="M-5.31055 15000.8L1443 15000.8" stroke="#CECECE"/>
<path d="M-5.31055 16518.1L1443 16518.1" stroke="#CECECE"/>
<path d="M-5.31055 18035.3L1443 18035.3" stroke="#CECECE"/>
<path d="M-5.31055 19552.6L1443 19552.6" stroke="#CECECE"/>
<path d="M-5.31055 21069.8L1443 21069.8" stroke="#CECECE"/>
<path d="M-5.31055 22587.1L1443 22587.1" stroke="#CECECE"/>
<path d="M-5.31055 24104.3L1443 24104.3" stroke="#CECECE"/>
<path d="M-5.31055 1273.31L1443 1273.31" stroke="#CECECE"/>
<path d="M-5.31055 2790.56L1443 2790.56" stroke="#CECECE"/>
<path d="M-5.31055 4307.81L1443 4307.81" stroke="#CECECE"/>
<path d="M-5.31055 5825.06L1443 5825.06" stroke="#CECECE"/>
<path d="M-5.31055 7342.31L1443 7342.31" stroke="#CECECE"/>
<path d="M-5.31055 8859.56L1443 8859.56" stroke="#CECECE"/>
<path d="M-5.31055 10376.8L1443 10376.8" stroke="#CECECE"/>
<path d="M-5.31055 11894.1L1443 11894.1" stroke="#CECECE"/>
<path d="M-5.31055 13411.3L1443 13411.3" stroke="#CECECE"/>
<path d="M-5.31055 14928.6L1443 14928.6" stroke="#CECECE"/>
<path d="M-5.31055 16445.8L1443 16445.8" stroke="#CECECE"/>
<path d="M-5.31055 17963.1L1443 17963.1" stroke="#CECECE"/>
<path d="M-5.31055 19480.3L1443 19480.3" stroke="#CECECE"/>
<path d="M-5.31055 20997.6L1443 20997.6" stroke="#CECECE"/>
<path d="M-5.31055 22514.8L1443 22514.8" stroke="#CECECE"/>
<path d="M-5.31055 24032.1L1443 24032.1" stroke="#CECECE"/>
<path d="M-5.31055 25549.3L1443 25549.3" stroke="#CECECE"/>
<path d="M-5.31055 1201.06L1443 1201.06" stroke="#CECECE"/>
<path d="M-5.31055 2718.31L1443 2718.31" stroke="#CECECE"/>
<path d="M-5.31055 4235.56L1443 4235.56" stroke="#CECECE"/>
<path d="M-5.31055 5752.81L1443 5752.81" stroke="#CECECE"/>
<path d="M-5.31055 7270.06L1443 7270.06" stroke="#CECECE"/>
<path d="M-5.31055 8787.31L1443 8787.31" stroke="#CECECE"/>
<path d="M-5.31055 10304.6L1443 10304.6" stroke="#CECECE"/>
<path d="M-5.31055 11821.8L1443 11821.8" stroke="#CECECE"/>
<path d="M-5.31055 13339.1L1443 13339.1" stroke="#CECECE"/>
<path d="M-5.31055 14856.3L1443 14856.3" stroke="#CECECE"/>
<path d="M-5.31055 16373.6L1443 16373.6" stroke="#CECECE"/>
<path d="M-5.31055 17890.8L1443 17890.8" stroke="#CECECE"/>
<path d="M-5.31055 19408.1L1443 19408.1" stroke="#CECECE"/>
<path d="M-5.31055 20925.3L1443 20925.3" stroke="#CECECE"/>
<path d="M-5.31055 22442.6L1443 22442.6" stroke="#CECECE"/>
<path d="M-5.31055 23959.8L1443 23959.8" stroke="#CECECE"/>
<path d="M-5.31055 25477.1L1443 25477.1" stroke="#CECECE"/>
<path d="M-5.31055 1128.81L1443 1128.81" stroke="#CECECE"/>
<path d="M-5.31055 2646.06L1443 2646.06" stroke="#CECECE"/>
<path d="M-5.31055 4163.31L1443 4163.31" stroke="#CECECE"/>
<path d="M-5.31055 5680.56L1443 5680.56" stroke="#CECECE"/>
<path d="M-5.31055 7197.81L1443 7197.81" stroke="#CECECE"/>
<path d="M-5.31055 8715.06L1443 8715.06" stroke="#CECECE"/>
<path d="M-5.31055 10232.3L1443 10232.3" stroke="#CECECE"/>
<path d="M-5.31055 11749.6L1443 11749.6" stroke="#CECECE"/>
<path d="M-5.31055 13266.8L1443 13266.8" stroke="#CECECE"/>
<path d="M-5.31055 14784.1L1443 14784.1" stroke="#CECECE"/>
<path d="M-5.31055 16301.3L1443 16301.3" stroke="#CECECE"/>
<path d="M-5.31055 17818.6L1443 17818.6" stroke="#CECECE"/>
<path d="M-5.31055 19335.8L1443 19335.8" stroke="#CECECE"/>
<path d="M-5.31055 20853.1L1443 20853.1" stroke="#CECECE"/>
<path d="M-5.31055 22370.3L1443 22370.3" stroke="#CECECE"/>
<path d="M-5.31055 23887.6L1443 23887.6" stroke="#CECECE"/>
<path d="M-5.31055 25404.8L1443 25404.8" stroke="#CECECE"/>
<path d="M-5.31055 1056.56L1443 1056.56" stroke="#CECECE"/>
<path d="M-5.31055 2573.81L1443 2573.81" stroke="#CECECE"/>
<path d="M-5.31055 4091.06L1443 4091.06" stroke="#CECECE"/>
<path d="M-5.31055 5608.31L1443 5608.31" stroke="#CECECE"/>
<path d="M-5.31055 7125.56L1443 7125.56" stroke="#CECECE"/>
<path d="M-5.31055 8642.81L1443 8642.81" stroke="#CECECE"/>
<path d="M-5.31055 10160.1L1443 10160.1" stroke="#CECECE"/>
<path d="M-5.31055 11677.3L1443 11677.3" stroke="#CECECE"/>
<path d="M-5.31055 13194.6L1443 13194.6" stroke="#CECECE"/>
<path d="M-5.31055 14711.8L1443 14711.8" stroke="#CECECE"/>
<path d="M-5.31055 16229.1L1443 16229.1" stroke="#CECECE"/>
<path d="M-5.31055 17746.3L1443 17746.3" stroke="#CECECE"/>
<path d="M-5.31055 19263.6L1443 19263.6" stroke="#CECECE"/>
<path d="M-5.31055 20780.8L1443 20780.8" stroke="#CECECE"/>
<path d="M-5.31055 22298.1L1443 22298.1" stroke="#CECECE"/>
<path d="M-5.31055 23815.3L1443 23815.3" stroke="#CECECE"/>
<path d="M-5.31055 25332.6L1443 25332.6" stroke="#CECECE"/>
<path d="M-5.31055 984.309L1443 984.309" stroke="#CECECE"/>
<path d="M-5.31055 2501.56L1443 2501.56" stroke="#CECECE"/>
<path d="M-5.31055 4018.81L1443 4018.81" stroke="#CECECE"/>
<path d="M-5.31055 5536.06L1443 5536.06" stroke="#CECECE"/>
<path d="M-5.31055 7053.31L1443 7053.31" stroke="#CECECE"/>
<path d="M-5.31055 8570.56L1443 8570.56" stroke="#CECECE"/>
<path d="M-5.31055 10087.8L1443 10087.8" stroke="#CECECE"/>
<path d="M-5.31055 11605.1L1443 11605.1" stroke="#CECECE"/>
<path d="M-5.31055 13122.3L1443 13122.3" stroke="#CECECE"/>
<path d="M-5.31055 14639.6L1443 14639.6" stroke="#CECECE"/>
<path d="M-5.31055 16156.8L1443 16156.8" stroke="#CECECE"/>
<path d="M-5.31055 17674.1L1443 17674.1" stroke="#CECECE"/>
<path d="M-5.31055 19191.3L1443 19191.3" stroke="#CECECE"/>
<path d="M-5.31055 20708.6L1443 20708.6" stroke="#CECECE"/>
<path d="M-5.31055 22225.8L1443 22225.8" stroke="#CECECE"/>
<path d="M-5.31055 23743.1L1443 23743.1" stroke="#CECECE"/>
<path d="M-5.31055 25260.3L1443 25260.3" stroke="#CECECE"/>
<path d="M-5.31055 912.059L1443 912.059" stroke="#CECECE"/>
<path d="M-5.31055 2429.31L1443 2429.31" stroke="#CECECE"/>
<path d="M-5.31055 3946.56L1443 3946.56" stroke="#CECECE"/>
<path d="M-5.31055 5463.81L1443 5463.81" stroke="#CECECE"/>
<path d="M-5.31055 6981.06L1443 6981.06" stroke="#CECECE"/>
<path d="M-5.31055 8498.31L1443 8498.31" stroke="#CECECE"/>
<path d="M-5.31055 10015.6L1443 10015.6" stroke="#CECECE"/>
<path d="M-5.31055 11532.8L1443 11532.8" stroke="#CECECE"/>
<path d="M-5.31055 13050.1L1443 13050.1" stroke="#CECECE"/>
<path d="M-5.31055 14567.3L1443 14567.3" stroke="#CECECE"/>
<path d="M-5.31055 16084.6L1443 16084.6" stroke="#CECECE"/>
<path d="M-5.31055 17601.8L1443 17601.8" stroke="#CECECE"/>
<path d="M-5.31055 19119.1L1443 19119.1" stroke="#CECECE"/>
<path d="M-5.31055 20636.3L1443 20636.3" stroke="#CECECE"/>
<path d="M-5.31055 22153.6L1443 22153.6" stroke="#CECECE"/>
<path d="M-5.31055 23670.8L1443 23670.8" stroke="#CECECE"/>
<path d="M-5.31055 25188.1L1443 25188.1" stroke="#CECECE"/>
<path d="M-5.31055 839.809L1443 839.809" stroke="#CECECE"/>
<path d="M-5.31055 2357.06L1443 2357.06" stroke="#CECECE"/>
<path d="M-5.31055 3874.31L1443 3874.31" stroke="#CECECE"/>
<path d="M-5.31055 5391.56L1443 5391.56" stroke="#CECECE"/>
<path d="M-5.31055 6908.81L1443 6908.81" stroke="#CECECE"/>
<path d="M-5.31055 8426.06L1443 8426.06" stroke="#CECECE"/>
<path d="M-5.31055 9943.31L1443 9943.31" stroke="#CECECE"/>
<path d="M-5.31055 11460.6L1443 11460.6" stroke="#CECECE"/>
<path d="M-5.31055 12977.8L1443 12977.8" stroke="#CECECE"/>
<path d="M-5.31055 14495.1L1443 14495.1" stroke="#CECECE"/>
<path d="M-5.31055 16012.3L1443 16012.3" stroke="#CECECE"/>
<path d="M-5.31055 17529.6L1443 17529.6" stroke="#CECECE"/>
<path d="M-5.31055 19046.8L1443 19046.8" stroke="#CECECE"/>
<path d="M-5.31055 20564.1L1443 20564.1" stroke="#CECECE"/>
<path d="M-5.31055 22081.3L1443 22081.3" stroke="#CECECE"/>
<path d="M-5.31055 23598.6L1443 23598.6" stroke="#CECECE"/>
<path d="M-5.31055 25115.8L1443 25115.8" stroke="#CECECE"/>
<path d="M-5.31055 767.559L1443 767.559" stroke="#CECECE"/>
<path d="M-5.31055 2284.81L1443 2284.81" stroke="#CECECE"/>
<path d="M-5.31055 3802.06L1443 3802.06" stroke="#CECECE"/>
<path d="M-5.31055 5319.31L1443 5319.31" stroke="#CECECE"/>
<path d="M-5.31055 6836.56L1443 6836.56" stroke="#CECECE"/>
<path d="M-5.31055 8353.81L1443 8353.81" stroke="#CECECE"/>
<path d="M-5.31055 9871.06L1443 9871.06" stroke="#CECECE"/>
<path d="M-5.31055 11388.3L1443 11388.3" stroke="#CECECE"/>
<path d="M-5.31055 12905.6L1443 12905.6" stroke="#CECECE"/>
<path d="M-5.31055 14422.8L1443 14422.8" stroke="#CECECE"/>
<path d="M-5.31055 15940.1L1443 15940.1" stroke="#CECECE"/>
<path d="M-5.31055 17457.3L1443 17457.3" stroke="#CECECE"/>
<path d="M-5.31055 18974.6L1443 18974.6" stroke="#CECECE"/>
<path d="M-5.31055 20491.8L1443 20491.8" stroke="#CECECE"/>
<path d="M-5.31055 22009.1L1443 22009.1" stroke="#CECECE"/>
<path d="M-5.31055 23526.3L1443 23526.3" stroke="#CECECE"/>
<path d="M-5.31055 25043.6L1443 25043.6" stroke="#CECECE"/>
<path d="M-5.31055 695.309L1443 695.309" stroke="#CECECE"/>
<path d="M-5.31055 2212.56L1443 2212.56" stroke="#CECECE"/>
<path d="M-5.31055 3729.81L1443 3729.81" stroke="#CECECE"/>
<path d="M-5.31055 5247.06L1443 5247.06" stroke="#CECECE"/>
<path d="M-5.31055 6764.31L1443 6764.31" stroke="#CECECE"/>
<path d="M-5.31055 8281.56L1443 8281.56" stroke="#CECECE"/>
<path d="M-5.31055 9798.81L1443 9798.81" stroke="#CECECE"/>
<path d="M-5.31055 11316.1L1443 11316.1" stroke="#CECECE"/>
<path d="M-5.31055 12833.3L1443 12833.3" stroke="#CECECE"/>
<path d="M-5.31055 14350.6L1443 14350.6" stroke="#CECECE"/>
<path d="M-5.31055 15867.8L1443 15867.8" stroke="#CECECE"/>
<path d="M-5.31055 17385.1L1443 17385.1" stroke="#CECECE"/>
<path d="M-5.31055 18902.3L1443 18902.3" stroke="#CECECE"/>
<path d="M-5.31055 20419.6L1443 20419.6" stroke="#CECECE"/>
<path d="M-5.31055 21936.8L1443 21936.8" stroke="#CECECE"/>
<path d="M-5.31055 23454.1L1443 23454.1" stroke="#CECECE"/>
<path d="M-5.31055 24971.3L1443 24971.3" stroke="#CECECE"/>
<path d="M-5.31055 623.059L1443 623.059" stroke="#CECECE"/>
<path d="M-5.31055 2140.31L1443 2140.31" stroke="#CECECE"/>
<path d="M-5.31055 3657.56L1443 3657.56" stroke="#CECECE"/>
<path d="M-5.31055 5174.81L1443 5174.81" stroke="#CECECE"/>
<path d="M-5.31055 6692.06L1443 6692.06" stroke="#CECECE"/>
<path d="M-5.31055 8209.31L1443 8209.31" stroke="#CECECE"/>
<path d="M-5.31055 9726.56L1443 9726.56" stroke="#CECECE"/>
<path d="M-5.31055 11243.8L1443 11243.8" stroke="#CECECE"/>
<path d="M-5.31055 12761.1L1443 12761.1" stroke="#CECECE"/>
<path d="M-5.31055 14278.3L1443 14278.3" stroke="#CECECE"/>
<path d="M-5.31055 15795.6L1443 15795.6" stroke="#CECECE"/>
<path d="M-5.31055 17312.8L1443 17312.8" stroke="#CECECE"/>
<path d="M-5.31055 18830.1L1443 18830.1" stroke="#CECECE"/>
<path d="M-5.31055 20347.3L1443 20347.3" stroke="#CECECE"/>
<path d="M-5.31055 21864.6L1443 21864.6" stroke="#CECECE"/>
<path d="M-5.31055 23381.8L1443 23381.8" stroke="#CECECE"/>
<path d="M-5.31055 24899.1L1443 24899.1" stroke="#CECECE"/>
<path d="M-5.31055 550.809L1443 550.809" stroke="#CECECE"/>
<path d="M-5.31055 2068.06L1443 2068.06" stroke="#CECECE"/>
<path d="M-5.31055 3585.31L1443 3585.31" stroke="#CECECE"/>
<path d="M-5.31055 5102.56L1443 5102.56" stroke="#CECECE"/>
<path d="M-5.31055 6619.81L1443 6619.81" stroke="#CECECE"/>
<path d="M-5.31055 8137.06L1443 8137.06" stroke="#CECECE"/>
<path d="M-5.31055 9654.31L1443 9654.31" stroke="#CECECE"/>
<path d="M-5.31055 11171.6L1443 11171.6" stroke="#CECECE"/>
<path d="M-5.31055 12688.8L1443 12688.8" stroke="#CECECE"/>
<path d="M-5.31055 14206.1L1443 14206.1" stroke="#CECECE"/>
<path d="M-5.31055 15723.3L1443 15723.3" stroke="#CECECE"/>
<path d="M-5.31055 17240.6L1443 17240.6" stroke="#CECECE"/>
<path d="M-5.31055 18757.8L1443 18757.8" stroke="#CECECE"/>
<path d="M-5.31055 20275.1L1443 20275.1" stroke="#CECECE"/>
<path d="M-5.31055 21792.3L1443 21792.3" stroke="#CECECE"/>
<path d="M-5.31055 23309.6L1443 23309.6" stroke="#CECECE"/>
<path d="M-5.31055 24826.8L1443 24826.8" stroke="#CECECE"/>
<path d="M-5.31055 478.558L1443 478.558" stroke="#CECECE"/>
<path d="M-5.31055 1995.81L1443 1995.81" stroke="#CECECE"/>
<path d="M-5.31055 3513.06L1443 3513.06" stroke="#CECECE"/>
<path d="M-5.31055 5030.31L1443 5030.31" stroke="#CECECE"/>
<path d="M-5.31055 6547.56L1443 6547.56" stroke="#CECECE"/>
<path d="M-5.31055 8064.81L1443 8064.81" stroke="#CECECE"/>
<path d="M-5.31055 9582.06L1443 9582.06" stroke="#CECECE"/>
<path d="M-5.31055 11099.3L1443 11099.3" stroke="#CECECE"/>
<path d="M-5.31055 12616.6L1443 12616.6" stroke="#CECECE"/>
<path d="M-5.31055 14133.8L1443 14133.8" stroke="#CECECE"/>
<path d="M-5.31055 15651.1L1443 15651.1" stroke="#CECECE"/>
<path d="M-5.31055 17168.3L1443 17168.3" stroke="#CECECE"/>
<path d="M-5.31055 18685.6L1443 18685.6" stroke="#CECECE"/>
<path d="M-5.31055 20202.8L1443 20202.8" stroke="#CECECE"/>
<path d="M-5.31055 21720.1L1443 21720.1" stroke="#CECECE"/>
<path d="M-5.31055 23237.3L1443 23237.3" stroke="#CECECE"/>
<path d="M-5.31055 24754.6L1443 24754.6" stroke="#CECECE"/>
<path d="M-5.31055 406.308L1443 406.308" stroke="#CECECE"/>
<path d="M-5.31055 1923.56L1443 1923.56" stroke="#CECECE"/>
<path d="M-5.31055 3440.81L1443 3440.81" stroke="#CECECE"/>
<path d="M-5.31055 4958.06L1443 4958.06" stroke="#CECECE"/>
<path d="M-5.31055 6475.31L1443 6475.31" stroke="#CECECE"/>
<path d="M-5.31055 7992.56L1443 7992.56" stroke="#CECECE"/>
<path d="M-5.31055 9509.81L1443 9509.81" stroke="#CECECE"/>
<path d="M-5.31055 11027.1L1443 11027.1" stroke="#CECECE"/>
<path d="M-5.31055 12544.3L1443 12544.3" stroke="#CECECE"/>
<path d="M-5.31055 14061.6L1443 14061.6" stroke="#CECECE"/>
<path d="M-5.31055 15578.8L1443 15578.8" stroke="#CECECE"/>
<path d="M-5.31055 17096.1L1443 17096.1" stroke="#CECECE"/>
<path d="M-5.31055 18613.3L1443 18613.3" stroke="#CECECE"/>
<path d="M-5.31055 20130.6L1443 20130.6" stroke="#CECECE"/>
<path d="M-5.31055 21647.8L1443 21647.8" stroke="#CECECE"/>
<path d="M-5.31055 23165.1L1443 23165.1" stroke="#CECECE"/>
<path d="M-5.31055 24682.3L1443 24682.3" stroke="#CECECE"/>
<path d="M-5.31055 334.058L1443 334.058" stroke="#CECECE"/>
<path d="M-5.31055 1851.31L1443 1851.31" stroke="#CECECE"/>
<path d="M-5.31055 3368.56L1443 3368.56" stroke="#CECECE"/>
<path d="M-5.31055 4885.81L1443 4885.81" stroke="#CECECE"/>
<path d="M-5.31055 6403.06L1443 6403.06" stroke="#CECECE"/>
<path d="M-5.31055 7920.31L1443 7920.31" stroke="#CECECE"/>
<path d="M-5.31055 9437.56L1443 9437.56" stroke="#CECECE"/>
<path d="M-5.31055 10954.8L1443 10954.8" stroke="#CECECE"/>
<path d="M-5.31055 12472.1L1443 12472.1" stroke="#CECECE"/>
<path d="M-5.31055 13989.3L1443 13989.3" stroke="#CECECE"/>
<path d="M-5.31055 15506.6L1443 15506.6" stroke="#CECECE"/>
<path d="M-5.31055 17023.8L1443 17023.8" stroke="#CECECE"/>
<path d="M-5.31055 18541.1L1443 18541.1" stroke="#CECECE"/>
<path d="M-5.31055 20058.3L1443 20058.3" stroke="#CECECE"/>
<path d="M-5.31055 21575.6L1443 21575.6" stroke="#CECECE"/>
<path d="M-5.31055 23092.8L1443 23092.8" stroke="#CECECE"/>
<path d="M-5.31055 24610.1L1443 24610.1" stroke="#CECECE"/>
<path d="M-5.31055 261.808L1443 261.808" stroke="#CECECE"/>
<path d="M-5.31055 1779.06L1443 1779.06" stroke="#CECECE"/>
<path d="M-5.31055 3296.31L1443 3296.31" stroke="#CECECE"/>
<path d="M-5.31055 4813.56L1443 4813.56" stroke="#CECECE"/>
<path d="M-5.31055 6330.81L1443 6330.81" stroke="#CECECE"/>
<path d="M-5.31055 7848.06L1443 7848.06" stroke="#CECECE"/>
<path d="M-5.31055 9365.31L1443 9365.31" stroke="#CECECE"/>
<path d="M-5.31055 10882.6L1443 10882.6" stroke="#CECECE"/>
<path d="M-5.31055 12399.8L1443 12399.8" stroke="#CECECE"/>
<path d="M-5.31055 13917.1L1443 13917.1" stroke="#CECECE"/>
<path d="M-5.31055 15434.3L1443 15434.3" stroke="#CECECE"/>
<path d="M-5.31055 16951.6L1443 16951.6" stroke="#CECECE"/>
<path d="M-5.31055 18468.8L1443 18468.8" stroke="#CECECE"/>
<path d="M-5.31055 19986.1L1443 19986.1" stroke="#CECECE"/>
<path d="M-5.31055 21503.3L1443 21503.3" stroke="#CECECE"/>
<path d="M-5.31055 23020.6L1443 23020.6" stroke="#CECECE"/>
<path d="M-5.31055 24537.8L1443 24537.8" stroke="#CECECE"/>
<path d="M-5.31055 189.559L1443 189.559" stroke="#CECECE"/>
<path d="M-5.31055 1706.81L1443 1706.81" stroke="#CECECE"/>
<path d="M-5.31055 3224.06L1443 3224.06" stroke="#CECECE"/>
<path d="M-5.31055 4741.31L1443 4741.31" stroke="#CECECE"/>
<path d="M-5.31055 6258.56L1443 6258.56" stroke="#CECECE"/>
<path d="M-5.31055 7775.81L1443 7775.81" stroke="#CECECE"/>
<path d="M-5.31055 9293.06L1443 9293.06" stroke="#CECECE"/>
<path d="M-5.31055 10810.3L1443 10810.3" stroke="#CECECE"/>
<path d="M-5.31055 12327.6L1443 12327.6" stroke="#CECECE"/>
<path d="M-5.31055 13844.8L1443 13844.8" stroke="#CECECE"/>
<path d="M-5.31055 15362.1L1443 15362.1" stroke="#CECECE"/>
<path d="M-5.31055 16879.3L1443 16879.3" stroke="#CECECE"/>
<path d="M-5.31055 18396.6L1443 18396.6" stroke="#CECECE"/>
<path d="M-5.31055 19913.8L1443 19913.8" stroke="#CECECE"/>
<path d="M-5.31055 21431.1L1443 21431.1" stroke="#CECECE"/>
<path d="M-5.31055 22948.3L1443 22948.3" stroke="#CECECE"/>
<path d="M-5.31055 24465.6L1443 24465.6" stroke="#CECECE"/>
<path d="M-5.31055 117.309L1443 117.309" stroke="#CECECE"/>
<path d="M-5.31055 1634.56L1443 1634.56" stroke="#CECECE"/>
<path d="M-5.31055 3151.81L1443 3151.81" stroke="#CECECE"/>
<path d="M-5.31055 4669.06L1443 4669.06" stroke="#CECECE"/>
<path d="M-5.31055 6186.31L1443 6186.31" stroke="#CECECE"/>
<path d="M-5.31055 7703.56L1443 7703.56" stroke="#CECECE"/>
<path d="M-5.31055 9220.81L1443 9220.81" stroke="#CECECE"/>
<path d="M-5.31055 10738.1L1443 10738.1" stroke="#CECECE"/>
<path d="M-5.31055 12255.3L1443 12255.3" stroke="#CECECE"/>
<path d="M-5.31055 13772.6L1443 13772.6" stroke="#CECECE"/>
<path d="M-5.31055 15289.8L1443 15289.8" stroke="#CECECE"/>
<path d="M-5.31055 16807.1L1443 16807.1" stroke="#CECECE"/>
<path d="M-5.31055 18324.3L1443 18324.3" stroke="#CECECE"/>
<path d="M-5.31055 19841.6L1443 19841.6" stroke="#CECECE"/>
<path d="M-5.31055 21358.8L1443 21358.8" stroke="#CECECE"/>
<path d="M-5.31055 22876.1L1443 22876.1" stroke="#CECECE"/>
<path d="M-5.31055 24393.3L1443 24393.3" stroke="#CECECE"/>
</svg>
