<svg width="57" height="57" viewBox="0 0 57 57" fill="none" xmlns="http://www.w3.org/2000/svg">
<rect x="1" y="1.41602" width="55" height="55" rx="27.5" fill="url(#paint0_linear_5153_17750)"/>
<path d="M25.5 34.916C27.7091 34.916 29.5 33.1252 29.5 30.916C29.5 28.7069 27.7091 26.916 25.5 26.916C23.2909 26.916 21.5 28.7069 21.5 30.916C21.5 33.1252 23.2909 34.916 25.5 34.916Z" stroke="white" stroke-width="2" stroke-linecap="round" stroke-linejoin="round"/>
<path d="M19.1737 38.9159C19.7418 37.719 20.6378 36.7079 21.7576 35.9998C22.8775 35.2918 24.1751 34.916 25.5 34.916C26.8249 34.916 28.1225 35.2918 29.2424 35.9998C30.3622 36.7079 31.2582 37.719 31.8263 38.9159L39.5 38.916C39.6313 38.916 39.7613 38.8902 39.8827 38.8399C40.004 38.7896 40.1142 38.716 40.2071 38.6231C40.3 38.5303 40.3736 38.42 40.4239 38.2987C40.4741 38.1774 40.5 38.0473 40.5 37.916V19.916C40.5 19.6508 40.3946 19.3964 40.2071 19.2089C40.0196 19.0214 39.7652 18.916 39.5 18.916H17.5C17.2348 18.916 16.9804 19.0214 16.7929 19.2089C16.6054 19.3964 16.5 19.6508 16.5 19.916V37.9161C16.5 38.0474 16.5259 38.1775 16.5761 38.2988C16.6264 38.4201 16.7 38.5303 16.7929 38.6232C16.8858 38.716 16.996 38.7897 17.1173 38.8399C17.2386 38.8902 17.3687 38.916 17.5 38.916L19.1737 38.9159Z" stroke="white" stroke-width="2" stroke-linecap="round" stroke-linejoin="round"/>
<path d="M34.5 34.916H36.5V22.916H20.5V24.916" stroke="white" stroke-width="2" stroke-linecap="round" stroke-linejoin="round"/>
<rect x="1" y="1.41602" width="55" height="55" rx="27.5" stroke="#E0E0E0"/>
<defs>
<linearGradient id="paint0_linear_5153_17750" x1="0.5" y1="56.916" x2="77.1323" y2="56.916" gradientUnits="userSpaceOnUse">
<stop stop-color="#FFAC88"/>
<stop offset="1" stop-color="#FF8716"/>
</linearGradient>
</defs>
</svg>
