<svg width="57" height="57" viewBox="0 0 57 57" fill="none" xmlns="http://www.w3.org/2000/svg">
<rect x="1" y="1.41602" width="55" height="55" rx="27.5" fill="url(#paint0_linear_5153_17742)"/>
<path d="M24.2566 35.9866C22.8424 40.2293 17.1855 40.2293 17.1855 40.2293C17.1855 40.2293 17.1855 34.5724 21.4282 33.1582" stroke="white" stroke-width="2" stroke-linecap="round" stroke-linejoin="round"/>
<path d="M36.9859 26.0885L28.5006 34.5738L22.8438 28.9169L31.329 20.4317C34.5421 17.2186 37.7551 17.25 39.1253 17.4544C39.3363 17.4859 39.5316 17.5843 39.6824 17.7351C39.8333 17.8859 39.9317 18.0812 39.9631 18.2922C40.1676 19.6625 40.1989 22.8755 36.9859 26.0885Z" stroke="white" stroke-width="2" stroke-linecap="round" stroke-linejoin="round"/>
<path d="M35.5711 27.502V35.573C35.5711 35.7043 35.5452 35.8344 35.4949 35.9557C35.4447 36.077 35.371 36.1873 35.2782 36.2801L31.2355 40.3228C31.1075 40.4508 30.9471 40.5417 30.7716 40.5857C30.596 40.6297 30.4118 40.6253 30.2386 40.5728C30.0653 40.5204 29.9096 40.4219 29.7879 40.2879C29.6663 40.1539 29.5833 39.9893 29.5478 39.8119L28.5 34.573" stroke="white" stroke-width="2" stroke-linecap="round" stroke-linejoin="round"/>
<path d="M29.9146 21.8457H21.8435C21.7122 21.8457 21.5821 21.8716 21.4608 21.9218C21.3395 21.9721 21.2293 22.0457 21.1364 22.1386L17.0937 26.1813C16.9657 26.3093 16.8748 26.4696 16.8308 26.6452C16.7868 26.8208 16.7912 27.005 16.8437 27.1782C16.8961 27.3514 16.9946 27.5072 17.1286 27.6288C17.2627 27.7505 17.4272 27.8335 17.6047 27.869L22.8435 28.9168" stroke="white" stroke-width="2" stroke-linecap="round" stroke-linejoin="round"/>
<rect x="1" y="1.41602" width="55" height="55" rx="27.5" stroke="#E0E0E0"/>
<defs>
<linearGradient id="paint0_linear_5153_17742" x1="0.5" y1="56.916" x2="77.1323" y2="56.916" gradientUnits="userSpaceOnUse">
<stop stop-color="#FFAC88"/>
<stop offset="1" stop-color="#FF8716"/>
</linearGradient>
</defs>
</svg>
