<svg width="174" height="38" viewBox="0 0 174 38" fill="none" xmlns="http://www.w3.org/2000/svg">
<path d="M34.4671 34.6179L34.5538 22.4853C34.5538 21.4317 34.5538 20.378 34.5538 19.3243C34.5538 18.4382 35.2658 17.7198 36.144 17.7198C37.22 17.7198 38.2959 17.7198 39.3719 17.7198H40.7885C41.4552 17.7198 41.9956 17.1744 41.9956 16.5017V13.7391C41.9956 13.0664 41.4552 12.521 40.7885 12.521H39.0857C37.3063 12.521 34.9544 12.521 32.0299 12.521C30.4931 12.521 29.2472 13.7782 29.2472 15.329C29.2472 15.3404 29.2473 15.3518 29.2474 15.3633C29.2868 18.613 29.3064 20.9871 29.3064 22.4853L29.2198 34.6003C29.215 35.273 29.7515 35.8223 30.4182 35.8272H30.4269H33.26C33.9233 35.8272 34.4623 35.2872 34.4671 34.6179Z" fill="#292929"/>
<path d="M96.4754 0C97.1212 0 97.6486 0.511813 97.6809 1.15543L97.6825 1.21811V34.6037C97.6825 35.2554 97.1753 35.7876 96.5375 35.8202L96.4754 35.8218H84.3096C78.0284 35.9648 74.5993 32.0503 74.5313 26.0869L74.5303 25.9056V22.2873C74.5303 15.8539 78.2706 12.487 84.2702 12.4203L84.4527 12.4193H91.7354C92.157 12.4193 92.5019 12.0883 92.5288 11.6698L92.5305 11.617V1.21811C92.5305 0.566389 93.0377 0.0342098 93.6755 0.001585L93.7377 0H96.4754ZM91.7354 17.6181H84.4527C84.4033 17.6181 84.3541 17.6185 84.3048 17.6195L84.1572 17.6238C84.1081 17.6257 84.059 17.6282 84.01 17.6312L83.8633 17.6418C83.8389 17.6439 83.8145 17.646 83.7902 17.6484L83.6444 17.6641L83.4995 17.6834C83.3068 17.7115 83.1165 17.7496 82.9299 17.7993L82.7906 17.8387L82.6528 17.8826C81.2144 18.3673 80.0416 19.6151 79.7435 22.3945L79.73 22.528L79.7302 25.9742L79.7318 26.1117L79.7351 26.2495L79.7404 26.3875L79.7477 26.5254L79.7572 26.6633L79.7691 26.8008L79.7835 26.938L79.8005 27.0747C79.8036 27.0975 79.8068 27.1202 79.8101 27.1428L79.8315 27.2785L79.8559 27.4134C79.8689 27.4806 79.8831 27.5474 79.8986 27.6138L79.9313 27.7459C79.9543 27.8336 79.9796 27.9205 80.0076 28.0063L80.0515 28.1342C80.5492 29.5107 81.7597 30.5899 84.5608 30.6223L91.7354 30.6663C92.157 30.6663 92.5019 30.3352 92.5288 29.9167L92.5305 29.864V18.4203C92.5305 17.9773 92.1745 17.6181 91.7354 17.6181Z" fill="#292929"/>
<path d="M172.163 12.521C172.798 12.521 173.318 13.022 173.354 13.6537L173.356 13.7244V34.6238C173.356 35.2647 172.859 35.7886 172.233 35.8252L172.163 35.8272H159.649C153.51 35.8272 150.129 31.9586 150.062 25.9961L150.061 22.1965C150.061 15.7154 153.614 12.5839 159.749 12.5219L172.163 12.521ZM167.6 17.6716L159.707 17.672L159.536 17.6747L159.366 17.6804L159.195 17.6892L159.025 17.7015C158.969 17.7061 158.912 17.7114 158.856 17.7173L158.687 17.737L158.52 17.7607L158.354 17.7886C158.271 17.8037 158.189 17.8204 158.107 17.839L157.945 17.8786C157.783 17.9206 157.625 17.9701 157.471 18.0282L157.317 18.0891C155.977 18.6532 154.964 19.9071 154.927 22.528L154.926 22.6779V25.7666L154.928 25.9473L154.934 26.1281L154.943 26.3087L154.95 26.3989L154.966 26.5789C154.984 26.7586 155.008 26.9371 155.041 27.1135L155.076 27.2891C155.463 29.0951 156.692 30.6272 159.739 30.6754L159.888 30.6766H167.6C168.019 30.6766 168.362 30.3493 168.393 29.9342L168.395 29.8743V18.4739C168.395 18.051 168.07 17.7045 167.659 17.6738L167.6 17.6716Z" fill="#292929"/>
<path d="M68.4401 27.0102V13.7391C68.4401 13.0664 67.8996 12.521 67.2329 12.521H64.4952C63.8285 12.521 63.2881 13.0664 63.2881 13.7391V26.2239C63.2881 28.6609 61.3303 30.6365 58.9152 30.6365H57.023C54.7809 30.6365 52.3003 29.77 52.3003 25.7265V13.7391C52.3003 13.0664 51.7598 12.521 51.0931 12.521H48.3077C47.641 12.521 47.1006 13.0664 47.1006 13.7391V26.0153C47.1006 32.5619 50.8692 35.8352 57.023 35.8352H59.6944C64.5245 35.8352 68.4401 31.8841 68.4401 27.0102Z" fill="#292929"/>
<path d="M138.223 34.6179L138.31 22.4853C138.31 21.4317 138.31 20.378 138.31 19.3243C138.31 18.4382 139.022 17.7198 139.9 17.7198C140.976 17.7198 142.052 17.7198 143.128 17.7198H144.544C145.211 17.7198 145.751 17.1744 145.751 16.5017V13.7391C145.751 13.0664 145.211 12.521 144.544 12.521H142.842C141.062 12.521 138.71 12.521 135.786 12.521C134.249 12.521 133.003 13.7782 133.003 15.329C133.003 15.3404 133.003 15.3518 133.003 15.3633C133.043 18.613 133.062 20.9871 133.062 22.4853L132.976 34.6003C132.971 35.273 133.507 35.8223 134.174 35.8272H134.183H137.016C137.679 35.8272 138.218 35.2872 138.223 34.6179Z" fill="#292929"/>
<path d="M22.3178 12.479H1.61559C0.723323 12.479 0 13.2043 0 14.0991V34.2435C0 35.1383 0.723322 35.8636 1.61559 35.8636L5.71906 35.8631L5.8844 35.8592L6.1161 35.8569L6.27848 35.8575L6.46282 35.8603L6.66748 35.8659L6.79935 35.8709L6.93759 35.8773L7.1312 35.8882L7.23176 35.8948L7.33467 35.9021L7.43983 35.9104L7.60157 35.9244L7.71191 35.935L7.88092 35.9527L7.99577 35.9658L8.11224 35.98L8.23024 35.9954L8.34964 36.0119L8.47035 36.0297L8.59226 36.0488L8.71527 36.0691L8.83927 36.0908L8.96416 36.1139C8.98504 36.1179 9.00596 36.1219 9.0269 36.126L9.15292 36.1513L9.27957 36.1781L9.40673 36.2064L9.53431 36.2363C9.57689 36.2465 9.61952 36.257 9.66219 36.2678C9.89297 36.3261 10.1702 36.4322 10.4939 36.5862L10.6174 36.6462C10.6593 36.6669 10.702 36.6884 10.7453 36.7107L10.8776 36.7796C10.9 36.7915 10.9226 36.8036 10.9454 36.8158L11.0842 36.8915C11.1312 36.9175 11.1789 36.9442 11.2273 36.9716L11.3748 37.0563L11.5267 37.1454C11.7969 37.3057 12.1335 37.3051 12.4031 37.1438C13.1449 36.6999 13.7676 36.4079 14.2712 36.2678C14.3096 36.2571 14.3482 36.2467 14.3871 36.2366L14.5045 36.2071L14.6234 36.1791C14.6433 36.1746 14.6633 36.1701 14.6833 36.1657L14.804 36.14L14.9257 36.1158L15.0482 36.0929C15.0687 36.0893 15.0892 36.0856 15.1097 36.0821L15.2331 36.0613C15.2537 36.058 15.2743 36.0547 15.2949 36.0514L15.4188 36.0326C15.4394 36.0296 15.4601 36.0266 15.4807 36.0237L15.6046 36.0068L15.79 35.9836L15.9131 35.9695L16.0356 35.9566L16.2177 35.9391L16.3377 35.9287L16.4565 35.9192L16.632 35.9067L16.8035 35.896L17.0252 35.8844L17.2375 35.8755L17.4389 35.8691L17.582 35.8656L17.8035 35.8621L18.0012 35.8607L18.2329 35.8611L18.5092 35.8636H22.7183C23.3864 35.8636 23.928 35.3205 23.928 34.6506L23.9334 32.4881C23.9334 31.8232 23.3996 31.2822 22.7366 31.2752L21.5351 31.2645L19.9333 31.2555L17.9717 31.2502L18.1029 31.2498L16.8759 31.2497C15.1087 31.2497 13.4723 31.7319 11.9667 32.6963C10.5874 31.742 8.53651 31.2599 5.81408 31.2499L4.88183 31.2497C4.65625 31.2497 4.47575 31.0217 4.47531 30.7954L4.44974 17.5197C4.4493 17.2904 4.63432 17.1042 4.86299 17.1037L19.0059 17.1037L19.0518 17.1062C19.248 17.1277 19.404 17.2869 19.4188 17.487L19.4162 22.1642C19.4158 22.3933 19.2301 22.5794 19.0012 22.5797H9.86685C9.28844 22.5797 8.81956 23.0499 8.81956 23.6299V25.9819C8.81956 26.5619 9.28844 27.0321 9.86685 27.0321H23.1297C23.5736 27.0321 23.9334 26.6713 23.9334 26.2261V14.0991C23.9334 13.2043 23.2101 12.479 22.3178 12.479Z" fill="#2254F7"/>
<path d="M125.61 12.479H104.908C104.015 12.479 103.292 13.2043 103.292 14.0991V34.2435C103.292 35.1383 104.015 35.8636 104.908 35.8636H126.01C126.678 35.8636 127.22 35.3205 127.22 34.6506L127.225 32.4881C127.225 31.8232 126.692 31.2822 126.029 31.2752L124.827 31.2645L123.225 31.2555L121.264 31.2502L121.395 31.2498L120.168 31.2497C118.401 31.2497 111.829 31.2599 109.106 31.2499L108.174 31.2497C107.948 31.2497 107.768 31.0217 107.767 30.7954L107.742 17.5197C107.741 17.2904 107.926 17.1042 108.155 17.1037L122.298 17.1037L122.344 17.1062C122.54 17.1277 122.696 17.2869 122.711 17.487L122.708 22.1642C122.708 22.3933 122.522 22.5794 122.293 22.5797H113.159C112.58 22.5797 112.112 23.0499 112.112 23.6299V25.9819C112.112 26.5619 112.58 27.0321 113.159 27.0321H126.422C126.866 27.0321 127.225 26.6713 127.225 26.2261V14.0991C127.225 13.2043 126.502 12.479 125.61 12.479Z" fill="#292929"/>
</svg>
