<svg width="32" height="32" viewBox="0 0 32 32" fill="none" xmlns="http://www.w3.org/2000/svg">
<path d="M14.5 20C15.8807 20 17 18.8807 17 17.5C17 16.1193 15.8807 15 14.5 15C13.1193 15 12 16.1193 12 17.5C12 18.8807 13.1193 20 14.5 20Z" stroke="white" stroke-width="2" stroke-linecap="round" stroke-linejoin="round"/>
<path d="M4.00073 28.0004L12.7322 19.2678" stroke="white" stroke-width="2" stroke-linecap="round" stroke-linejoin="round"/>
<path d="M4.00073 28.0004L21.4314 25.0953C21.6045 25.0665 21.767 24.9926 21.9025 24.8811C22.038 24.7695 22.1418 24.6243 22.2034 24.46L25.0007 17.0004L15.0007 7.00043L7.54112 9.79779C7.37682 9.8594 7.23161 9.96317 7.1201 10.0987C7.00859 10.2342 6.9347 10.3966 6.90585 10.5697L4.00073 28.0004Z" stroke="white" stroke-width="2" stroke-linecap="round" stroke-linejoin="round"/>
<path d="M25.0007 17.0004L28.2936 13.7075C28.3865 13.6147 28.4601 13.5044 28.5104 13.3831C28.5607 13.2618 28.5865 13.1318 28.5865 13.0004C28.5865 12.8691 28.5607 12.7391 28.5104 12.6177C28.4601 12.4964 28.3865 12.3862 28.2936 12.2933L19.7078 3.70754C19.5203 3.52 19.2659 3.41464 19.0007 3.41464C18.7355 3.41464 18.4812 3.52 18.2936 3.70754L15.0007 7.00043" stroke="white" stroke-width="2" stroke-linecap="round" stroke-linejoin="round"/>
</svg>
