<svg width="36" height="33" viewBox="0 0 36 33" fill="none" xmlns="http://www.w3.org/2000/svg">
<path d="M32.1475 18.7869C34.1117 18.7869 35.0938 19.769 35.0938 21.7332V29.721C35.0938 31.6852 34.1117 32.6673 32.1475 32.6673H24.5526C22.5884 32.6673 21.6063 31.6852 21.6063 29.721V21.7332C21.6063 17.1501 22.0864 13.1562 23.0467 9.75159C24.0506 6.30332 25.993 3.29153 28.8738 0.716241C29.8341 -0.113091 30.6416 -0.222213 31.2964 0.388873L34.2427 3.13876C34.8974 3.74985 34.7446 4.49188 33.7844 5.36486C32.3003 6.67433 31.0781 8.57307 30.1178 11.0611C29.2012 13.5054 28.7429 16.0807 28.7429 18.7869H32.1475ZM10.5412 18.7869C12.5054 18.7869 13.4875 19.769 13.4875 21.7332V29.721C13.4875 31.6852 12.5054 32.6673 10.5412 32.6673H2.94631C0.982103 32.6673 0 31.6852 0 29.721V21.7332C0 17.1501 0.480139 13.1562 1.44042 9.75159C2.44435 6.30332 4.38673 3.29153 7.26756 0.716241C8.22784 -0.113091 9.03535 -0.222213 9.69008 0.388873L12.6364 3.13876C13.2911 3.74985 13.1384 4.49188 12.1781 5.36486C10.694 6.67433 9.47184 8.57307 8.51156 11.0611C7.59493 13.5054 7.13662 16.0807 7.13662 18.7869H10.5412Z" fill="url(#paint0_linear_5298_7746)"/>
<defs>
<linearGradient id="paint0_linear_5298_7746" x1="0" y1="32.6673" x2="48.0236" y2="32.6673" gradientUnits="userSpaceOnUse">
<stop stop-color="#FFAC88"/>
<stop offset="1" stop-color="#FF8716"/>
</linearGradient>
</defs>
</svg>
