<svg width="73" height="72" viewBox="0 0 73 72" fill="none" xmlns="http://www.w3.org/2000/svg">
<rect x="1" y="0.5" width="71" height="71" rx="35.5" fill="white"/>
<path d="M36.5 20.1426C27.6638 20.1426 20.5 27.2425 20.5 36C20.5 44.7574 27.6638 51.8574 36.5 51.8574C45.3362 51.8574 52.5 44.7607 52.5 36C52.5 27.2392 45.3346 20.1426 36.5 20.1426ZM43.0157 36.0213C42.5118 36.3827 41.9367 36.6341 41.3283 36.7589L41.2289 36.7786V41.0629H38.0697V36.5569L37.579 36.4419C36.9857 36.3055 36.3724 36.1659 35.827 36.133C35.706 36.1281 35.5851 36.1298 35.4641 36.1396L35.348 36.1495V44.4453H32.1938V37.1893L31.2192 37.876L29.3959 35.3199L30.4103 34.602C30.9142 34.2406 31.4893 33.9893 32.0976 33.8644L32.1971 33.8447V28.4401H35.3563V33.0135L35.4856 33.0085C35.5585 33.0053 35.6331 33.0053 35.706 33.0053C35.8138 33.0036 35.9215 33.0085 36.0293 33.02H36.0392C36.674 33.0578 37.3056 33.1531 37.9238 33.3042L38.073 33.3404V28.4089H41.2322V33.434L42.2068 32.7473L44.0334 35.3018L43.0157 36.0213Z" fill="#617AC5"/>
<rect x="1" y="0.5" width="71" height="71" rx="35.5" stroke="#617AC5"/>
</svg>
