<svg width="56" height="56" viewBox="0 0 56 56" fill="none" xmlns="http://www.w3.org/2000/svg">
<rect x="0.5" y="0.5" width="55" height="55" rx="27.5" fill="white"/>
<path d="M28 28L40 16" stroke="#474747" stroke-width="2" stroke-linecap="round" stroke-linejoin="round"/>
<path d="M36.4851 19.5146C34.3594 17.3931 31.5149 16.1468 28.5143 16.0221C25.5137 15.8974 22.5756 16.9034 20.2812 18.8412C17.9868 20.779 16.5034 23.5074 16.1243 26.4866C15.7451 29.4658 16.498 32.4787 18.234 34.9294C19.9699 37.38 22.5624 39.0899 25.4986 39.7207C28.4348 40.3514 31.5008 39.8572 34.0901 38.3357C36.6793 36.8142 38.6032 34.3763 39.4811 31.5043C40.359 28.6322 40.1269 25.5353 38.8308 22.8262" stroke="#474747" stroke-width="2" stroke-linecap="round" stroke-linejoin="round"/>
<path d="M32.2423 23.7572C31.2503 22.7653 29.9422 22.1523 28.5452 22.0248C27.1482 21.8973 25.7507 22.2634 24.5955 23.0593C23.4404 23.8553 22.6007 25.0308 22.2223 26.3817C21.844 27.7325 21.9509 29.1732 22.5246 30.4533C23.0982 31.7335 24.1023 32.7722 25.3623 33.3889C26.6222 34.0056 28.0585 34.1613 29.4214 33.8289C30.7842 33.4965 31.9875 32.6972 32.8222 31.5697C33.6568 30.4422 34.07 29.0579 33.9899 27.6573" stroke="#474747" stroke-width="2" stroke-linecap="round" stroke-linejoin="round"/>
<rect x="0.5" y="0.5" width="55" height="55" rx="27.5" stroke="#E0E0E0"/>
</svg>
