<svg width="57" height="57" viewBox="0 0 57 57" fill="none" xmlns="http://www.w3.org/2000/svg">
<rect x="1" y="1" width="55" height="55" rx="27.5" fill="url(#paint0_linear_6225_79819)"/>
<path d="M24.2586 35.5706C22.8444 39.8133 17.1875 39.8133 17.1875 39.8133C17.1875 39.8133 17.1875 34.1564 21.4301 32.7422" stroke="white" stroke-width="2" stroke-linecap="round" stroke-linejoin="round"/>
<path d="M36.9859 25.6725L28.5006 34.1578L22.8438 28.5009L31.329 20.0156C34.5421 16.8026 37.7551 16.834 39.1253 17.0384C39.3363 17.0699 39.5316 17.1682 39.6824 17.3191C39.8333 17.4699 39.9317 17.6652 39.9631 17.8762C40.1676 19.2465 40.1989 22.4595 36.9859 25.6725Z" stroke="white" stroke-width="2" stroke-linecap="round" stroke-linejoin="round"/>
<path d="M35.5711 27.0859V35.157C35.5711 35.2883 35.5452 35.4184 35.4949 35.5397C35.4447 35.661 35.371 35.7713 35.2782 35.8641L31.2355 39.9068C31.1075 40.0348 30.9471 40.1257 30.7716 40.1697C30.596 40.2137 30.4118 40.2093 30.2386 40.1568C30.0653 40.1044 29.9096 40.0059 29.7879 39.8719C29.6663 39.7378 29.5833 39.5733 29.5478 39.3958L28.5 34.157" stroke="white" stroke-width="2" stroke-linecap="round" stroke-linejoin="round"/>
<path d="M29.9146 21.4297H21.8435C21.7122 21.4297 21.5821 21.4556 21.4608 21.5058C21.3395 21.5561 21.2293 21.6297 21.1364 21.7226L17.0937 25.7653C16.9657 25.8933 16.8748 26.0536 16.8308 26.2292C16.7868 26.4047 16.7912 26.589 16.8437 26.7622C16.8961 26.9354 16.9946 27.0912 17.1286 27.2128C17.2627 27.3345 17.4272 27.4175 17.6047 27.453L22.8435 28.5008" stroke="white" stroke-width="2" stroke-linecap="round" stroke-linejoin="round"/>
<rect x="1" y="1" width="55" height="55" rx="27.5" stroke="#55B000"/>
<defs>
<linearGradient id="paint0_linear_6225_79819" x1="0.499998" y1="0.496947" x2="56.7884" y2="0.788367" gradientUnits="userSpaceOnUse">
<stop offset="0.0677083" stop-color="#444444"/>
<stop offset="0.989583" stop-color="#1F0099"/>
</linearGradient>
</defs>
</svg>
