<svg width="16" height="16" viewBox="0 0 16 16" fill="none" xmlns="http://www.w3.org/2000/svg">
<path d="M9.53105 3.2216C9.26526 3.29649 9.1105 3.57266 9.18539 3.83846C9.26027 4.10425 9.53645 4.25901 9.80224 4.18412L9.53105 3.2216ZM10.5485 10.0818L10.5481 9.5818C10.2721 9.582 10.0484 9.80593 10.0485 10.082C10.0486 10.3581 10.2725 10.5818 10.5486 10.5818L10.5485 10.0818ZM0.544091 12.1315C0.385276 12.3574 0.439661 12.6693 0.665564 12.8281C0.891468 12.9869 1.20334 12.9326 1.36216 12.7067L0.544091 12.1315ZM9.5444 12.7063C9.70323 12.9322 10.0151 12.9866 10.241 12.8278C10.4669 12.6689 10.5213 12.357 10.3624 12.1312L9.5444 12.7063ZM14.6393 12.706C14.798 12.932 15.1098 12.9866 15.3358 12.828C15.5618 12.6693 15.6164 12.3575 15.4577 12.1315L14.6393 12.706ZM8.20339 6.8318C8.20339 8.35058 6.97217 9.5818 5.45339 9.5818V10.5818C7.52446 10.5818 9.20339 8.90287 9.20339 6.8318H8.20339ZM5.45339 9.5818C3.9346 9.5818 2.70339 8.35058 2.70339 6.8318H1.70339C1.70339 8.90287 3.38232 10.5818 5.45339 10.5818V9.5818ZM2.70339 6.8318C2.70339 5.31302 3.9346 4.0818 5.45339 4.0818V3.0818C3.38232 3.0818 1.70339 4.76073 1.70339 6.8318H2.70339ZM5.45339 4.0818C6.97217 4.0818 8.20339 5.31302 8.20339 6.8318H9.20339C9.20339 4.76073 7.52446 3.0818 5.45339 3.0818V4.0818ZM9.80224 4.18412C10.1805 4.07755 10.5772 4.05327 10.9656 4.11293L11.1174 3.12451C10.5878 3.04317 10.0468 3.07628 9.53105 3.2216L9.80224 4.18412ZM10.9656 4.11293C11.354 4.17258 11.7252 4.31477 12.054 4.52993L12.6015 3.69314C12.1531 3.39975 11.6471 3.20585 11.1174 3.12451L10.9656 4.11293ZM12.054 4.52993C12.3828 4.7451 12.6618 5.02823 12.872 5.36026L13.7169 4.82536C13.4302 4.37261 13.0499 3.98653 12.6015 3.69314L12.054 4.52993ZM12.872 5.36026C13.0822 5.69229 13.2188 6.06551 13.2726 6.45479L14.2632 6.31785C14.1898 5.78704 14.0035 5.27812 13.7169 4.82536L12.872 5.36026ZM13.2726 6.45479C13.3264 6.84406 13.2962 7.24035 13.1839 7.61695L14.1423 7.90256C14.2953 7.38902 14.3365 6.84865 14.2632 6.31785L13.2726 6.45479ZM13.1839 7.61695C13.0717 7.99356 12.8801 8.34174 12.6219 8.63805L13.3759 9.29492C13.7279 8.89088 13.9892 8.4161 14.1423 7.90256L13.1839 7.61695ZM12.6219 8.63805C12.3638 8.93436 12.0452 9.17191 11.6875 9.3347L12.1017 10.2449C12.5895 10.0229 13.0239 9.69896 13.3759 9.29492L12.6219 8.63805ZM11.6875 9.3347C11.3298 9.4975 10.9414 9.58175 10.5484 9.5818L10.5486 10.5818C11.0844 10.5817 11.614 10.4668 12.1017 10.2449L11.6875 9.3347ZM1.36216 12.7067C1.82361 12.0503 2.43621 11.5146 3.14825 11.1447L2.68732 10.2573C1.83291 10.7011 1.09781 11.3439 0.544091 12.1315L1.36216 12.7067ZM3.14825 11.1447C3.86026 10.7749 4.65104 10.5818 5.45341 10.5818L5.45337 9.5818C4.4906 9.58184 3.54175 9.81351 2.68732 10.2573L3.14825 11.1447ZM5.45341 10.5818C6.25574 10.5818 7.04611 10.7748 7.75819 11.1446L8.21905 10.2571C7.36462 9.81338 6.41617 9.58176 5.45337 9.5818L5.45341 10.5818ZM7.75819 11.1446C8.47025 11.5143 9.0829 12.05 9.5444 12.7063L10.3624 12.1312C9.80864 11.3436 9.0735 10.7008 8.21905 10.2571L7.75819 11.1446ZM10.5489 10.5818C11.3512 10.5812 12.1418 10.774 12.8538 11.1437L13.3147 10.2563C12.4601 9.81246 11.5111 9.5811 10.5481 9.5818L10.5489 10.5818ZM12.8538 11.1437C13.5659 11.5135 14.1783 12.0494 14.6393 12.706L15.4577 12.1315C14.9044 11.3433 14.1693 10.7001 13.3147 10.2563L12.8538 11.1437Z" fill="#666666"/>
</svg>
