<svg width="44" height="45" viewBox="0 0 44 45" fill="none" xmlns="http://www.w3.org/2000/svg">
<path d="M43.68 23.1013C43.68 27.9803 42.291 32.368 39.5129 36.2642C36.7371 40.1605 33.1488 42.8555 28.7502 44.3516C28.2391 44.4499 27.8635 44.3822 27.6276 44.1485C27.5112 44.0353 27.4195 43.8992 27.3583 43.7489C27.297 43.5986 27.2675 43.4372 27.2716 43.2749V37.1225C27.2716 35.2378 26.778 33.8575 25.793 32.9839C26.7771 32.8851 27.7519 32.7099 28.7087 32.4597C29.5692 32.226 30.4602 31.8482 31.3797 31.324C32.2637 30.8294 33.0456 30.1712 33.6838 29.3846C34.2997 28.6159 34.802 27.5959 35.1908 26.3227C35.5795 25.0494 35.7739 23.5883 35.7739 21.9372C35.7739 19.585 35.0248 17.5823 33.5288 15.9312C34.2276 14.1622 34.1534 12.1813 33.2994 9.98416C32.7687 9.80944 32.0022 9.91864 30.9975 10.3052C30.0862 10.6475 29.21 11.0768 28.3811 11.5872L27.3 12.2861C25.5243 11.7799 23.6864 11.5255 21.84 11.5304C19.9935 11.5262 18.1555 11.7813 16.38 12.2883C15.985 12.0147 15.5823 11.7525 15.1722 11.502C14.6699 11.1897 13.8771 10.8163 12.7961 10.3795C11.7172 9.94266 10.9003 9.81162 10.35 9.98634C9.51787 12.1813 9.45017 14.1622 10.1534 15.9312C8.65519 17.5823 7.9039 19.585 7.9039 21.9372C7.9039 23.5883 8.10046 25.045 8.48921 26.3096C8.87796 27.5719 9.37591 28.5918 9.98088 29.3693C10.6082 30.1642 11.386 30.8276 12.2697 31.3218C13.1892 31.846 14.0824 32.226 14.9429 32.4575C15.8056 32.6934 16.7775 32.8681 17.8586 32.9839C17.1007 33.6827 16.6355 34.6852 16.4652 35.9869C16.058 36.1841 15.6282 36.3308 15.1854 36.4237C14.6517 36.5284 14.1086 36.5774 13.5648 36.57C12.938 36.57 12.3199 36.3603 11.7019 35.9432C11.086 35.5239 10.5596 34.9167 10.1228 34.1217C9.78163 33.5205 9.31088 33.0028 8.74474 32.606C8.18563 32.2173 7.71607 31.9836 7.33606 31.9071L6.76822 31.8198C6.37073 31.8198 6.09554 31.8635 5.94266 31.9508C5.78978 32.0382 5.7461 32.1474 5.8007 32.285C5.86494 32.4331 5.95108 32.5708 6.05623 32.6934C6.16533 32.8245 6.29001 32.9419 6.42751 33.0428L6.62407 33.187C7.0434 33.3835 7.45399 33.7526 7.8624 34.2964C8.27081 34.8403 8.57002 35.336 8.75784 35.7816L9.04176 36.4521C9.28855 37.1902 9.7057 37.7887 10.2954 38.2451C10.8829 38.7038 11.5184 38.9942 12.1998 39.1187C12.8812 39.2454 13.5408 39.3153 14.1763 39.324C14.8097 39.3328 15.3382 39.3 15.7554 39.2214L16.4084 39.1056C16.4084 39.8438 16.4128 40.7087 16.4237 41.7002L16.4368 43.2727C16.4368 43.6221 16.3145 43.9148 16.0655 44.1463C15.8209 44.3822 15.4409 44.4499 14.9298 44.3516C10.5312 42.8555 6.94294 40.1583 4.16707 36.2642C1.38902 32.368 0 27.9803 0 23.1013C0 19.039 0.976248 15.2956 2.92874 11.8646C4.81896 8.49938 7.56046 5.69009 10.8785 3.71826C14.1862 1.72714 17.9794 0.687953 21.84 0.715262C25.7014 0.68755 29.4954 1.72675 32.8037 3.71826C36.1209 5.69039 38.8616 8.49965 40.7513 11.8646C42.7038 15.2935 43.68 19.0412 43.68 23.1013Z" fill="white"/>
</svg>
