<svg width="440" height="202" viewBox="0 0 440 202" fill="none" xmlns="http://www.w3.org/2000/svg">
<path fill-rule="evenodd" clip-rule="evenodd" d="M0 46C0 34.9543 8.9543 26 20 26H368C379.046 26 388 34.9543 388 46V69.0342C369.171 74.8647 355.48 92.567 355.48 113.5C355.48 134.433 369.171 152.135 388 157.966V182C388 193.046 379.046 202 368 202H20C8.95431 202 0 193.046 0 182V158.969C18.8348 153.143 32.5315 135.437 32.5315 114.5C32.5315 93.5626 18.8348 75.8572 0 70.0305V46Z" fill="url(#paint0_linear_6318_69711)"/>
<rect x="373" y="81" width="65.1429" height="65.1429" rx="32.5714" fill="white"/>
<path d="M396.548 102H399.167V104.619H396.548V111.167C396.548 111.861 396.272 112.527 395.78 113.019C395.289 113.51 394.623 113.786 393.929 113.786C394.623 113.786 395.289 114.062 395.78 114.553C396.272 115.044 396.548 115.71 396.548 116.405V122.952H399.167V125.571H396.548C395.146 125.218 393.929 124.393 393.929 122.952V117.714C393.929 117.02 393.653 116.353 393.161 115.862C392.67 115.371 392.004 115.095 391.31 115.095H390V112.476H391.31C392.004 112.476 392.67 112.2 393.161 111.709C393.653 111.218 393.929 110.552 393.929 109.857V104.619C393.929 103.924 394.204 103.258 394.696 102.767C395.187 102.276 395.853 102 396.548 102ZM414.881 102C415.575 102 416.242 102.276 416.733 102.767C417.224 103.258 417.5 103.924 417.5 104.619V109.857C417.5 110.552 417.776 111.218 418.267 111.709C418.758 112.2 419.424 112.476 420.119 112.476H421.428V115.095H420.119C419.424 115.095 418.758 115.371 418.267 115.862C417.776 116.353 417.5 117.02 417.5 117.714V122.952C417.5 123.647 417.224 124.313 416.733 124.804C416.242 125.295 415.575 125.571 414.881 125.571H412.262V122.952H414.881V116.405C414.881 115.71 415.157 115.044 415.648 114.553C416.139 114.062 416.805 113.786 417.5 113.786C416.805 113.786 416.139 113.51 415.648 113.019C415.157 112.527 414.881 111.861 414.881 111.167V104.619H412.262V102H414.881ZM405.714 117.714C406.061 117.714 406.395 117.852 406.64 118.098C406.886 118.343 407.024 118.676 407.024 119.024C407.024 119.371 406.886 119.704 406.64 119.95C406.395 120.195 406.061 120.333 405.714 120.333C405.367 120.333 405.034 120.195 404.788 119.95C404.543 119.704 404.405 119.371 404.405 119.024C404.405 118.676 404.543 118.343 404.788 118.098C405.034 117.852 405.367 117.714 405.714 117.714ZM400.476 117.714C400.823 117.714 401.157 117.852 401.402 118.098C401.648 118.343 401.786 118.676 401.786 119.024C401.786 119.371 401.648 119.704 401.402 119.95C401.157 120.195 400.823 120.333 400.476 120.333C400.129 120.333 399.796 120.195 399.55 119.95C399.305 119.704 399.167 119.371 399.167 119.024C399.167 118.676 399.305 118.343 399.55 118.098C399.796 117.852 400.129 117.714 400.476 117.714ZM410.952 117.714C411.3 117.714 411.633 117.852 411.878 118.098C412.124 118.343 412.262 118.676 412.262 119.024C412.262 119.371 412.124 119.704 411.878 119.95C411.633 120.195 411.3 120.333 410.952 120.333C410.605 120.333 410.272 120.195 410.026 119.95C409.781 119.704 409.643 119.371 409.643 119.024C409.643 118.676 409.781 118.343 410.026 118.098C410.272 117.852 410.605 117.714 410.952 117.714Z" fill="#4576E7"/>
<rect x="373" y="81" width="65.1429" height="65.1429" rx="32.5714" stroke="#4576E7" stroke-width="2"/>
<defs>
<linearGradient id="paint0_linear_6318_69711" x1="-1.70644e-05" y1="25.9904" x2="389.958" y2="30.4412" gradientUnits="userSpaceOnUse">
<stop offset="0.0677083" stop-color="#444444"/>
<stop offset="0.989583" stop-color="#1F0099"/>
</linearGradient>
</defs>
</svg>
