<svg width="33" height="33" viewBox="0 0 33 33" fill="none" xmlns="http://www.w3.org/2000/svg">
<path d="M16.6016 20.5C18.8107 20.5 20.6016 18.7091 20.6016 16.5C20.6016 14.2909 18.8107 12.5 16.6016 12.5C14.3924 12.5 12.6016 14.2909 12.6016 16.5C12.6016 18.7091 14.3924 20.5 16.6016 20.5Z" fill="white"/>
<path d="M22.1016 4H11.1016C9.24569 4.0021 7.46644 4.74027 6.15414 6.05257C4.84184 7.36487 4.10366 9.14413 4.10156 11V22C4.10366 23.8559 4.84184 25.6351 6.15414 26.9474C7.46644 28.2597 9.24569 28.9979 11.1016 29H22.1016C23.9574 28.9979 25.7367 28.2597 27.049 26.9474C28.3613 25.6351 29.0995 23.8559 29.1016 22V11C29.0995 9.14413 28.3613 7.36487 27.049 6.05257C25.7367 4.74027 23.9574 4.0021 22.1016 4ZM16.6016 22.5C15.4149 22.5 14.2548 22.1481 13.2681 21.4888C12.2814 20.8295 11.5124 19.8925 11.0583 18.7961C10.6042 17.6997 10.4853 16.4933 10.7169 15.3295C10.9484 14.1656 11.5198 13.0965 12.3589 12.2574C13.198 11.4182 14.2671 10.8468 15.431 10.6153C16.5949 10.3838 17.8013 10.5026 18.8977 10.9567C19.994 11.4108 20.9311 12.1799 21.5904 13.1666C22.2497 14.1533 22.6016 15.3133 22.6016 16.5C22.5998 18.0907 21.967 19.6158 20.8422 20.7407C19.7174 21.8655 18.1923 22.4982 16.6016 22.5ZM23.1016 11.5C22.8049 11.5 22.5149 11.412 22.2682 11.2472C22.0215 11.0824 21.8293 10.8481 21.7157 10.574C21.6022 10.2999 21.5725 9.99834 21.6304 9.70736C21.6883 9.41639 21.8311 9.14912 22.0409 8.93934C22.2507 8.72956 22.518 8.5867 22.8089 8.52882C23.0999 8.47094 23.4015 8.50065 23.6756 8.61418C23.9497 8.72771 24.1839 8.91997 24.3488 9.16665C24.5136 9.41332 24.6016 9.70333 24.6016 10C24.6016 10.3978 24.4435 10.7794 24.1622 11.0607C23.8809 11.342 23.4994 11.5 23.1016 11.5Z" fill="white"/>
</svg>
