<svg width="33" height="33" viewBox="0 0 33 33" fill="none" xmlns="http://www.w3.org/2000/svg">
<path d="M26.9508 4.61353H6.78601C6.25139 4.61414 5.73885 4.82678 5.36082 5.20481C4.98279 5.58284 4.77014 6.09539 4.76953 6.63V26.7948C4.77014 27.3294 4.98279 27.8419 5.36082 28.22C5.73885 28.598 6.25139 28.8106 6.78601 28.8112H26.9508C27.4854 28.8106 27.9979 28.598 28.376 28.22C28.754 27.8419 28.9666 27.3294 28.9673 26.7948V6.63C28.9666 6.09539 28.754 5.58284 28.376 5.20481C27.9979 4.82678 27.4854 4.61414 26.9508 4.61353ZM12.8354 22.7619C12.8354 23.0293 12.7292 23.2858 12.5401 23.4749C12.351 23.6639 12.0946 23.7702 11.8272 23.7702C11.5598 23.7702 11.3033 23.6639 11.1143 23.4749C10.9252 23.2858 10.819 23.0293 10.819 22.7619V14.696C10.819 14.4286 10.9252 14.1722 11.1143 13.9831C11.3033 13.794 11.5598 13.6878 11.8272 13.6878C12.0946 13.6878 12.351 13.794 12.5401 13.9831C12.7292 14.1722 12.8354 14.4286 12.8354 14.696V22.7619ZM11.8272 12.1754C11.5281 12.1754 11.2357 12.0867 10.987 11.9206C10.7383 11.7544 10.5444 11.5182 10.43 11.2418C10.3155 10.9655 10.2855 10.6614 10.3439 10.368C10.4023 10.0747 10.5463 9.80518 10.7578 9.59368C10.9693 9.38217 11.2388 9.23813 11.5322 9.17978C11.8255 9.12142 12.1296 9.15137 12.406 9.26584C12.6823 9.3803 12.9185 9.57415 13.0847 9.82285C13.2509 10.0716 13.3396 10.364 13.3396 10.6631C13.3396 11.0642 13.1802 11.4489 12.8966 11.7325C12.613 12.0161 12.2283 12.1754 11.8272 12.1754ZM23.9261 22.7619C23.9261 23.0293 23.8198 23.2858 23.6308 23.4749C23.4417 23.6639 23.1852 23.7702 22.9178 23.7702C22.6504 23.7702 22.394 23.6639 22.2049 23.4749C22.0158 23.2858 21.9096 23.0293 21.9096 22.7619V18.2249C21.9096 17.5564 21.644 16.9152 21.1713 16.4425C20.6986 15.9698 20.0575 15.7043 19.389 15.7043C18.7205 15.7043 18.0794 15.9698 17.6067 16.4425C17.134 16.9152 16.8684 17.5564 16.8684 18.2249V22.7619C16.8684 23.0293 16.7622 23.2858 16.5731 23.4749C16.384 23.6639 16.1276 23.7702 15.8602 23.7702C15.5928 23.7702 15.3363 23.6639 15.1472 23.4749C14.9581 23.2858 14.8519 23.0293 14.8519 22.7619V14.696C14.8518 14.4482 14.9431 14.209 15.1082 14.0242C15.2733 13.8394 15.5007 13.7218 15.747 13.6941C15.9933 13.6664 16.2412 13.7304 16.4433 13.8738C16.6454 14.0173 16.7875 14.2302 16.8425 14.4719C17.5244 14.0085 18.3197 13.7398 19.1428 13.6946C19.966 13.6494 20.7859 13.8295 21.5144 14.2155C22.2428 14.6014 22.8523 15.1787 23.2772 15.8851C23.7022 16.5915 23.9265 17.4005 23.9261 18.2249V22.7619Z" fill="white"/>
</svg>
