<svg width="16" height="16" viewBox="0 0 16 16" fill="none" xmlns="http://www.w3.org/2000/svg">
<path d="M14.5156 2.44256V13.5574C14.5156 13.8116 14.4147 14.0553 14.235 14.235C14.0553 14.4147 13.8116 14.5156 13.5574 14.5156H2.44256C2.18843 14.5156 1.94471 14.4147 1.76502 14.235C1.58533 14.0553 1.48438 13.8116 1.48438 13.5574V2.44256C1.48438 2.18843 1.58533 1.94471 1.76502 1.76502C1.94471 1.58533 2.18843 1.48438 2.44256 1.48438L13.5574 1.48438C13.8116 1.48438 14.0553 1.58533 14.235 1.76502C14.4147 1.94471 14.5156 2.18843 14.5156 2.44256V2.44256ZM5.3171 6.46691H3.40074V12.5993H5.3171V6.46691ZM5.48957 4.35892C5.49058 4.21396 5.46303 4.07022 5.40848 3.93591C5.35394 3.8016 5.27348 3.67935 5.17169 3.57614C5.06991 3.47293 4.94878 3.39078 4.81525 3.33438C4.68171 3.27798 4.53837 3.24843 4.39341 3.24743H4.35892C4.06413 3.24743 3.78142 3.36453 3.57297 3.57297C3.36453 3.78142 3.24743 4.06413 3.24743 4.35892C3.24743 4.6537 3.36453 4.93641 3.57297 5.14486C3.78142 5.3533 4.06413 5.4704 4.35892 5.4704V5.4704C4.50388 5.47397 4.64813 5.44894 4.78342 5.39674C4.91871 5.34453 5.04239 5.26619 5.14739 5.16617C5.25239 5.06615 5.33665 4.94643 5.39536 4.81384C5.45408 4.68124 5.48609 4.53838 5.48957 4.39341V4.35892ZM12.5993 8.87386C12.5993 7.03032 11.4265 6.3136 10.2613 6.3136C9.87981 6.2945 9.49998 6.37576 9.15969 6.54926C8.8194 6.72277 8.53055 6.98246 8.32195 7.30244H8.26829V6.46691H6.46691V12.5993H8.38327V9.33762C8.35557 9.00357 8.46079 8.67208 8.67609 8.41517C8.89138 8.15826 9.19935 7.99667 9.53309 7.96551H9.60591C10.2153 7.96551 10.6676 8.34878 10.6676 9.31462V12.5993H12.5839L12.5993 8.87386Z" fill="#858585"/>
</svg>
