<svg width="16" height="16" viewBox="0 0 16 16" fill="none" xmlns="http://www.w3.org/2000/svg">
<path fill-rule="evenodd" clip-rule="evenodd" d="M11.536 3.4639C12.0004 3.92821 12.3689 4.47946 12.6202 5.08618C12.8716 5.69289 13.0009 6.34318 13.0009 6.9999C13.0009 7.65662 12.8716 8.3069 12.6202 8.91362C12.3689 9.52033 12.0004 10.0716 11.536 10.5359L8 14.0699L4.464 10.5349C3.99965 10.0706 3.6313 9.51927 3.38 8.91257C3.12869 8.30586 2.99934 7.65559 2.99934 6.9989C2.99934 6.3422 3.12869 5.69194 3.38 5.08523C3.6313 4.47852 3.99965 3.92725 4.464 3.4629C4.92836 2.99854 5.47963 2.6302 6.08633 2.37889C6.69304 2.12758 7.34331 1.99824 8 1.99824C8.6567 1.99824 9.30696 2.12758 9.91367 2.37889C10.5204 2.6302 11.0716 2.99854 11.536 3.4629V3.4639ZM12.596 11.5959C13.5051 10.6869 14.1242 9.52869 14.3751 8.2678C14.6259 7.00691 14.4972 5.69994 14.0053 4.51219C13.5133 3.32444 12.6802 2.30925 11.6113 1.59499C10.5423 0.880744 9.2856 0.499512 8 0.499512C6.7144 0.499512 5.45767 0.880744 4.38874 1.59499C3.31981 2.30925 2.48669 3.32444 1.99473 4.51219C1.50278 5.69994 1.37409 7.00691 1.62494 8.2678C1.87579 9.52869 2.49491 10.6869 3.404 11.5959L6.939 15.1319C7.0783 15.2713 7.2437 15.3819 7.42576 15.4573C7.60781 15.5328 7.80294 15.5716 8 15.5716C8.19707 15.5716 8.3922 15.5328 8.57425 15.4573C8.7563 15.3819 8.9217 15.2713 9.061 15.1319L12.596 11.5959ZM8 8.9999C8.53044 8.9999 9.03914 8.78918 9.41422 8.41411C9.78929 8.03904 10 7.53033 10 6.9999C10 6.46946 9.78929 5.96076 9.41422 5.58568C9.03914 5.21061 8.53044 4.9999 8 4.9999C7.46957 4.9999 6.96086 5.21061 6.58579 5.58568C6.21072 5.96076 6 6.46946 6 6.9999C6 7.53033 6.21072 8.03904 6.58579 8.41411C6.96086 8.78918 7.46957 8.9999 8 8.9999Z" fill="#858585"/>
</svg>
