<svg width="185" height="29" viewBox="0 0 185 29" fill="none" xmlns="http://www.w3.org/2000/svg">
<g clip-path="url(#clip0_5100_6345)">
<path d="M36.291 16.8216C36.291 12.0866 39.9575 8.76074 44.9533 8.76074C47.9984 8.76074 50.3977 9.86336 51.9316 11.8448L48.6198 14.7726C47.7089 13.6294 46.6206 12.9669 45.2201 12.9669C43.0435 12.9669 41.5763 14.4661 41.5763 16.8216C41.5763 19.177 43.0435 20.6762 45.2201 20.6762C46.6206 20.6762 47.7089 20.0152 48.6198 18.8691L51.9316 21.7983C50.4038 23.7813 47.9984 24.8824 44.9533 24.8824C39.9575 24.8764 36.291 21.5505 36.291 16.8216Z" fill="#292929"/>
<path d="M62.0018 12.2563V16.6608C61.635 16.6022 61.2637 16.5722 60.8908 16.5722C59.3796 16.5722 58.3126 17.2557 58.3126 19.171V24.5218H53.291V12.4772H58.067V13.7781C58.9567 12.7626 60.3118 12.2563 62.0018 12.2563Z" fill="#292929"/>
<path d="M76.1779 19.6562H67.7339C68.0886 20.5816 68.9344 21.0668 70.1787 21.0668C71.2898 21.0668 71.9127 20.7798 72.713 20.1835L75.3352 22.8048C74.1575 24.0817 72.4478 24.7426 70.0241 24.7426C65.5589 24.7426 62.6699 22.0777 62.6699 18.489C62.6699 14.8281 65.6256 12.2563 69.5588 12.2563C73.1586 12.2563 76.2461 14.4135 76.2461 18.489C76.2446 18.842 76.2007 19.3032 76.1779 19.6562ZM67.6445 17.2572H71.555C71.3549 16.2477 70.6213 15.6483 69.5997 15.6483C68.5585 15.6468 67.8476 16.2417 67.6475 17.2557L67.6445 17.2572Z" fill="#292929"/>
<path d="M89.5117 18.0489V24.5219H84.8464V22.9385C84.2674 24.1493 83.1124 24.7442 81.4072 24.7442C78.4289 24.7442 76.8965 23.0707 76.8965 20.9992C76.8965 18.6648 78.6729 17.3654 82.4516 17.3654H84.4735C84.3174 16.44 83.6081 15.9563 82.1803 15.9563C81.0905 15.9563 79.8703 16.3078 79.07 16.9027L77.4694 13.6204C78.8912 12.7371 81.048 12.2549 82.9351 12.2549C87.1124 12.2564 89.5117 14.044 89.5117 18.0489ZM84.4917 20.6086V19.7719H83.2473C82.1802 19.7719 81.7195 20.1234 81.7195 20.7814C81.7195 21.3312 82.1636 21.7503 82.9199 21.7503C83.602 21.7458 84.2234 21.3958 84.4917 20.6086Z" fill="#292929"/>
<path d="M100.646 24.1046C99.8684 24.5447 98.7346 24.743 97.5569 24.743C94.2011 24.743 92.2458 23.1792 92.2458 19.8533V16.7708H90.5801V13.1385H92.2458V9.76904H97.2689V13.1385H99.7577V16.7723H97.2689V19.8113C97.2689 20.5594 97.713 20.9785 98.3132 20.9785C98.7149 20.9815 99.109 20.8658 99.4455 20.648L100.646 24.1046Z" fill="#292929"/>
<path d="M101.402 8.97558C101.402 7.54399 102.58 6.44287 104.423 6.44287C106.266 6.44287 107.445 7.45235 107.445 8.88695C107.445 10.4012 106.268 11.5083 104.423 11.5083C102.579 11.5083 101.402 10.4072 101.402 8.97558ZM101.912 12.4772H106.935V24.5234H101.913L101.912 12.4772Z" fill="#292929"/>
<path d="M122.689 12.4771L117.801 24.5232H112.599L107.711 12.4756H112.866L115.312 18.9305L117.934 12.4771H122.689Z" fill="#292929"/>
<path d="M136 19.6562H127.556C127.912 20.5816 128.757 21.0668 130.001 21.0668C131.112 21.0668 131.735 20.7798 132.535 20.1835L135.157 22.8048C133.98 24.0817 132.27 24.7426 129.846 24.7426C125.381 24.7426 122.492 22.0777 122.492 18.489C122.492 14.8281 125.448 12.2563 129.381 12.2563C132.981 12.2563 136.07 14.4135 136.07 18.489C136.068 18.842 136.023 19.3032 136 19.6562ZM127.465 17.2572H131.376C131.176 16.2477 130.442 15.6483 129.42 15.6483C128.379 15.6468 127.668 16.2417 127.468 17.2557L127.465 17.2572Z" fill="#292929"/>
<path d="M153.134 9.10791V24.5235H147.889V18.8422H143.042V24.5235H137.801V9.10791H143.042V14.5699H147.882V9.10791H153.134Z" fill="#292929"/>
<path d="M168.8 12.4775V24.5237H164.023V23.3775C163.112 24.3029 161.89 24.743 160.584 24.743C157.672 24.743 155.473 23.047 155.473 19.1278V12.4775H160.496V18.27C160.496 19.9885 161.096 20.5594 162.072 20.5594C162.939 20.5594 163.783 19.9224 163.783 18.1378V12.4775H168.8Z" fill="#292929"/>
<path d="M185 18.4892C185 22.3649 182.313 24.7429 179.134 24.7429C177.623 24.7429 176.535 24.3463 175.801 23.5306V24.5221H171.025V8.18262H176.047V13.2871C176.781 12.5826 177.802 12.2521 179.136 12.2521C182.313 12.2566 185 14.6135 185 18.4892ZM179.914 18.4892C179.914 16.9254 179.047 16.1323 177.936 16.1323C176.824 16.1323 175.958 16.9254 175.958 18.4892C175.958 20.053 176.824 20.8672 177.936 20.8672C179.047 20.8672 179.912 20.053 179.914 18.4892Z" fill="#292929"/>
<path d="M14.6311 0C6.5509 0 0 6.49251 0 14.5007C0 22.509 6.5509 29.0015 14.6311 29.0015C22.7114 29.0015 29.2623 22.512 29.2623 14.5007C29.2623 6.48951 22.7099 0 14.6311 0ZM20.5894 14.5203C20.1286 14.8508 19.6027 15.0806 19.0464 15.1948L18.9555 15.2128V19.1305H16.0665V15.01L15.6179 14.9048C15.0753 14.7802 14.5144 14.6525 14.0158 14.6224C13.9051 14.6179 13.7945 14.6194 13.6838 14.6284L13.5777 14.6375V22.2236H10.6933V15.5883L9.8021 16.2163L8.13482 13.8788L9.06243 13.2224C9.52321 12.8919 10.0492 12.6621 10.6054 12.5479L10.6964 12.5299V7.58762H13.5853V11.7697L13.7035 11.7652C13.7702 11.7622 13.8384 11.7622 13.9051 11.7622C14.0036 11.7607 14.1022 11.7652 14.2007 11.7758H14.2098C14.7903 11.8103 15.3678 11.8974 15.9331 12.0356L16.0696 12.0687V7.55908H18.9585V12.1543L19.8497 11.5264L21.5201 13.8623L20.5894 14.5203Z" fill="#292929"/>
</g>
<defs>
<clipPath id="clip0_5100_6345">
<rect width="185" height="29" fill="white"/>
</clipPath>
</defs>
</svg>
