<svg width="16" height="16" viewBox="0 0 16 16" fill="none" xmlns="http://www.w3.org/2000/svg">
<path d="M14.2768 11.1622V4.83882C14.2768 4.74783 14.2525 4.65847 14.2066 4.57992C14.1607 4.50137 14.0947 4.43646 14.0153 4.39185L8.37418 1.21869C8.29742 1.17551 8.21083 1.15283 8.12276 1.15283C8.03468 1.15283 7.94809 1.17551 7.87133 1.21869L2.23016 4.39185C2.15085 4.43646 2.08484 4.50137 2.0389 4.57992C1.99296 4.65847 1.96875 4.74783 1.96875 4.83882V11.1622C1.96875 11.2532 1.99296 11.3426 2.0389 11.4211C2.08484 11.4997 2.15085 11.5646 2.23016 11.6092L7.87133 14.7824C7.94809 14.8255 8.03468 14.8482 8.12276 14.8482C8.21083 14.8482 8.29742 14.8255 8.37418 14.7824L14.0153 11.6092C14.0947 11.5646 14.1607 11.4997 14.2066 11.4211C14.2525 11.3426 14.2768 11.2532 14.2768 11.1622Z" stroke="#666666" stroke-width="1.34108" stroke-linecap="round" stroke-linejoin="round"/>
<path d="M14.2132 4.57877L8.19069 8.0002L2.04688 4.57812" stroke="#666666" stroke-width="1.34108" stroke-linecap="round" stroke-linejoin="round"/>
<path d="M8.18909 8.00049L8.12891 14.8482" stroke="#666666" stroke-width="1.34108" stroke-linecap="round" stroke-linejoin="round"/>
</svg>
