<svg width="19" height="17" viewBox="0 0 19 17" fill="none" xmlns="http://www.w3.org/2000/svg">
<path fill-rule="evenodd" clip-rule="evenodd" d="M9.86354 0.118164C10.0339 0.118059 10.2009 0.16369 10.3457 0.249893C10.4904 0.336096 10.6071 0.459429 10.6825 0.605932L12.9726 5.05769L18.0956 5.77184C18.2641 5.7953 18.4224 5.8635 18.5526 5.96871C18.6828 6.07393 18.7797 6.21197 18.8324 6.36723C18.885 6.5225 18.8913 6.68879 18.8506 6.84732C18.8099 7.00585 18.7237 7.15029 18.6019 7.26431L14.8953 10.73L15.7702 15.6217C15.7991 15.7827 15.7804 15.9481 15.7163 16.0994C15.6521 16.2507 15.5452 16.3818 15.4074 16.4779C15.2697 16.5739 15.1067 16.6311 14.9368 16.6429C14.7669 16.6547 14.597 16.6207 14.4463 16.5447L9.86354 14.2343L5.28082 16.5447C5.13016 16.6206 4.96038 16.6545 4.79066 16.6428C4.62093 16.631 4.45802 16.5739 4.32033 16.4781C4.18263 16.3822 4.07563 16.2513 4.0114 16.1002C3.94718 15.9491 3.92829 15.7837 3.95687 15.6229L4.83301 10.7289L1.12401 7.26431C1.00179 7.15033 0.915313 7.0058 0.874369 6.84711C0.833424 6.68841 0.839652 6.52189 0.892345 6.36641C0.945039 6.21093 1.04209 6.07271 1.17251 5.96742C1.30292 5.86213 1.46148 5.79397 1.63022 5.77067L6.75323 5.05769L9.04459 0.605932C9.12001 0.459429 9.23669 0.336096 9.38142 0.249893C9.52615 0.16369 9.69316 0.118059 9.86354 0.118164ZM9.86354 2.97126L8.17818 6.24443C8.11273 6.37151 8.01608 6.48145 7.89653 6.56478C7.77698 6.64812 7.63811 6.70237 7.49187 6.72287L3.72323 7.24798L6.44901 9.7965C6.55506 9.89553 6.63441 10.0178 6.6802 10.1528C6.72599 10.2878 6.73685 10.4314 6.71185 10.5713L6.06935 14.1701L9.43885 12.4711C9.56982 12.405 9.71557 12.3705 9.86354 12.3705C10.0115 12.3705 10.1573 12.405 10.2882 12.4711L13.6589 14.1701L13.014 10.5713C12.989 10.4314 12.9999 10.2878 13.0457 10.1528C13.0915 10.0178 13.1708 9.89553 13.2768 9.7965L16.0026 7.24914L12.2352 6.72403C12.089 6.70354 11.9501 6.64929 11.8305 6.56595C11.711 6.48261 11.6143 6.37268 11.5489 6.2456L9.86354 2.97009V2.97126Z" fill="#666666"/>
</svg>
