<svg width="16" height="16" viewBox="0 0 16 16" fill="none" xmlns="http://www.w3.org/2000/svg">
<path d="M14.8438 4.08178C14.3322 4.29225 13.7887 4.4293 13.2323 4.48816C13.8195 4.16576 14.259 3.65675 14.4684 3.05662C13.9156 3.35769 13.3115 3.57005 12.6818 3.68465C12.2965 3.30602 11.7969 3.04296 11.2476 2.92963C10.6983 2.81629 10.1248 2.85791 9.60149 3.04907C9.07817 3.24023 8.62919 3.57212 8.31283 4.00166C7.99647 4.4312 7.82732 4.93856 7.82734 5.45791C7.8267 5.657 7.85191 5.85544 7.90241 6.049C6.78581 5.99679 5.69351 5.72896 4.69612 5.26283C3.69872 4.7967 2.81842 4.14264 2.11212 3.34293C1.75281 3.9134 1.64285 4.58885 1.80466 5.23156C1.96647 5.87426 2.38786 6.43581 2.98292 6.80171C2.53738 6.78867 2.10163 6.67786 1.71176 6.47846V6.51078C1.71175 7.10893 1.93601 7.68866 2.3465 8.1516C2.75699 8.61454 3.32841 8.93218 3.96381 9.05061C3.72254 9.11197 3.47341 9.14303 3.22314 9.14297C3.04521 9.14155 2.86773 9.1261 2.69265 9.09679C2.87217 9.61153 3.22134 10.0617 3.69145 10.3846C4.16155 10.7074 4.72915 10.8868 5.31505 10.8978C4.31951 11.617 3.09125 12.0073 1.82686 12.006C1.60275 12.0054 1.37886 11.9931 1.15625 11.9691C2.4401 12.7302 3.93422 13.1342 5.46018 13.1328C10.6249 13.1328 13.4475 9.18453 13.4475 5.76269C13.4475 5.65186 13.4425 5.53641 13.4375 5.42558C13.9891 5.0584 14.4653 4.60334 14.8438 4.08178Z" fill="#858585"/>
</svg>
