<svg width="43" height="43" viewBox="0 0 43 43" fill="none" xmlns="http://www.w3.org/2000/svg">
<rect x="0.885393" y="1.07485" width="41.2292" height="41.2292" rx="20.6146" fill="url(#paint0_linear_5424_20032)"/>
<path d="M20.918 21.6889L30.1674 12.4395" stroke="white" stroke-width="1.5" stroke-linecap="round" stroke-linejoin="round"/>
<path d="M27.4592 15.1482C25.8208 13.513 23.6283 12.5523 21.3154 12.4562C19.0026 12.3601 16.7379 13.1356 14.9695 14.6292C13.201 16.1228 12.0576 18.2258 11.7654 20.5221C11.4731 22.8184 12.0535 25.1408 13.3915 27.0297C14.7295 28.9187 16.7278 30.2366 18.991 30.7228C21.2542 31.209 23.6174 30.828 25.6132 29.6553C27.6089 28.4825 29.0918 26.6034 29.7685 24.3897C30.4451 22.176 30.2663 19.7889 29.2673 17.7008" stroke="white" stroke-width="1.5" stroke-linecap="round" stroke-linejoin="round"/>
<path d="M24.1876 18.4189C23.423 17.6543 22.4147 17.1819 21.3379 17.0836C20.2611 16.9853 19.1839 17.2675 18.2936 17.881C17.4032 18.4945 16.756 19.4006 16.4643 20.4418C16.1727 21.483 16.2552 22.5934 16.6973 23.5802C17.1395 24.5669 17.9134 25.3675 18.8846 25.8428C19.8557 26.3182 20.9628 26.4382 22.0133 26.182C23.0637 25.9258 23.9912 25.3097 24.6346 24.4406C25.2779 23.5716 25.5964 22.5046 25.5347 21.4251" stroke="white" stroke-width="1.5" stroke-linecap="round" stroke-linejoin="round"/>
<rect x="0.885393" y="1.07485" width="41.2292" height="41.2292" rx="20.6146" stroke="#E0E0E0" stroke-width="0.770787"/>
<defs>
<linearGradient id="paint0_linear_5424_20032" x1="0.499998" y1="0.687164" x2="42.7163" y2="0.905728" gradientUnits="userSpaceOnUse">
<stop stop-color="#2A87A8"/>
<stop offset="1" stop-color="#115571"/>
</linearGradient>
</defs>
</svg>
