<svg width="42" height="43" viewBox="0 0 42 43" fill="none" xmlns="http://www.w3.org/2000/svg">
<rect x="0.90911" y="1.09856" width="40.1818" height="41.1818" rx="20.0909" fill="url(#paint0_linear_5424_20036)"/>
<path d="M18.5463 26.5985C20.3539 26.5985 21.8192 25.1332 21.8192 23.3256C21.8192 21.5181 20.3539 20.0527 18.5463 20.0527C16.7388 20.0527 15.2734 21.5181 15.2734 23.3256C15.2734 25.1332 16.7388 26.5985 18.5463 26.5985Z" stroke="white" stroke-width="1.5" stroke-linecap="round" stroke-linejoin="round"/>
<path d="M13.3713 29.8711C13.8361 28.8918 14.5693 28.0645 15.4855 27.4852C16.4018 26.9059 17.4635 26.5984 18.5476 26.5984C19.6316 26.5984 20.6934 26.9059 21.6096 27.4852C22.5259 28.0645 23.259 28.8918 23.7239 29.8711L30.0026 29.8712C30.1101 29.8712 30.2165 29.8501 30.3158 29.809C30.415 29.7678 30.5052 29.7076 30.5812 29.6316C30.6572 29.5556 30.7175 29.4654 30.7586 29.3661C30.7997 29.2669 30.8209 29.1605 30.8209 29.053V14.3251C30.8209 14.1081 30.7347 13.8999 30.5812 13.7465C30.4278 13.593 30.2197 13.5068 30.0027 13.5068H12.0018C11.7848 13.5068 11.5767 13.593 11.4232 13.7465C11.2698 13.8999 11.1836 14.1081 11.1836 14.3251V29.0531C11.1836 29.1605 11.2048 29.2669 11.2459 29.3662C11.287 29.4655 11.3473 29.5557 11.4232 29.6316C11.4992 29.7076 11.5894 29.7679 11.6887 29.809C11.788 29.8501 11.8944 29.8712 12.0018 29.8712L13.3713 29.8711Z" stroke="white" stroke-width="1.5" stroke-linecap="round" stroke-linejoin="round"/>
<path d="M25.9121 26.5989H27.5485V16.7803H14.457V18.4167" stroke="white" stroke-width="1.5" stroke-linecap="round" stroke-linejoin="round"/>
<rect x="0.90911" y="1.09856" width="40.1818" height="41.1818" rx="20.0909" stroke="#E0E0E0" stroke-width="0.81822"/>
<defs>
<linearGradient id="paint0_linear_5424_20036" x1="0.499998" y1="0.687164" x2="41.7112" y2="0.895445" gradientUnits="userSpaceOnUse">
<stop stop-color="#2A87A8"/>
<stop offset="1" stop-color="#115571"/>
</linearGradient>
</defs>
</svg>
