<svg width="43" height="43" viewBox="0 0 43 43" fill="none" xmlns="http://www.w3.org/2000/svg">
<rect x="0.968959" y="1.15841" width="41.0621" height="41.0621" rx="20.531" fill="url(#paint0_linear_5473_20054)"/>
<path d="M18.3098 27.0034C17.247 30.1916 12.9961 30.1916 12.9961 30.1916C12.9961 30.1916 12.9961 25.9407 16.1843 24.8779" stroke="white" stroke-width="1.5" stroke-linecap="round" stroke-linejoin="round"/>
<path d="M27.8773 19.565L21.5009 25.9414L17.25 21.6904L23.6264 15.3141C26.0409 12.8996 28.4553 12.9231 29.485 13.0768C29.6436 13.1004 29.7903 13.1743 29.9037 13.2877C30.017 13.401 30.091 13.5478 30.1146 13.7063C30.2682 14.736 30.2918 17.1505 27.8773 19.565Z" stroke="white" stroke-width="1.5" stroke-linecap="round" stroke-linejoin="round"/>
<path d="M26.8137 20.626V26.6911C26.8137 26.7898 26.7942 26.8875 26.7565 26.9787C26.7187 27.0698 26.6633 27.1527 26.5936 27.2225L23.5556 30.2604C23.4594 30.3566 23.3389 30.4249 23.207 30.458C23.0751 30.491 22.9366 30.4877 22.8065 30.4483C22.6763 30.4089 22.5593 30.3349 22.4678 30.2342C22.3764 30.1334 22.314 30.0098 22.2874 29.8764L21.5 25.9396" stroke="white" stroke-width="1.5" stroke-linecap="round" stroke-linejoin="round"/>
<path d="M22.5616 16.376H16.4965C16.3978 16.376 16.3001 16.3954 16.2089 16.4332C16.1177 16.4709 16.0349 16.5263 15.9651 16.5961L12.9271 19.634C12.831 19.7302 12.7627 19.8507 12.7296 19.9826C12.6965 20.1146 12.6999 20.253 12.7393 20.3832C12.7787 20.5133 12.8527 20.6304 12.9534 20.7218C13.0541 20.8132 13.1777 20.8756 13.3111 20.9023L17.2479 21.6896" stroke="white" stroke-width="1.5" stroke-linecap="round" stroke-linejoin="round"/>
<rect x="0.968959" y="1.15841" width="41.0621" height="41.0621" rx="20.531" stroke="#E0E0E0" stroke-width="0.937918"/>
<defs>
<linearGradient id="paint0_linear_5473_20054" x1="0.499998" y1="0.687164" x2="42.7163" y2="0.905728" gradientUnits="userSpaceOnUse">
<stop stop-color="#2A87A8"/>
<stop offset="1" stop-color="#115571"/>
</linearGradient>
</defs>
</svg>
