<svg width="438" height="199" viewBox="0 0 438 199" fill="none" xmlns="http://www.w3.org/2000/svg">
<path fill-rule="evenodd" clip-rule="evenodd" d="M0 43C0 31.9543 8.9543 23 20 23H368C379.046 23 388 31.9543 388 43V66.0342C369.171 71.8647 355.48 89.567 355.48 110.5C355.48 131.433 369.171 149.135 388 154.966V179C388 190.046 379.046 199 368 199H20C8.95431 199 0 190.046 0 179V155.969C18.8348 150.143 32.5315 132.437 32.5315 111.5C32.5315 90.5626 18.8348 72.8572 0 67.0305V43Z" fill="url(#paint0_linear_5646_14265)"/>
<rect x="371" y="78" width="65.1429" height="65.1429" rx="32.5714" fill="white"/>
<path d="M391.269 120.668C391.306 120.824 391.375 120.971 391.47 121.1C391.565 121.229 391.686 121.337 391.824 121.419C391.962 121.5 392.116 121.552 392.275 121.573C392.434 121.593 392.595 121.581 392.75 121.538C399.829 119.583 407.305 119.583 414.384 121.536C414.538 121.579 414.7 121.591 414.859 121.571C415.018 121.55 415.171 121.498 415.31 121.416C415.448 121.335 415.568 121.227 415.664 121.098C415.759 120.969 415.827 120.822 415.864 120.666L419.648 104.588C419.698 104.372 419.688 104.147 419.617 103.938C419.547 103.728 419.42 103.542 419.249 103.401C419.079 103.26 418.873 103.169 418.654 103.139C418.435 103.109 418.211 103.141 418.009 103.231L410.501 106.568C410.23 106.688 409.923 106.703 409.642 106.609C409.361 106.515 409.125 106.319 408.981 106.059L404.609 98.1899C404.506 98.0048 404.355 97.8505 404.173 97.7431C403.99 97.6357 403.782 97.5791 403.571 97.5791C403.359 97.5791 403.151 97.6357 402.968 97.7431C402.786 97.8505 402.635 98.0048 402.533 98.1899L398.161 106.059C398.017 106.319 397.781 106.515 397.499 106.609C397.218 106.703 396.912 106.688 396.64 106.568L389.131 103.23C388.929 103.14 388.706 103.109 388.487 103.139C388.268 103.169 388.061 103.26 387.891 103.401C387.721 103.542 387.593 103.727 387.523 103.937C387.452 104.146 387.442 104.371 387.492 104.587L391.269 120.668Z" stroke="url(#paint1_linear_5646_14265)" stroke-width="2" stroke-linecap="round" stroke-linejoin="round"/>
<path d="M398.82 115.57C401.978 115.238 405.162 115.238 408.32 115.57" stroke="url(#paint2_linear_5646_14265)" stroke-width="2" stroke-linecap="round" stroke-linejoin="round"/>
<rect x="371" y="78" width="65.1429" height="65.1429" rx="32.5714" stroke="url(#paint3_linear_5646_14265)" stroke-width="2"/>
<defs>
<linearGradient id="paint0_linear_5646_14265" x1="-1.70644e-05" y1="22.9904" x2="389.958" y2="27.4412" gradientUnits="userSpaceOnUse">
<stop stop-color="#2A87A8"/>
<stop offset="1" stop-color="#115571"/>
</linearGradient>
<linearGradient id="paint1_linear_5646_14265" x1="387.461" y1="97.5778" x2="419.844" y2="97.8028" gradientUnits="userSpaceOnUse">
<stop stop-color="#2A87A8"/>
<stop offset="1" stop-color="#115571"/>
</linearGradient>
<linearGradient id="paint2_linear_5646_14265" x1="398.82" y1="115.321" x2="408.011" y2="117.135" gradientUnits="userSpaceOnUse">
<stop stop-color="#2A87A8"/>
<stop offset="1" stop-color="#115571"/>
</linearGradient>
<linearGradient id="paint3_linear_5646_14265" x1="370" y1="76.9963" x2="437.489" y2="77.3457" gradientUnits="userSpaceOnUse">
<stop stop-color="#2A87A8"/>
<stop offset="1" stop-color="#115571"/>
</linearGradient>
</defs>
</svg>
