<svg width="56" height="56" viewBox="0 0 56 56" fill="none" xmlns="http://www.w3.org/2000/svg">
<rect width="56" height="56" rx="28" fill="#6BDBFF"/>
<path d="M23 32C26.5899 32 29.5 29.0899 29.5 25.5C29.5 21.9101 26.5899 19 23 19C19.4101 19 16.5 21.9101 16.5 25.5C16.5 29.0899 19.4101 32 23 32Z" stroke="white" stroke-width="2" stroke-miterlimit="10"/>
<path d="M31.4258 19.2417C32.3198 18.9898 33.2574 18.9324 34.1755 19.0734C35.0936 19.2144 35.9708 19.5505 36.748 20.059C37.5252 20.5676 38.1845 21.2368 38.6813 22.0216C39.1781 22.8063 39.501 23.6885 39.6282 24.6086C39.7554 25.5287 39.684 26.4653 39.4187 27.3555C39.1534 28.2456 38.7005 29.0686 38.0903 29.7689C37.4802 30.4693 36.7271 31.0307 35.8817 31.4155C35.0363 31.8003 34.1183 31.9994 33.1895 31.9995" stroke="white" stroke-width="2" stroke-linecap="round" stroke-linejoin="round"/>
<path d="M14 36.6746C15.0152 35.2306 16.3629 34.052 17.9293 33.2384C19.4958 32.4248 21.235 32.0001 23.0001 32C24.7652 31.9999 26.5045 32.4246 28.071 33.238C29.6375 34.0515 30.9853 35.23 32.0006 36.6739" stroke="white" stroke-width="2" stroke-linecap="round" stroke-linejoin="round"/>
<path d="M33.1914 32C34.9567 31.9987 36.6963 32.4228 38.263 33.2364C39.8296 34.05 41.1771 35.2291 42.1914 36.6739" stroke="white" stroke-width="2" stroke-linecap="round" stroke-linejoin="round"/>
</svg>
