<svg width="164" height="26" viewBox="0 0 164 26" fill="none" xmlns="http://www.w3.org/2000/svg">
<g clip-path="url(#clip0_5665_14014)">
<path d="M32.4749 15.0814C32.4749 10.8363 35.7053 7.85449 40.107 7.85449C42.79 7.85449 44.904 8.84304 46.2555 10.6195L43.3375 13.2444C42.5349 12.2195 41.576 11.6255 40.3421 11.6255C38.4243 11.6255 37.1316 12.9696 37.1316 15.0814C37.1316 17.1932 38.4243 18.5373 40.3421 18.5373C41.576 18.5373 42.5349 17.9447 43.3375 16.9171L46.2555 19.5434C44.9094 21.3212 42.79 22.3084 40.107 22.3084C35.7053 22.303 32.4749 19.3212 32.4749 15.0814Z" fill="#292929"/>
<path d="M55.1285 10.9883V14.9371C54.8053 14.8846 54.4782 14.8576 54.1496 14.8576C52.8182 14.8576 51.878 15.4704 51.878 17.1876V21.9849H47.4536V11.1863H51.6617V12.3526C52.4456 11.4422 53.6395 10.9883 55.1285 10.9883Z" fill="#292929"/>
<path d="M67.6189 17.6226H60.1791C60.4916 18.4523 61.2368 18.8873 62.3332 18.8873C63.3121 18.8873 63.8609 18.63 64.5661 18.0954L66.8764 20.4455C65.8388 21.5903 64.3324 22.1829 62.197 22.1829C58.2627 22.1829 55.7173 19.7937 55.7173 16.5762C55.7173 13.294 58.3214 10.9883 61.787 10.9883C64.9587 10.9883 67.679 12.9223 67.679 16.5762C67.6777 16.8927 67.639 17.3061 67.6189 17.6226ZM60.1003 15.4718H63.5458C63.3695 14.5667 62.7231 14.0294 61.823 14.0294C60.9056 14.028 60.2792 14.5613 60.1029 15.4704L60.1003 15.4718Z" fill="#292929"/>
<path d="M79.367 16.1819V21.9853H75.2565V20.5658C74.7463 21.6513 73.7287 22.1846 72.2263 22.1846C69.6021 22.1846 68.252 20.6843 68.252 18.827C68.252 16.7341 69.8171 15.5691 73.1464 15.5691H74.9279C74.7904 14.7395 74.1654 14.3058 72.9074 14.3058C71.9472 14.3058 70.8721 14.621 70.167 15.1543L68.7568 12.2115C70.0094 11.4196 71.9098 10.9873 73.5724 10.9873C77.253 10.9887 79.367 12.5913 79.367 16.1819ZM74.944 18.4769V17.7267H73.8475C72.9074 17.7267 72.5014 18.0419 72.5014 18.6317C72.5014 19.1247 72.8927 19.5004 73.5591 19.5004C74.16 19.4964 74.7076 19.1826 74.944 18.4769Z" fill="#292929"/>
<path d="M89.1777 21.6113C88.4926 22.0059 87.4936 22.1837 86.456 22.1837C83.4993 22.1837 81.7765 20.7817 81.7765 17.7999V15.0362H80.3088V11.7797H81.7765V8.75879H86.2022V11.7797H88.3951V15.0376H86.2022V17.7622C86.2022 18.4329 86.5935 18.8086 87.1224 18.8086C87.4763 18.8113 87.8235 18.7076 88.12 18.5123L89.1777 21.6113Z" fill="#292929"/>
<path d="M89.8438 8.04707C89.8438 6.76357 90.8814 5.77637 92.5053 5.77637C94.1293 5.77637 95.1682 6.68142 95.1682 7.96761C95.1682 9.32519 94.1306 10.3178 92.5053 10.3178C90.8801 10.3178 89.8438 9.33058 89.8438 8.04707ZM90.2925 11.1865H94.7182V21.9865H90.2938L90.2925 11.1865Z" fill="#292929"/>
<path d="M108.599 11.1869L104.292 21.9869H99.709L95.4021 11.1855H99.944L102.099 16.9728L104.41 11.1869H108.599Z" fill="#292929"/>
<path d="M120.327 17.6226H112.887C113.201 18.4523 113.945 18.8873 115.041 18.8873C116.02 18.8873 116.569 18.63 117.274 18.0954L119.585 20.4455C118.547 21.5903 117.041 22.1829 114.905 22.1829C110.971 22.1829 108.426 19.7937 108.426 16.5762C108.426 13.294 111.03 10.9883 114.495 10.9883C117.667 10.9883 120.389 12.9223 120.389 16.5762C120.387 16.8927 120.347 17.3061 120.327 17.6226ZM112.807 15.4718H116.253C116.076 14.5667 115.43 14.0294 114.53 14.0294C113.612 14.028 112.986 14.5613 112.81 15.4704L112.807 15.4718Z" fill="#292929"/>
<path d="M135.423 8.16504V21.9859H130.802V16.8923H126.532V21.9859H121.914V8.16504H126.532V13.062H130.796V8.16504H135.423Z" fill="#292929"/>
<path d="M149.227 11.1865V21.9865H145.017V20.9589C144.215 21.7885 143.138 22.1832 141.987 22.1832C139.422 22.1832 137.484 20.6626 137.484 17.1488V11.1865H141.91V16.3798C141.91 17.9205 142.439 18.4323 143.299 18.4323C144.063 18.4323 144.806 17.8613 144.806 16.2613V11.1865H149.227Z" fill="#292929"/>
<path d="M163.5 16.5763C163.5 20.0511 161.132 22.1831 158.332 22.1831C157 22.1831 156.041 21.8275 155.395 21.0962V21.9851H151.187V7.33594H155.611V11.9124C156.258 11.2807 157.158 10.9844 158.333 10.9844C161.132 10.9885 163.5 13.1016 163.5 16.5763ZM159.018 16.5763C159.018 15.1743 158.254 14.4632 157.275 14.4632C156.296 14.4632 155.532 15.1743 155.532 16.5763C155.532 17.9784 156.296 18.7083 157.275 18.7083C158.254 18.7083 159.017 17.9784 159.018 16.5763Z" fill="#292929"/>
<path d="M13.3912 0C6.27187 0 0.5 5.82087 0.5 13.0007C0.5 20.1805 6.27187 26.0013 13.3912 26.0013C20.5106 26.0013 26.2825 20.1832 26.2825 13.0007C26.2825 5.81818 20.5093 0 13.3912 0ZM18.6409 13.0182C18.235 13.3145 17.7716 13.5205 17.2814 13.6229L17.2013 13.6391V17.1515H14.6559V13.4572L14.2606 13.363C13.7825 13.2512 13.2884 13.1367 12.849 13.1098C12.7515 13.1057 12.6541 13.1071 12.5566 13.1151L12.4631 13.1232V19.9246H9.9217V13.9758L9.13644 14.5387L7.66743 12.4431L8.48474 11.8545C8.89072 11.5582 9.35412 11.3522 9.84424 11.2498L9.92437 11.2337V6.80269H12.4698V10.5522L12.5739 10.5481C12.6327 10.5455 12.6928 10.5455 12.7515 10.5455C12.8383 10.5441 12.9252 10.5481 13.012 10.5576H13.02C13.5315 10.5886 14.0403 10.6667 14.5384 10.7906L14.6586 10.8202V6.7771H17.204V10.897L17.9892 10.334L19.4609 12.4283L18.6409 13.0182Z" fill="#292929"/>
</g>
<defs>
<clipPath id="clip0_5665_14014">
<rect width="163" height="26" fill="white" transform="translate(0.5)"/>
</clipPath>
</defs>
</svg>
