<svg width="19" height="16" viewBox="0 0 19 16" fill="none" xmlns="http://www.w3.org/2000/svg">
<path fill-rule="evenodd" clip-rule="evenodd" d="M0.382812 1.29521C0.382813 1.07291 0.47112 0.859719 0.628308 0.702531C0.785496 0.545343 0.998688 0.457035 1.22099 0.457035H5.97399C7.34524 0.457035 8.56338 1.1164 9.32668 2.1345C9.71691 1.61296 10.2235 1.18974 10.8061 0.898516C11.3888 0.607294 12.0314 0.456122 12.6827 0.457035H17.4268C17.6491 0.457035 17.8623 0.545343 18.0195 0.702531C18.1767 0.859719 18.265 1.07291 18.265 1.29521V13.0296C18.265 13.2519 18.1767 13.4651 18.0195 13.6223C17.8623 13.7795 17.6491 13.8678 17.4268 13.8678H12.3899C12.0597 13.8678 11.7327 13.9328 11.4277 14.0592C11.1226 14.1856 10.8454 14.3708 10.6119 14.6043L9.91675 15.2983C9.7596 15.4553 9.54656 15.5434 9.32444 15.5434C9.10233 15.5434 8.88929 15.4553 8.73214 15.2983L8.03701 14.6043C7.80351 14.3708 7.52631 14.1856 7.22124 14.0592C6.91616 13.9328 6.58918 13.8678 6.25897 13.8678H1.22099C0.998688 13.8678 0.785496 13.7795 0.628308 13.6223C0.47112 13.4651 0.382813 13.2519 0.382813 13.0296L0.382812 1.29521ZM10.1671 4.6479C10.1671 3.98101 10.432 3.34143 10.9036 2.86987C11.3751 2.3983 12.0147 2.13338 12.6816 2.13338H16.5875V12.1915H12.3888C11.5953 12.1915 10.8242 12.4161 10.1626 12.8307L10.1671 4.6479ZM8.48627 12.8329L8.49074 7.16354L8.48851 4.64567C8.48791 3.97916 8.22273 3.34016 7.75123 2.86908C7.27973 2.398 6.64049 2.13338 5.97399 2.13338H2.05916V12.1915H6.25785C7.04621 12.1914 7.81858 12.4138 8.48627 12.8329Z" fill="#666666"/>
</svg>
