<svg width="435" height="199" viewBox="0 0 435 199" fill="none" xmlns="http://www.w3.org/2000/svg">
<path fill-rule="evenodd" clip-rule="evenodd" d="M47 43C47 31.9543 55.9543 23 67 23H415C426.046 23 435 31.9543 435 43V66.0342C416.171 71.8647 402.48 89.567 402.48 110.5C402.48 131.433 416.171 149.135 435 154.966V179C435 190.046 426.046 199 415 199H67C55.9543 199 47 190.046 47 179V155.969C65.8348 150.143 79.5315 132.437 79.5315 111.5C79.5315 90.5626 65.8348 72.8572 47 67.0305V43Z" fill="url(#paint0_linear_5646_14252)"/>
<rect x="1" y="78" width="65.1429" height="65.1429" rx="32.5714" fill="white"/>
<path d="M24.0719 123.634C23.916 123.634 23.7616 123.603 23.6175 123.544C23.4734 123.484 23.3425 123.396 23.2323 123.286C23.122 123.176 23.0345 123.045 22.9748 122.901C22.9152 122.757 22.8844 122.602 22.8844 122.446L22.8845 116.109C22.251 116.409 21.5519 116.544 20.8523 116.501C20.1526 116.459 19.4751 116.24 18.8828 115.865C18.2905 115.49 17.8026 114.971 17.4646 114.357C17.1265 113.743 16.9492 113.054 16.9492 112.353C16.9492 111.652 17.1265 110.962 17.4646 110.348C17.8026 109.734 18.2905 109.216 18.8828 108.841C19.4751 108.466 20.1526 108.247 20.8523 108.204C21.5519 108.161 22.251 108.296 22.8845 108.596L22.8845 102.259C22.8844 102.103 22.9152 101.949 22.9748 101.805C23.0345 101.66 23.122 101.53 23.2323 101.419C23.3425 101.309 23.4734 101.222 23.6175 101.162C23.7616 101.102 23.916 101.071 24.072 101.071L31.0032 101.072C30.7032 100.438 30.5682 99.7389 30.6109 99.0393C30.6536 98.3396 30.8726 97.6621 31.2474 97.0698C31.6223 96.4775 32.1408 95.9897 32.7549 95.6516C33.3689 95.3135 34.0585 95.1362 34.7594 95.1362C35.4604 95.1362 36.15 95.3135 36.764 95.6516C37.378 95.9897 37.8966 96.4775 38.2714 97.0698C38.6463 97.6621 38.8652 98.3396 38.9079 99.0393C38.9506 99.7389 38.8157 100.438 38.5157 101.072L45.4469 101.071C45.7618 101.071 46.0639 101.197 46.2866 101.419C46.5093 101.642 46.6344 101.944 46.6344 102.259L46.6345 108.596C46.001 108.296 45.3019 108.161 44.6022 108.204C43.9026 108.247 43.2251 108.466 42.6328 108.841C42.0405 109.216 41.5526 109.734 41.2145 110.348C40.8764 110.962 40.6992 111.652 40.6992 112.353C40.6992 113.054 40.8764 113.743 41.2145 114.357C41.5526 114.971 42.0405 115.49 42.6328 115.865C43.2251 116.24 43.9026 116.459 44.6022 116.501C45.3019 116.544 46.001 116.409 46.6345 116.109L46.6344 122.446C46.6344 122.761 46.5093 123.063 46.2866 123.286C46.0639 123.509 45.7618 123.634 45.4469 123.634L24.0719 123.634Z" stroke="url(#paint1_linear_5646_14252)" stroke-width="2" stroke-linecap="round" stroke-linejoin="round"/>
<rect x="1" y="78" width="65.1429" height="65.1429" rx="32.5714" stroke="url(#paint2_linear_5646_14252)" stroke-width="2"/>
<defs>
<linearGradient id="paint0_linear_5646_14252" x1="47" y1="22.9904" x2="436.958" y2="27.4412" gradientUnits="userSpaceOnUse">
<stop stop-color="#2A87A8"/>
<stop offset="1" stop-color="#115571"/>
</linearGradient>
<linearGradient id="paint1_linear_5646_14252" x1="16.9492" y1="95.1347" x2="46.7873" y2="95.2956" gradientUnits="userSpaceOnUse">
<stop stop-color="#2A87A8"/>
<stop offset="1" stop-color="#115571"/>
</linearGradient>
<linearGradient id="paint2_linear_5646_14252" x1="-2.95298e-06" y1="76.9963" x2="67.4887" y2="77.3457" gradientUnits="userSpaceOnUse">
<stop stop-color="#2A87A8"/>
<stop offset="1" stop-color="#115571"/>
</linearGradient>
</defs>
</svg>
