<svg width="33" height="33" viewBox="0 0 33 33" fill="none" xmlns="http://www.w3.org/2000/svg">
<path d="M31.1072 9.80638L27.3943 13.5192C27.2946 17.1888 25.894 20.7676 23.5166 23.3952C20.7322 26.4726 16.8882 28.0993 12.4001 28.0993C8.03605 28.0993 5.78654 25.9 5.69291 25.8064C5.56501 25.6785 5.47419 25.5182 5.43015 25.3428C5.38611 25.1673 5.39048 24.9832 5.44281 24.8101C5.49513 24.6369 5.59345 24.4812 5.72728 24.3595C5.86112 24.2378 6.02546 24.1546 6.2028 24.1189C7.27006 23.9028 9.91923 23.0608 11.0466 21.5433C9.83788 20.8463 8.76459 19.9374 7.87809 18.86C4.74162 15.0513 4.80809 10.265 5.41618 6.9204C5.45051 6.7316 5.53844 6.55667 5.66947 6.41647C5.8005 6.27628 5.96909 6.17674 6.15514 6.12974C6.34119 6.08275 6.53684 6.09027 6.71873 6.15142C6.90062 6.21256 7.06107 6.32475 7.18095 6.4746C7.21532 6.51732 10.502 10.5439 15.4001 11.8594V11.0997C15.4106 9.49842 16.0566 7.96691 17.196 6.8418C18.3353 5.71669 19.8749 5.09008 21.4761 5.09972C22.5162 5.11412 23.5348 5.39806 24.4324 5.92379C25.33 6.44952 26.0759 7.19907 26.5972 8.09923L30.4001 8.09929C30.5978 8.09929 30.7912 8.15794 30.9556 8.26782C31.1201 8.37769 31.2483 8.53387 31.3239 8.71659C31.3996 8.89931 31.4195 9.10038 31.3809 9.29436C31.3423 9.48834 31.2471 9.66653 31.1072 9.80638Z" fill="#E0E0E0"/>
</svg>
