<svg width="57" height="57" viewBox="0 0 57 57" fill="none" xmlns="http://www.w3.org/2000/svg">
<rect x="1" y="1" width="55" height="55" rx="27.5" fill="url(#paint0_linear_6225_79831)"/>
<path d="M25.5 34.5C27.7091 34.5 29.5 32.7091 29.5 30.5C29.5 28.2909 27.7091 26.5 25.5 26.5C23.2909 26.5 21.5 28.2909 21.5 30.5C21.5 32.7091 23.2909 34.5 25.5 34.5Z" stroke="white" stroke-width="2" stroke-linecap="round" stroke-linejoin="round"/>
<path d="M19.1737 38.4998C19.7418 37.303 20.6378 36.2918 21.7576 35.5838C22.8775 34.8758 24.1751 34.5 25.5 34.5C26.8249 34.5 28.1225 34.8758 29.2424 35.5838C30.3622 36.2918 31.2582 37.303 31.8263 38.4998L39.5 38.5C39.6313 38.5 39.7613 38.4741 39.8827 38.4239C40.004 38.3736 40.1142 38.3 40.2071 38.2071C40.3 38.1143 40.3736 38.004 40.4239 37.8827C40.4741 37.7614 40.5 37.6313 40.5 37.5V19.5C40.5 19.2348 40.3946 18.9804 40.2071 18.7929C40.0196 18.6054 39.7652 18.5 39.5 18.5H17.5C17.2348 18.5 16.9804 18.6054 16.7929 18.7929C16.6054 18.9804 16.5 19.2348 16.5 19.5V37.5001C16.5 37.6314 16.5259 37.7614 16.5761 37.8828C16.6264 38.0041 16.7 38.1143 16.7929 38.2072C16.8858 38.3 16.996 38.3737 17.1173 38.4239C17.2386 38.4742 17.3687 38.5 17.5 38.5L19.1737 38.4998Z" stroke="white" stroke-width="2" stroke-linecap="round" stroke-linejoin="round"/>
<path d="M34.5 34.5H36.5V22.5H20.5V24.5" stroke="white" stroke-width="2" stroke-linecap="round" stroke-linejoin="round"/>
<rect x="1" y="1" width="55" height="55" rx="27.5" stroke="#55B000"/>
<defs>
<linearGradient id="paint0_linear_6225_79831" x1="0.499998" y1="0.496947" x2="56.7884" y2="0.788367" gradientUnits="userSpaceOnUse">
<stop offset="0.0677083" stop-color="#444444"/>
<stop offset="0.989583" stop-color="#1F0099"/>
</linearGradient>
</defs>
</svg>
