<svg width="57" height="57" viewBox="0 0 57 57" fill="none" xmlns="http://www.w3.org/2000/svg">
<rect x="1" y="1" width="55" height="55" rx="27.5" fill="url(#paint0_linear_6225_79827)"/>
<path d="M28.5 28.5L40.5 16.5" stroke="white" stroke-width="2" stroke-linecap="round" stroke-linejoin="round"/>
<path d="M36.9841 20.0146C34.8584 17.8931 32.0139 16.6468 29.0133 16.5221C26.0127 16.3974 23.0746 17.4034 20.7802 19.3412C18.4859 21.279 17.0024 24.0074 16.6233 26.9866C16.2442 29.9658 16.9971 32.9787 18.733 35.4294C20.4689 37.88 23.0614 39.5899 25.9976 40.2207C28.9338 40.8514 31.9998 40.3572 34.5891 38.8357C37.1783 37.3142 39.1022 34.8763 39.9801 32.0043C40.858 29.1322 40.6259 26.0353 39.3299 23.3262" stroke="white" stroke-width="2" stroke-linecap="round" stroke-linejoin="round"/>
<path d="M32.7423 24.2572C31.7503 23.2653 30.4422 22.6523 29.0452 22.5248C27.6482 22.3973 26.2507 22.7634 25.0955 23.5593C23.9404 24.3553 23.1007 25.5308 22.7223 26.8817C22.344 28.2325 22.4509 29.6732 23.0246 30.9533C23.5982 32.2335 24.6023 33.2722 25.8623 33.8889C27.1222 34.5056 28.5585 34.6613 29.9214 34.3289C31.2842 33.9965 32.4875 33.1972 33.3222 32.0697C34.1568 30.9422 34.57 29.5579 34.4899 28.1573" stroke="white" stroke-width="2" stroke-linecap="round" stroke-linejoin="round"/>
<rect x="1" y="1" width="55" height="55" rx="27.5" stroke="#55B000"/>
<defs>
<linearGradient id="paint0_linear_6225_79827" x1="0.499998" y1="0.496947" x2="56.7884" y2="0.788367" gradientUnits="userSpaceOnUse">
<stop offset="0.0677083" stop-color="#444444"/>
<stop offset="0.989583" stop-color="#1F0099"/>
</linearGradient>
</defs>
</svg>
