<svg width="16" height="16" viewBox="0 0 16 16" fill="none" xmlns="http://www.w3.org/2000/svg">
<mask id="mask0_5227_6332" style="mask-type:luminance" maskUnits="userSpaceOnUse" x="9" y="1" width="7" height="7">
<path fill-rule="evenodd" clip-rule="evenodd" d="M9.56934 1.33398H15.262V7.02253H9.56934V1.33398Z" fill="white"/>
</mask>
<g mask="url(#mask0_5227_6332)">
<path fill-rule="evenodd" clip-rule="evenodd" d="M14.7618 7.02253C14.5105 7.02253 14.2945 6.83386 14.2658 6.57853C14.0131 4.32786 12.2651 2.58119 10.0138 2.33119C9.7398 2.30053 9.5418 2.05386 9.57247 1.77919C9.60247 1.50519 9.84713 1.30319 10.1245 1.33786C12.8431 1.63986 14.9545 3.74853 15.2591 6.46653C15.2898 6.74119 15.0925 6.98853 14.8185 7.01919C14.7998 7.02119 14.7805 7.02253 14.7618 7.02253Z" fill="#292929"/>
</g>
<path fill-rule="evenodd" clip-rule="evenodd" d="M12.402 7.02927C12.1673 7.02927 11.9586 6.86394 11.912 6.62527C11.72 5.63861 10.9593 4.87794 9.97396 4.68661C9.70262 4.63394 9.52596 4.37194 9.57862 4.10061C9.63129 3.82927 9.89796 3.65194 10.1646 3.70527C11.552 3.97461 12.6233 5.04527 12.8933 6.43327C12.946 6.70527 12.7693 6.96727 12.4986 7.01994C12.466 7.02594 12.434 7.02927 12.402 7.02927Z" fill="#292929"/>
<mask id="mask1_5227_6332" style="mask-type:luminance" maskUnits="userSpaceOnUse" x="1" y="1" width="15" height="15">
<path fill-rule="evenodd" clip-rule="evenodd" d="M1.33398 1.3335H15.0008V15.0005H1.33398V1.3335Z" fill="white"/>
</mask>
<g mask="url(#mask1_5227_6332)">
<path fill-rule="evenodd" clip-rule="evenodd" d="M2.90672 3.37453C2.90805 3.37453 2.87472 3.40919 2.83272 3.45053C2.67139 3.60719 2.33739 3.93319 2.33405 4.61519C2.32872 5.56919 2.95605 7.34053 5.97672 10.3605C8.98272 13.3659 10.7514 14.0005 11.7081 14.0005H11.7221C12.4041 13.9965 12.7294 13.6625 12.8861 13.5019C12.9334 13.4532 12.9721 13.4165 12.9994 13.3945C13.6641 12.7259 14.0041 12.2292 14.0007 11.9099C13.9967 11.5845 13.5921 11.2005 13.0327 10.6679C12.8547 10.4992 12.6614 10.3145 12.4574 10.1105C11.9281 9.58319 11.6674 9.67319 11.0907 9.87586C10.2941 10.1552 9.20272 10.5379 7.50205 8.83586C5.80072 7.13519 6.18205 6.04386 6.46005 5.24653C6.66139 4.67053 6.75339 4.40853 6.22472 3.87919C6.01805 3.67253 5.83205 3.47653 5.66072 3.29653C5.13139 2.74053 4.74939 2.33853 4.42605 2.33386H4.42072C4.10139 2.33386 3.60539 2.67519 2.90339 3.37719C2.90539 3.37519 2.90605 3.37453 2.90672 3.37453ZM11.708 15.0005C10.0467 15.0005 7.88071 13.6779 5.27004 11.0679C2.64871 8.44719 1.32404 6.27452 1.33404 4.60986C1.34004 3.50986 1.91671 2.94652 2.13337 2.73519C2.14471 2.72119 2.18337 2.68319 2.19671 2.66986C3.15337 1.71319 3.81071 1.31986 4.43871 1.33386C5.18337 1.34386 5.71404 1.90186 6.38537 2.60786C6.55137 2.78186 6.73071 2.97186 6.93137 3.17186C7.90404 4.14519 7.62737 4.93919 7.40404 5.57652C7.16137 6.27186 6.95137 6.87186 8.20871 8.12919C9.46604 9.38652 10.0654 9.17652 10.76 8.93186C11.398 8.70919 12.19 8.43052 13.1647 9.40386C13.3627 9.60186 13.5494 9.77919 13.7227 9.94386C14.4314 10.6185 14.9914 11.1512 15.0007 11.8979C15.008 12.5339 14.6214 13.1832 13.6667 14.1379L13.244 13.8512L13.602 14.1999C13.3907 14.4165 12.8287 14.9939 11.728 15.0005H11.708Z" fill="#292929"/>
</g>
</svg>
