<svg width="13" height="17" viewBox="0 0 13 17" fill="none" xmlns="http://www.w3.org/2000/svg">
<path fill-rule="evenodd" clip-rule="evenodd" d="M0.464845 2.66087C0.464845 1.95516 0.734673 1.27836 1.21497 0.77935C1.69527 0.280341 2.34669 0 3.02593 0L11.9897 0C12.1935 0 12.3889 0.0841022 12.533 0.233805C12.6771 0.383508 12.7581 0.586549 12.7581 0.79826V14.1026C12.7581 14.3143 12.6771 14.5174 12.533 14.6671C12.3889 14.8168 12.1935 14.9009 11.9897 14.9009H9.42864C9.22487 14.9009 9.02944 14.8168 8.88535 14.6671C8.74126 14.5174 8.66032 14.3143 8.66032 14.1026C8.66032 13.8909 8.74126 13.6878 8.88535 13.5381C9.02944 13.3884 9.22487 13.3043 9.42864 13.3043H11.2214V11.1756H3.02593C2.8242 11.1757 2.62697 11.2376 2.45897 11.3536C2.29097 11.4696 2.15968 11.6346 2.08157 11.8278C2.00345 12.0211 1.98199 12.234 2.01986 12.4398C2.05774 12.6457 2.15327 12.8354 2.29448 12.985C2.43712 13.1363 2.51607 13.3403 2.51396 13.5521C2.51185 13.7639 2.42884 13.9661 2.28322 14.1143C2.13759 14.2625 1.94126 14.3445 1.73742 14.3423C1.53358 14.3401 1.33893 14.2539 1.19629 14.1026C0.726805 13.6054 0.464121 12.9365 0.464845 12.24V2.66087ZM11.2214 1.59652V9.57912H3.02593C2.66123 9.57912 2.31497 9.65789 2.0015 9.80051V2.66087C2.0015 2.37859 2.10943 2.10786 2.30155 1.90826C2.49366 1.70866 2.75423 1.59652 3.02593 1.59652H11.2214ZM3.53815 13.0383V16.4974C3.53815 16.5468 3.55139 16.5952 3.5764 16.6373C3.6014 16.6793 3.63718 16.7133 3.67972 16.7354C3.72226 16.7575 3.76988 16.7668 3.81725 16.7624C3.86462 16.758 3.90987 16.7399 3.94792 16.7102L5.43335 15.5533C5.47768 15.5188 5.5316 15.5001 5.58701 15.5001C5.64243 15.5001 5.69635 15.5188 5.74068 15.5533L7.22611 16.7102C7.26416 16.7399 7.3094 16.758 7.35677 16.7624C7.40414 16.7668 7.45177 16.7575 7.49431 16.7354C7.53685 16.7133 7.57263 16.6793 7.59763 16.6373C7.62264 16.5952 7.63588 16.5468 7.63588 16.4974V13.0383C7.63588 12.9677 7.6089 12.9 7.56087 12.8501C7.51284 12.8002 7.4477 12.7722 7.37977 12.7722H3.79425C3.72633 12.7722 3.66119 12.8002 3.61316 12.8501C3.56513 12.9 3.53815 12.9677 3.53815 13.0383Z" fill="#666666"/>
</svg>
