<svg width="435" height="205" viewBox="0 0 435 205" fill="none" xmlns="http://www.w3.org/2000/svg">
<rect x="1" y="84" width="65.1429" height="65.1429" rx="32.5714" fill="white"/>
<path d="M17 119.631V116.903L27.9103 112.099V115.237L20.4405 118.236L20.5412 118.073V118.461L20.4405 118.298L27.9103 121.297V124.435L17 119.631Z" fill="#4576E7"/>
<path d="M38.0999 108L32.9857 127H30.1419L35.2561 108H38.0999Z" fill="#4576E7"/>
<path d="M51.2438 119.631L40.3335 124.435V121.297L47.8033 118.298L47.7026 118.461V118.073L47.8033 118.236L40.3335 115.237V112.099L51.2438 116.903V119.631Z" fill="#4576E7"/>
<rect x="1" y="84" width="65.1429" height="65.1429" rx="32.5714" stroke="#4576E7" stroke-width="2"/>
<path fill-rule="evenodd" clip-rule="evenodd" d="M47 49C47 37.9543 55.9543 29 67 29H415C426.046 29 435 37.9543 435 49V72.0342C416.171 77.8647 402.48 95.567 402.48 116.5C402.48 137.433 416.171 155.135 435 160.966V185C435 196.046 426.046 205 415 205H67C55.9543 205 47 196.046 47 185V161.969C65.8348 156.143 79.5315 138.437 79.5315 117.5C79.5315 96.5626 65.8348 78.8572 47 73.0305V49Z" fill="url(#paint0_linear_6318_69695)"/>
<defs>
<linearGradient id="paint0_linear_6318_69695" x1="47" y1="28.9904" x2="436.958" y2="33.4412" gradientUnits="userSpaceOnUse">
<stop offset="0.0677083" stop-color="#444444"/>
<stop offset="0.989583" stop-color="#1F0099"/>
</linearGradient>
</defs>
</svg>
