<svg width="33" height="33" viewBox="0 0 33 33" fill="none" xmlns="http://www.w3.org/2000/svg">
<path d="M22.3142 11.8588C24.1954 13.2052 26.4989 13.9975 28.987 13.9975V10.2224C27.5982 9.92607 26.3687 9.19913 25.4443 8.188C23.8619 7.199 22.7219 5.56741 22.3876 3.65773H18.8995V22.8132C18.8916 25.0463 17.0822 26.8545 14.8509 26.8545C13.5361 26.8545 12.368 26.2267 11.6282 25.2542C10.3071 24.5864 9.4012 23.2153 9.4012 21.632C9.4012 19.3927 11.2135 17.5771 13.4496 17.5771C13.878 17.5771 14.291 17.6439 14.6783 17.767V13.9507C9.8764 14.05 6.0145 17.98 6.0145 22.8133C6.0145 25.226 6.9762 27.4132 8.53705 29.0114C9.94517 29.9584 11.6403 30.5107 13.464 30.5107C18.3519 30.5107 22.3143 26.5418 22.3143 21.646V11.8588H22.3142Z" fill="white"/>
<path d="M28.987 10.2224L28.987 9.20163C27.7346 9.20354 26.5068 8.85223 25.4442 8.1879C26.3849 9.21936 27.6234 9.93058 28.987 10.2224ZM22.3876 3.65773C22.3557 3.47522 22.3312 3.29151 22.3142 3.10709V2.49023H17.498V21.6459C17.4903 23.8787 15.6811 25.6869 13.4496 25.6869C12.7945 25.6869 12.1759 25.5311 11.6282 25.2543C12.368 26.2267 13.5361 26.8544 14.8509 26.8544C17.082 26.8544 18.8917 25.0464 18.8995 22.8133L18.8995 3.65773H22.3876ZM14.6785 13.9507V12.864C14.2761 12.8089 13.8703 12.7813 13.4641 12.7815C8.57584 12.7814 4.61328 16.7503 4.61328 21.6459C4.61328 24.7151 6.17064 27.42 8.53716 29.0112C6.9763 27.4131 6.0146 25.2258 6.0146 22.8132C6.0146 17.98 9.8764 14.05 14.6785 13.9507Z" fill="white"/>
</svg>
