<svg width="32" height="33" viewBox="0 0 32 33" fill="none" xmlns="http://www.w3.org/2000/svg">
<path d="M29.2913 9.2248C29.1727 8.76487 28.9465 8.33972 28.6312 7.98445C28.316 7.62918 27.9208 7.35397 27.4782 7.18153C23.1945 5.53541 16.3724 5.54914 16 5.55109C15.6278 5.5481 8.8056 5.53534 4.52185 7.18153C4.0793 7.35396 3.68409 7.62915 3.36884 7.9844C3.05359 8.33965 2.82734 8.76477 2.70874 9.22468C2.38537 10.466 2 12.7358 2 16.5001C2 20.2644 2.38537 22.5342 2.70868 23.7755C2.82725 24.2354 3.0535 24.6605 3.36875 25.0158C3.68401 25.3711 4.07922 25.6463 4.52179 25.8187C8.62256 27.3946 15.0495 27.4494 15.9177 27.4494C15.9952 27.4495 16.0048 27.4495 16.0823 27.4494C16.9512 27.4494 23.3776 27.3945 27.4782 25.8187C27.9207 25.6463 28.3159 25.3711 28.6312 25.0159C28.9464 24.6606 29.1727 24.2355 29.2913 23.7756C29.6146 22.5343 30 20.2644 30 16.5001C30 12.7359 29.6146 10.4661 29.2913 9.2248ZM20.2773 16.9161L14.2773 20.9161C14.202 20.9664 14.1145 20.9952 14.0241 20.9996C13.9337 21.0039 13.8438 20.9837 13.7641 20.941C13.6843 20.8983 13.6176 20.8347 13.571 20.7571C13.5245 20.6794 13.5 20.5906 13.5 20.5001V12.5001C13.5 12.4096 13.5245 12.3208 13.571 12.2432C13.6176 12.1655 13.6843 12.102 13.7641 12.0593C13.8438 12.0166 13.9337 11.9963 14.0241 12.0007C14.1145 12.0051 14.202 12.0339 14.2773 12.0841L20.2773 16.0841C20.3458 16.1298 20.402 16.1916 20.4408 16.2642C20.4797 16.3368 20.5 16.4178 20.5 16.5001C20.5 16.5824 20.4797 16.6635 20.4408 16.7361C20.402 16.8086 20.3458 16.8705 20.2773 16.9161Z" fill="white"/>
</svg>
