<svg width="57" height="57" viewBox="0 0 57 57" fill="none" xmlns="http://www.w3.org/2000/svg">
<rect x="1" y="0.615234" width="55" height="55" rx="27.5" fill="url(#paint0_linear_5643_68133)"/>
<path d="M28.5 28.1152L40.5 16.1152" stroke="white" stroke-width="2" stroke-linecap="round" stroke-linejoin="round"/>
<path d="M36.9861 19.6299C34.8604 17.5084 32.0159 16.262 29.0153 16.1373C26.0147 16.0126 23.0765 17.0187 20.7822 18.9565C18.4878 20.8943 17.0043 23.6226 16.6252 26.6018C16.2461 29.581 16.999 32.5939 18.7349 35.0446C20.4709 37.4953 23.0634 39.2051 25.9996 39.8359C28.9358 40.4667 32.0018 39.9724 34.591 38.4509C37.1803 36.9294 39.1042 34.4915 39.982 31.6195C40.8599 28.7475 40.6279 25.6506 39.3318 22.9414" stroke="white" stroke-width="2" stroke-linecap="round" stroke-linejoin="round"/>
<path d="M32.7423 23.8725C31.7503 22.8805 30.4422 22.2676 29.0452 22.1401C27.6482 22.0126 26.2507 22.3786 25.0955 23.1746C23.9404 23.9705 23.1007 25.1461 22.7223 26.4969C22.344 27.8477 22.4509 29.2884 23.0246 30.5686C23.5982 31.8487 24.6023 32.8874 25.8623 33.5041C27.1222 34.1208 28.5585 34.2765 29.9214 33.9441C31.2842 33.6118 32.4875 32.8124 33.3222 31.6849C34.1568 30.5574 34.57 29.1731 34.4899 27.7726" stroke="white" stroke-width="2" stroke-linecap="round" stroke-linejoin="round"/>
<rect x="1" y="0.615234" width="55" height="55" rx="27.5" stroke="#E0E0E0"/>
<defs>
<linearGradient id="paint0_linear_5643_68133" x1="0.499998" y1="0.112182" x2="56.7884" y2="0.403602" gradientUnits="userSpaceOnUse">
<stop stop-color="#1060FF"/>
<stop offset="0.520833" stop-color="#94E5FF"/>
</linearGradient>
</defs>
</svg>
