<svg width="57" height="57" viewBox="0 0 57 57" fill="none" xmlns="http://www.w3.org/2000/svg">
<rect x="1" y="0.615234" width="55" height="55" rx="27.5" fill="url(#paint0_linear_5643_68137)"/>
<path d="M25.5 34.1152C27.7091 34.1152 29.5 32.3244 29.5 30.1152C29.5 27.9061 27.7091 26.1152 25.5 26.1152C23.2909 26.1152 21.5 27.9061 21.5 30.1152C21.5 32.3244 23.2909 34.1152 25.5 34.1152Z" stroke="white" stroke-width="2" stroke-linecap="round" stroke-linejoin="round"/>
<path d="M19.1737 38.1151C19.7418 36.9182 20.6378 35.9071 21.7576 35.1991C22.8775 34.4911 24.1751 34.1152 25.5 34.1152C26.8249 34.1152 28.1225 34.4911 29.2424 35.1991C30.3622 35.9071 31.2582 36.9182 31.8263 38.1151L39.5 38.1152C39.6313 38.1152 39.7613 38.0894 39.8827 38.0391C40.004 37.9889 40.1142 37.9152 40.2071 37.8223C40.3 37.7295 40.3736 37.6192 40.4239 37.4979C40.4741 37.3766 40.5 37.2466 40.5 37.1152V19.1152C40.5 18.85 40.3946 18.5957 40.2071 18.4081C40.0196 18.2206 39.7652 18.1152 39.5 18.1152H17.5C17.2348 18.1152 16.9804 18.2206 16.7929 18.4081C16.6054 18.5957 16.5 18.85 16.5 19.1152V37.1153C16.5 37.2466 16.5259 37.3767 16.5761 37.498C16.6264 37.6193 16.7 37.7295 16.7929 37.8224C16.8858 37.9153 16.996 37.9889 17.1173 38.0391C17.2386 38.0894 17.3687 38.1152 17.5 38.1152L19.1737 38.1151Z" stroke="white" stroke-width="2" stroke-linecap="round" stroke-linejoin="round"/>
<path d="M34.5 34.1152H36.5V22.1152H20.5V24.1152" stroke="white" stroke-width="2" stroke-linecap="round" stroke-linejoin="round"/>
<rect x="1" y="0.615234" width="55" height="55" rx="27.5" stroke="#E0E0E0"/>
<defs>
<linearGradient id="paint0_linear_5643_68137" x1="0.499998" y1="0.112182" x2="56.7884" y2="0.403602" gradientUnits="userSpaceOnUse">
<stop stop-color="#1060FF"/>
<stop offset="0.520833" stop-color="#94E5FF"/>
</linearGradient>
</defs>
</svg>
