<svg width="32" height="33" viewBox="0 0 32 33" fill="none" xmlns="http://www.w3.org/2000/svg">
<path d="M16 3.5C12.6388 3.50006 9.40826 4.80196 6.98625 7.13252C4.56423 9.46308 3.13901 12.6411 3.00964 15.9999C2.88027 19.3586 4.05681 22.6368 6.29237 25.1468C8.52794 27.6568 11.6488 29.2033 15 29.4619V19.5001H12C11.7348 19.5001 11.4804 19.3948 11.2929 19.2072C11.1054 19.0197 11 18.7653 11 18.5001C11 18.2349 11.1054 17.9805 11.2929 17.793C11.4804 17.6055 11.7348 17.5001 12 17.5001H15V14.5001C15.0012 13.4396 15.423 12.4229 16.1729 11.673C16.9228 10.9231 17.9395 10.5013 19 10.5001H21C21.2652 10.5001 21.5196 10.6055 21.7071 10.793C21.8946 10.9805 22 11.2349 22 11.5001C22 11.7653 21.8946 12.0197 21.7071 12.2072C21.5196 12.3948 21.2652 12.5001 21 12.5001H19C18.4698 12.5007 17.9614 12.7116 17.5865 13.0866C17.2115 13.4615 17.0006 13.9699 17 14.5001V17.5001H20C20.2652 17.5001 20.5196 17.6055 20.7071 17.793C20.8946 17.9805 21 18.2349 21 18.5001C21 18.7653 20.8946 19.0197 20.7071 19.2072C20.5196 19.3948 20.2652 19.5001 20 19.5001H17V29.4619C20.3512 29.2033 23.472 27.6567 25.7076 25.1468C27.9431 22.6368 29.1197 19.3586 28.9903 15.9999C28.8609 12.6412 27.4357 9.4631 25.0137 7.13254C22.5917 4.80198 19.3612 3.50007 16 3.5Z" fill="white"/>
</svg>
