<svg width="56" height="56" viewBox="0 0 56 56" fill="none" xmlns="http://www.w3.org/2000/svg">
<rect x="0.5" y="0.5" width="55" height="55" rx="27.5" fill="url(#paint0_linear_283_933)"/>
<path d="M23.7566 35.0706C22.3424 39.3133 16.6855 39.3133 16.6855 39.3133C16.6855 39.3133 16.6855 33.6564 20.9282 32.2422" stroke="white" stroke-width="2" stroke-linecap="round" stroke-linejoin="round"/>
<path d="M36.4859 25.1725L28.0006 33.6578L22.3438 28.0009L30.829 19.5156C34.0421 16.3026 37.2551 16.334 38.6253 16.5384C38.8363 16.5699 39.0316 16.6682 39.1824 16.8191C39.3333 16.9699 39.4317 17.1652 39.4631 17.3762C39.6676 18.7465 39.6989 21.9595 36.4859 25.1725Z" stroke="white" stroke-width="2" stroke-linecap="round" stroke-linejoin="round"/>
<path d="M35.0711 26.5859V34.657C35.0711 34.7883 35.0452 34.9184 34.9949 35.0397C34.9447 35.161 34.871 35.2713 34.7782 35.3641L30.7355 39.4068C30.6075 39.5348 30.4471 39.6257 30.2716 39.6697C30.096 39.7137 29.9118 39.7093 29.7386 39.6568C29.5653 39.6044 29.4096 39.5059 29.2879 39.3719C29.1663 39.2378 29.0833 39.0733 29.0478 38.8958L28 33.657" stroke="white" stroke-width="2" stroke-linecap="round" stroke-linejoin="round"/>
<path d="M29.4146 20.9297H21.3435C21.2122 20.9297 21.0821 20.9556 20.9608 21.0058C20.8395 21.0561 20.7293 21.1297 20.6364 21.2226L16.5937 25.2653C16.4657 25.3933 16.3748 25.5536 16.3308 25.7292C16.2868 25.9047 16.2912 26.089 16.3437 26.2622C16.3961 26.4354 16.4946 26.5912 16.6286 26.7128C16.7627 26.8345 16.9272 26.9175 17.1047 26.953L22.3435 28.0008" stroke="white" stroke-width="2" stroke-linecap="round" stroke-linejoin="round"/>
<rect x="0.5" y="0.5" width="55" height="55" rx="27.5" stroke="black"/>
<defs>
<linearGradient id="paint0_linear_283_933" x1="-1.01493" y1="1.05439" x2="53.324" y2="57.0329" gradientUnits="userSpaceOnUse">
<stop stop-color="#56BFE0"/>
<stop offset="0.809395" stop-color="#1E69E1"/>
</linearGradient>
</defs>
</svg>
