<svg width="56" height="56" viewBox="0 0 56 56" fill="none" xmlns="http://www.w3.org/2000/svg">
<rect x="0.5" y="0.5" width="55" height="55" rx="27.5" fill="white"/>
<path d="M25 34C27.2091 34 29 32.2091 29 30C29 27.7909 27.2091 26 25 26C22.7909 26 21 27.7909 21 30C21 32.2091 22.7909 34 25 34Z" stroke="#474747" stroke-width="2" stroke-linecap="round" stroke-linejoin="round"/>
<path d="M18.6737 37.9998C19.2418 36.803 20.1378 35.7918 21.2576 35.0838C22.3775 34.3758 23.6751 34 25 34C26.3249 34 27.6225 34.3758 28.7424 35.0838C29.8622 35.7918 30.7582 36.803 31.3263 37.9998L39 38C39.1313 38 39.2613 37.9741 39.3827 37.9239C39.504 37.8736 39.6142 37.8 39.7071 37.7071C39.8 37.6143 39.8736 37.504 39.9239 37.3827C39.9741 37.2614 40 37.1313 40 37V19C40 18.7348 39.8946 18.4804 39.7071 18.2929C39.5196 18.1054 39.2652 18 39 18H17C16.7348 18 16.4804 18.1054 16.2929 18.2929C16.1054 18.4804 16 18.7348 16 19V37.0001C16 37.1314 16.0259 37.2614 16.0761 37.3828C16.1264 37.5041 16.2 37.6143 16.2929 37.7072C16.3858 37.8 16.496 37.8737 16.6173 37.9239C16.7386 37.9742 16.8687 38 17 38L18.6737 37.9998Z" stroke="#474747" stroke-width="2" stroke-linecap="round" stroke-linejoin="round"/>
<path d="M34 34H36V22H20V24" stroke="#474747" stroke-width="2" stroke-linecap="round" stroke-linejoin="round"/>
<rect x="0.5" y="0.5" width="55" height="55" rx="27.5" stroke="#E0E0E0"/>
</svg>
