<svg width="33" height="33" viewBox="0 0 33 33" fill="none" xmlns="http://www.w3.org/2000/svg">
<path d="M26.1992 4.5H6.19922C5.66897 4.50061 5.16062 4.71151 4.78568 5.08646C4.41073 5.4614 4.19983 5.96975 4.19922 6.5V26.5C4.19983 27.0302 4.41073 27.5386 4.78568 27.9135C5.16062 28.2885 5.66897 28.4994 6.19922 28.5H26.1992C26.7295 28.4994 27.2378 28.2885 27.6128 27.9135C27.9877 27.5386 28.1986 27.0302 28.1992 26.5V6.5C28.1986 5.96975 27.9877 5.4614 27.6128 5.08646C27.2378 4.71151 26.7295 4.50061 26.1992 4.5ZM12.1992 22.5001C12.1992 22.7653 12.0939 23.0197 11.9063 23.2072C11.7188 23.3948 11.4644 23.5001 11.1992 23.5001C10.934 23.5001 10.6796 23.3948 10.4921 23.2072C10.3046 23.0197 10.1992 22.7653 10.1992 22.5001V14.5001C10.1992 14.2349 10.3046 13.9805 10.4921 13.793C10.6796 13.6055 10.934 13.5001 11.1992 13.5001C11.4644 13.5001 11.7188 13.6055 11.9063 13.793C12.0939 13.9805 12.1992 14.2349 12.1992 14.5001V22.5001ZM11.1992 12.0001C10.9025 12.0001 10.6125 11.9121 10.3659 11.7473C10.1192 11.5825 9.92693 11.3482 9.8134 11.0741C9.69987 10.8001 9.67016 10.4985 9.72804 10.2075C9.78592 9.91651 9.92878 9.64924 10.1386 9.43946C10.3483 9.22968 10.6156 9.08682 10.9066 9.02894C11.1976 8.97106 11.4992 9.00077 11.7732 9.1143C12.0473 9.22783 12.2816 9.42009 12.4464 9.66676C12.6112 9.91344 12.6992 10.2034 12.6992 10.5001C12.6992 10.8979 12.5412 11.2795 12.2599 11.5608C11.9786 11.8421 11.597 12.0001 11.1992 12.0001ZM23.1992 22.5001C23.1992 22.7653 23.0939 23.0197 22.9063 23.2072C22.7188 23.3948 22.4644 23.5001 22.1992 23.5001C21.934 23.5001 21.6796 23.3948 21.4921 23.2072C21.3046 23.0197 21.1992 22.7653 21.1992 22.5001V18.0001C21.1992 17.3371 20.9358 16.7012 20.467 16.2324C19.9981 15.7635 19.3623 15.5001 18.6992 15.5001C18.0362 15.5001 17.4003 15.7635 16.9315 16.2324C16.4626 16.7012 16.1992 17.3371 16.1992 18.0001V22.5001C16.1992 22.7653 16.0939 23.0197 15.9063 23.2072C15.7188 23.3948 15.4644 23.5001 15.1992 23.5001C14.934 23.5001 14.6796 23.3948 14.4921 23.2072C14.3046 23.0197 14.1992 22.7653 14.1992 22.5001V14.5001C14.1991 14.2543 14.2896 14.0171 14.4534 13.8338C14.6172 13.6504 14.8427 13.5339 15.087 13.5064C15.3313 13.4789 15.5771 13.5423 15.7776 13.6847C15.978 13.827 16.119 14.0381 16.1736 14.2778C16.8499 13.8182 17.6386 13.5517 18.4551 13.5069C19.2715 13.4621 20.0847 13.6407 20.8072 14.0235C21.5297 14.4063 22.1342 14.9788 22.5557 15.6795C22.9772 16.3801 23.1996 17.1825 23.1992 18.0001V22.5001Z" fill="white"/>
</svg>
