<svg width="15" height="14" viewBox="0 0 15 14" fill="none" xmlns="http://www.w3.org/2000/svg">
<g id="Calling">
<g id="Group 3">
<mask id="mask0_109_43" style="mask-type:luminance" maskUnits="userSpaceOnUse" x="8" y="0" width="7" height="7">
<path id="Clip 2" fill-rule="evenodd" clip-rule="evenodd" d="M8.56934 0.333557H14.262V6.0221H8.56934V0.333557Z" fill="white"/>
</mask>
<g mask="url(#mask0_109_43)">
<path id="Fill 1" fill-rule="evenodd" clip-rule="evenodd" d="M13.7618 6.0221C13.5105 6.0221 13.2945 5.83343 13.2658 5.5781C13.0131 3.32743 11.2651 1.58077 9.0138 1.33077C8.7398 1.3001 8.5418 1.05343 8.57247 0.778766C8.60247 0.504766 8.84713 0.302766 9.12447 0.337433C11.8431 0.639433 13.9545 2.7481 14.2591 5.4661C14.2898 5.74077 14.0925 5.9881 13.8185 6.01877C13.7998 6.02077 13.7805 6.0221 13.7618 6.0221Z" fill="white"/>
</g>
</g>
<path id="Fill 4" fill-rule="evenodd" clip-rule="evenodd" d="M11.4017 6.02927C11.167 6.02927 10.9584 5.86394 10.9117 5.62527C10.7197 4.63861 9.95904 3.87794 8.97371 3.68661C8.70238 3.63394 8.52571 3.37194 8.57838 3.10061C8.63104 2.82927 8.89771 2.65194 9.16438 2.70527C10.5517 2.97461 11.623 4.04527 11.893 5.43327C11.9457 5.70527 11.769 5.96727 11.4984 6.01994C11.4657 6.02594 11.4337 6.02927 11.4017 6.02927Z" fill="white"/>
<g id="Group 8">
<mask id="mask1_109_43" style="mask-type:luminance" maskUnits="userSpaceOnUse" x="0" y="0" width="15" height="15">
<path id="Clip 7" fill-rule="evenodd" clip-rule="evenodd" d="M0.333618 0.333282H14.0004V14.0003H0.333618V0.333282Z" fill="white"/>
</mask>
<g mask="url(#mask1_109_43)">
<path id="Fill 6" fill-rule="evenodd" clip-rule="evenodd" d="M1.90635 2.37428C1.90769 2.37428 1.87435 2.40895 1.83235 2.45028C1.67102 2.60695 1.33702 2.93295 1.33369 3.61495C1.32835 4.56895 1.95569 6.34028 4.97635 9.36028C7.98235 12.3656 9.75102 13.0003 10.7077 13.0003H10.7217C11.4037 12.9963 11.729 12.6623 11.8857 12.5016C11.933 12.4529 11.9717 12.4163 11.999 12.3943C12.6637 11.7256 13.0037 11.2289 13.0004 10.9096C12.9964 10.5843 12.5917 10.2003 12.0324 9.66762C11.8544 9.49895 11.661 9.31428 11.457 9.11028C10.9277 8.58295 10.667 8.67295 10.0904 8.87562C9.29369 9.15495 8.20235 9.53762 6.50169 7.83562C4.80035 6.13495 5.18169 5.04362 5.45969 4.24628C5.66102 3.67028 5.75302 3.40828 5.22435 2.87895C5.01769 2.67228 4.83169 2.47628 4.66035 2.29628C4.13102 1.74028 3.74902 1.33828 3.42569 1.33362H3.42035C3.10102 1.33362 2.60502 1.67495 1.90302 2.37695C1.90502 2.37495 1.90569 2.37428 1.90635 2.37428ZM10.7077 14.0003C9.04634 14.0003 6.88034 12.6776 4.26967 10.0676C1.64834 7.44695 0.323674 5.27428 0.333674 3.60961C0.339674 2.50961 0.916341 1.94628 1.13301 1.73495C1.14434 1.72095 1.18301 1.68295 1.19634 1.66961C2.15301 0.712945 2.81034 0.319612 3.43834 0.333612C4.18301 0.343612 4.71367 0.901612 5.38501 1.60761C5.55101 1.78161 5.73034 1.97161 5.93101 2.17161C6.90367 3.14495 6.62701 3.93895 6.40367 4.57628C6.16101 5.27161 5.95101 5.87161 7.20834 7.12895C8.46567 8.38628 9.06501 8.17628 9.75967 7.93161C10.3977 7.70895 11.1897 7.43028 12.1643 8.40361C12.3623 8.60161 12.549 8.77894 12.7223 8.94361C13.431 9.61828 13.991 10.1509 14.0003 10.8976C14.0077 11.5336 13.621 12.1829 12.6663 13.1376L12.2437 12.8509L12.6017 13.1996C12.3903 13.4163 11.8283 13.9936 10.7277 14.0003H10.7077Z" fill="white"/>
</g>
</g>
</g>
</svg>
