<svg width="33" height="33" viewBox="0 0 33 33" fill="none" xmlns="http://www.w3.org/2000/svg">
<path d="M16.5996 20.0996C18.8087 20.0996 20.5996 18.3087 20.5996 16.0996C20.5996 13.8905 18.8087 12.0996 16.5996 12.0996C14.3905 12.0996 12.5996 13.8905 12.5996 16.0996C12.5996 18.3087 14.3905 20.0996 16.5996 20.0996Z" fill="#E0E0E0"/>
<path d="M22.0996 3.59961H11.0996C9.24374 3.60171 7.46448 4.33988 6.15218 5.65218C4.83988 6.96448 4.10171 8.74374 4.09961 10.5996V21.5996C4.10171 23.4555 4.83988 25.2347 6.15218 26.547C7.46448 27.8593 9.24374 28.5975 11.0996 28.5996H22.0996C23.9555 28.5975 25.7347 27.8593 27.047 26.547C28.3593 25.2347 29.0975 23.4555 29.0996 21.5996V10.5996C29.0975 8.74374 28.3593 6.96448 27.047 5.65218C25.7347 4.33988 23.9555 3.60171 22.0996 3.59961ZM16.5996 22.0996C15.4129 22.0996 14.2529 21.7477 13.2662 21.0884C12.2795 20.4291 11.5105 19.4921 11.0563 18.3957C10.6022 17.2994 10.4834 16.093 10.7149 14.9291C10.9464 13.7652 11.5179 12.6961 12.357 11.857C13.1961 11.0179 14.2652 10.4464 15.4291 10.2149C16.593 9.98339 17.7994 10.1022 18.8957 10.5563C19.9921 11.0105 20.9291 11.7795 21.5884 12.7662C22.2477 13.7529 22.5996 14.9129 22.5996 16.0996C22.5978 17.6904 21.9651 19.2154 20.8403 20.3403C19.7154 21.4651 18.1904 22.0978 16.5996 22.0996ZM23.0996 11.0996C22.8029 11.0996 22.5129 11.0116 22.2663 10.8468C22.0196 10.682 21.8273 10.4477 21.7138 10.1736C21.6003 9.89955 21.5706 9.59795 21.6284 9.30697C21.6863 9.016 21.8292 8.74873 22.0389 8.53895C22.2487 8.32917 22.516 8.18631 22.807 8.12843C23.0979 8.07055 23.3995 8.10026 23.6736 8.21379C23.9477 8.32732 24.182 8.51958 24.3468 8.76625C24.5116 9.01293 24.5996 9.30294 24.5996 9.59961C24.5996 9.99743 24.4416 10.379 24.1603 10.6603C23.879 10.9416 23.4974 11.0996 23.0996 11.0996Z" fill="#E0E0E0"/>
</svg>
