<svg width="33" height="33" viewBox="0 0 33 33" fill="none" xmlns="http://www.w3.org/2000/svg">
<path d="M26.2002 4.09961H6.2002C5.66995 4.10022 5.16159 4.31112 4.78665 4.68607C4.41171 5.06101 4.2008 5.56936 4.2002 6.09961V26.0996C4.2008 26.6299 4.41171 27.1382 4.78665 27.5132C5.16159 27.8881 5.66995 28.099 6.2002 28.0996H26.2002C26.7304 28.099 27.2388 27.8881 27.6137 27.5132C27.9887 27.1382 28.1996 26.6299 28.2002 26.0996V6.09961C28.1996 5.56936 27.9887 5.06101 27.6137 4.68607C27.2388 4.31112 26.7304 4.10022 26.2002 4.09961ZM12.2002 22.0997C12.2002 22.3649 12.0948 22.6193 11.9073 22.8068C11.7198 22.9944 11.4654 23.0997 11.2002 23.0997C10.935 23.0997 10.6806 22.9944 10.4931 22.8068C10.3056 22.6193 10.2002 22.3649 10.2002 22.0997V14.0997C10.2002 13.8345 10.3056 13.5802 10.4931 13.3926C10.6806 13.2051 10.935 13.0997 11.2002 13.0997C11.4654 13.0997 11.7198 13.2051 11.9073 13.3926C12.0948 13.5802 12.2002 13.8345 12.2002 14.0997V22.0997ZM11.2002 11.5997C10.9035 11.5997 10.6135 11.5118 10.3668 11.3469C10.1202 11.1821 9.92791 10.9478 9.81438 10.6738C9.70084 10.3997 9.67114 10.0981 9.72902 9.80709C9.7869 9.51612 9.92976 9.24885 10.1395 9.03907C10.3493 8.82929 10.6166 8.68643 10.9076 8.62855C11.1985 8.57067 11.5001 8.60038 11.7742 8.71391C12.0483 8.82744 12.2826 9.0197 12.4474 9.26637C12.6122 9.51305 12.7002 9.80305 12.7002 10.0997C12.7002 10.4976 12.5422 10.8791 12.2609 11.1604C11.9796 11.4417 11.598 11.5997 11.2002 11.5997ZM23.2002 22.0997C23.2002 22.3649 23.0948 22.6193 22.9073 22.8068C22.7198 22.9944 22.4654 23.0997 22.2002 23.0997C21.935 23.0997 21.6806 22.9944 21.4931 22.8068C21.3056 22.6193 21.2002 22.3649 21.2002 22.0997V17.5997C21.2002 16.9367 20.9368 16.3008 20.468 15.832C19.9991 15.3631 19.3632 15.0997 18.7002 15.0997C18.0372 15.0997 17.4013 15.3631 16.9324 15.832C16.4636 16.3008 16.2002 16.9367 16.2002 17.5997V22.0997C16.2002 22.3649 16.0948 22.6193 15.9073 22.8068C15.7198 22.9944 15.4654 23.0997 15.2002 23.0997C14.935 23.0997 14.6806 22.9944 14.4931 22.8068C14.3056 22.6193 14.2002 22.3649 14.2002 22.0997V14.0997C14.2001 13.8539 14.2906 13.6167 14.4544 13.4334C14.6182 13.2501 14.8437 13.1335 15.088 13.106C15.3323 13.0785 15.5781 13.142 15.7786 13.2843C15.979 13.4266 16.12 13.6377 16.1746 13.8774C16.8508 13.4178 17.6396 13.1513 18.456 13.1065C19.2725 13.0617 20.0857 13.2403 20.8082 13.6231C21.5307 14.0059 22.1352 14.5784 22.5567 15.2791C22.9781 15.9798 23.2006 16.7821 23.2002 17.5997V22.0997Z" fill="#E0E0E0"/>
</svg>
