<svg width="163" height="26" viewBox="0 0 163 26" fill="none" xmlns="http://www.w3.org/2000/svg">
<g clip-path="url(#clip0_6007_20824)">
<path d="M31.9751 15.0824C31.9751 10.8373 35.2056 7.85547 39.6073 7.85547C42.2902 7.85547 44.4043 8.84402 45.7557 10.6205L42.8378 13.2454C42.0351 12.2205 41.0763 11.6265 39.8423 11.6265C37.9246 11.6265 36.6319 12.9706 36.6319 15.0824C36.6319 17.1942 37.9246 18.5383 39.8423 18.5383C41.0763 18.5383 42.0351 17.9457 42.8378 16.9181L45.7557 19.5444C44.4096 21.3221 42.2902 22.3093 39.6073 22.3093C35.2056 22.304 31.9751 19.3221 31.9751 15.0824Z" fill="#292929"/>
<path d="M54.6285 10.9883V14.9371C54.3053 14.8846 53.9782 14.8576 53.6496 14.8576C52.3182 14.8576 51.378 15.4704 51.378 17.1876V21.9849H46.9536V11.1863H51.1617V12.3526C51.9456 11.4422 53.1395 10.9883 54.6285 10.9883Z" fill="#292929"/>
<path d="M67.1189 17.6226H59.6791C59.9916 18.4523 60.7368 18.8873 61.8332 18.8873C62.8121 18.8873 63.3609 18.63 64.0661 18.0954L66.3764 20.4455C65.3388 21.5903 63.8324 22.1829 61.697 22.1829C57.7627 22.1829 55.2173 19.7937 55.2173 16.5762C55.2173 13.294 57.8214 10.9883 61.287 10.9883C64.4587 10.9883 67.179 12.9223 67.179 16.5762C67.1777 16.8927 67.139 17.3061 67.1189 17.6226ZM59.6003 15.4718H63.0458C62.8695 14.5667 62.2231 14.0294 61.323 14.0294C60.4056 14.028 59.7792 14.5613 59.6029 15.4704L59.6003 15.4718Z" fill="#292929"/>
<path d="M78.867 16.1809V21.9843H74.7565V20.5648C74.2463 21.6503 73.2287 22.1836 71.7263 22.1836C69.1021 22.1836 67.752 20.6833 67.752 18.8261C67.752 16.7331 69.3171 15.5681 72.6464 15.5681H74.4279C74.2904 14.7385 73.6654 14.3048 72.4074 14.3048C71.4472 14.3048 70.3721 14.62 69.667 15.1533L68.2568 12.2106C69.5094 11.4187 71.4098 10.9863 73.0724 10.9863C76.753 10.9877 78.867 12.5904 78.867 16.1809ZM74.444 18.4759V17.7257H73.3475C72.4074 17.7257 72.0014 18.0409 72.0014 18.6308C72.0014 19.1237 72.3927 19.4995 73.0591 19.4995C73.66 19.4954 74.2076 19.1816 74.444 18.4759Z" fill="#292929"/>
<path d="M88.6774 21.6103C87.9923 22.005 86.9934 22.1827 85.9557 22.1827C82.999 22.1827 81.2763 20.7807 81.2763 17.7989V15.0353H79.8086V11.7787H81.2763V8.75781H85.702V11.7787H87.8948V15.0366H85.702V17.7612C85.702 18.4319 86.0933 18.8076 86.6221 18.8076C86.976 18.8103 87.3232 18.7066 87.6197 18.5113L88.6774 21.6103Z" fill="#292929"/>
<path d="M89.3438 8.04805C89.3438 6.76455 90.3814 5.77734 92.0053 5.77734C93.6293 5.77734 94.6682 6.68239 94.6682 7.96859C94.6682 9.32616 93.6306 10.3188 92.0053 10.3188C90.3801 10.3188 89.3438 9.33155 89.3438 8.04805ZM89.7925 11.1874H94.2182V21.9874H89.7938L89.7925 11.1874Z" fill="#292929"/>
<path d="M108.099 11.1869L103.792 21.9869H99.2087L94.9019 11.1855H99.4438L101.599 16.9728L103.91 11.1869H108.099Z" fill="#292929"/>
<path d="M119.827 17.6226H112.387C112.701 18.4523 113.445 18.8873 114.541 18.8873C115.52 18.8873 116.069 18.63 116.774 18.0954L119.084 20.4455C118.047 21.5903 116.54 22.1829 114.405 22.1829C110.471 22.1829 107.925 19.7937 107.925 16.5762C107.925 13.294 110.529 10.9883 113.995 10.9883C117.167 10.9883 119.888 12.9223 119.888 16.5762C119.887 16.8927 119.847 17.3061 119.827 17.6226ZM112.307 15.4718H115.752C115.576 14.5667 114.93 14.0294 114.03 14.0294C113.112 14.028 112.486 14.5613 112.31 15.4704L112.307 15.4718Z" fill="#292929"/>
<path d="M134.923 8.16602V21.9869H130.302V16.8933H126.032V21.9869H121.414V8.16602H126.032V13.063H130.296V8.16602H134.923Z" fill="#292929"/>
<path d="M148.727 11.1875V21.9875H144.517V20.9599C143.715 21.7895 142.638 22.1841 141.487 22.1841C138.922 22.1841 136.984 20.6636 136.984 17.1498V11.1875H141.41V16.3808C141.41 17.9215 141.938 18.4333 142.798 18.4333C143.562 18.4333 144.306 17.8622 144.306 16.2622V11.1875H148.727Z" fill="#292929"/>
<path d="M163 16.5763C163 20.0511 160.632 22.1831 157.832 22.1831C156.5 22.1831 155.541 21.8275 154.895 21.0962V21.9851H150.687V7.33594H155.111V11.9124C155.758 11.2807 156.658 10.9844 157.833 10.9844C160.632 10.9885 163 13.1016 163 16.5763ZM158.518 16.5763C158.518 15.1743 157.754 14.4632 156.775 14.4632C155.796 14.4632 155.033 15.1743 155.033 16.5763C155.033 17.9784 155.796 18.7083 156.775 18.7083C157.754 18.7083 158.517 17.9784 158.518 16.5763Z" fill="#292929"/>
<path d="M12.8912 0C5.77187 0 0 5.82087 0 13.0007C0 20.1805 5.77187 26.0013 12.8912 26.0013C20.0106 26.0013 25.7825 20.1832 25.7825 13.0007C25.7825 5.81818 20.0093 0 12.8912 0ZM18.1409 13.0182C17.735 13.3145 17.2716 13.5205 16.7814 13.6229L16.7013 13.6391V17.1515H14.1559V13.4572L13.7606 13.363C13.2825 13.2512 12.7884 13.1367 12.349 13.1098C12.2515 13.1057 12.1541 13.1071 12.0566 13.1151L11.9631 13.1232V19.9246H9.4217V13.9758L8.63644 14.5387L7.16743 12.4431L7.98474 11.8545C8.39072 11.5582 8.85412 11.3522 9.34424 11.2498L9.42437 11.2337V6.80269H11.9698V10.5522L12.0739 10.5481C12.1327 10.5455 12.1928 10.5455 12.2515 10.5455C12.3383 10.5441 12.4252 10.5481 12.512 10.5576H12.52C13.0315 10.5886 13.5403 10.6667 14.0384 10.7906L14.1586 10.8202V6.7771H16.704V10.897L17.4892 10.334L18.9609 12.4283L18.1409 13.0182Z" fill="#292929"/>
</g>
<defs>
<clipPath id="clip0_6007_20824">
<rect width="163" height="26" fill="white"/>
</clipPath>
</defs>
</svg>
