<svg width="32" height="33" viewBox="0 0 32 33" fill="none" xmlns="http://www.w3.org/2000/svg">
<path d="M29.2913 8.82441C29.1727 8.36448 28.9465 7.93933 28.6312 7.58406C28.316 7.22879 27.9208 6.95358 27.4782 6.78114C23.1945 5.13502 16.3724 5.14875 16 5.1507C15.6278 5.14771 8.8056 5.13495 4.52185 6.78114C4.0793 6.95357 3.68409 7.22876 3.36884 7.58401C3.05359 7.93926 2.82734 8.36438 2.70874 8.82429C2.38537 10.0656 2 12.3355 2 16.0997C2 19.864 2.38537 22.1338 2.70868 23.3751C2.82725 23.835 3.0535 24.2602 3.36875 24.6154C3.68401 24.9707 4.07922 25.2459 4.52179 25.4183C8.62256 26.9942 15.0495 27.049 15.9177 27.049C15.9952 27.0491 16.0048 27.0491 16.0823 27.049C16.9512 27.049 23.3776 26.9941 27.4782 25.4183C27.9207 25.2459 28.3159 24.9707 28.6312 24.6155C28.9464 24.2602 29.1727 23.8351 29.2913 23.3752C29.6146 22.1339 30 19.864 30 16.0997C30 12.3355 29.6146 10.0657 29.2913 8.82441ZM20.2773 16.5158L14.2773 20.5158C14.202 20.566 14.1145 20.5948 14.0241 20.5992C13.9337 20.6036 13.8438 20.5833 13.7641 20.5406C13.6843 20.4979 13.6176 20.4343 13.571 20.3567C13.5245 20.2791 13.5 20.1902 13.5 20.0997V12.0997C13.5 12.0092 13.5245 11.9204 13.571 11.8428C13.6176 11.7651 13.6843 11.7016 13.7641 11.6589C13.8438 11.6162 13.9337 11.5959 14.0241 11.6003C14.1145 11.6047 14.202 11.6335 14.2773 11.6837L20.2773 15.6837C20.3458 15.7294 20.402 15.7912 20.4408 15.8638C20.4797 15.9364 20.5 16.0174 20.5 16.0997C20.5 16.1821 20.4797 16.2631 20.4408 16.3357C20.402 16.4082 20.3458 16.4701 20.2773 16.5158Z" fill="#E0E0E0"/>
</svg>
